{"glyphs":{"0":{"ha":838,"x_min":85,"x_max":753,"o":"m 207 -15 l 207 103 l 85 103 l 85 767 l 207 767 l 207 886 l 629 886 l 629 767 l 753 767 l 753 103 l 629 103 l 629 -15 l 207 -15 m 261 174 l 575 174 l 575 696 l 261 696 l 261 174 z "},"1":{"ha":592,"x_min":85,"x_max":507,"o":"m 329 -15 l 329 696 l 261 696 l 261 578 l 85 578 l 85 767 l 207 767 l 207 886 l 383 886 l 383 767 l 507 767 l 507 -15 l 329 -15 z "},"2":{"ha":838,"x_min":85,"x_max":753,"o":"m 207 -15 l 207 103 l 85 103 l 85 413 l 207 413 l 207 529 l 575 529 l 575 696 l 261 696 l 261 578 l 85 578 l 85 767 l 207 767 l 207 886 l 629 886 l 629 767 l 753 767 l 753 460 l 629 460 l 629 342 l 261 342 l 261 174 l 575 174 l 575 293 l 753 293 l 753 103 l 629 103 l 629 -15 l 207 -15 z "},"3":{"ha":838,"x_min":85,"x_max":753,"o":"m 207 -15 l 207 103 l 85 103 l 85 293 l 261 293 l 261 174 l 575 174 l 575 342 l 207 342 l 207 529 l 575 529 l 575 696 l 261 696 l 261 578 l 85 578 l 85 767 l 207 767 l 207 886 l 629 886 l 629 767 l 753 767 l 753 460 l 629 460 l 629 413 l 753 413 l 753 103 l 629 103 l 629 -15 l 207 -15 z "},"4":{"ha":838,"x_min":85,"x_max":753,"o":"m 575 -15 l 575 222 l 85 222 l 85 529 l 207 529 l 207 649 l 329 649 l 329 767 l 453 767 l 453 886 l 753 886 l 753 -15 l 575 -15 m 261 413 l 575 413 l 575 696 l 507 696 l 507 578 l 383 578 l 383 460 l 261 460 l 261 413 z "},"5":{"ha":838,"x_min":85,"x_max":753,"o":"m 207 -15 l 207 103 l 85 103 l 85 293 l 261 293 l 261 174 l 575 174 l 575 222 l 329 222 l 329 342 l 207 342 l 207 460 l 85 460 l 85 767 l 207 767 l 207 886 l 629 886 l 629 767 l 753 767 l 753 460 l 575 460 l 575 696 l 261 696 l 261 529 l 383 529 l 383 413 l 629 413 l 629 293 l 753 293 l 753 103 l 629 103 l 629 -15 l 207 -15 z "},"6":{"ha":838,"x_min":85,"x_max":753,"o":"m 207 -15 l 207 103 l 85 103 l 85 767 l 207 767 l 207 886 l 629 886 l 629 767 l 753 767 l 753 578 l 575 578 l 575 696 l 261 696 l 261 529 l 629 529 l 629 413 l 753 413 l 753 103 l 629 103 l 629 -15 l 207 -15 m 261 174 l 575 174 l 575 342 l 261 342 l 261 174 z "},"7":{"ha":838,"x_min":85,"x_max":753,"o":"m 575 -15 l 575 696 l 261 696 l 261 578 l 85 578 l 85 767 l 207 767 l 207 886 l 629 886 l 629 767 l 753 767 l 753 -15 l 575 -15 z "},"8":{"ha":838,"x_min":85,"x_max":753,"o":"m 207 -15 l 207 103 l 85 103 l 85 413 l 207 413 l 207 460 l 85 460 l 85 767 l 207 767 l 207 886 l 629 886 l 629 767 l 753 767 l 753 460 l 629 460 l 629 413 l 753 413 l 753 103 l 629 103 l 629 -15 l 207 -15 m 261 174 l 575 174 l 575 342 l 261 342 l 261 174 m 261 529 l 575 529 l 575 696 l 261 696 l 261 529 z "},"9":{"ha":838,"x_min":85,"x_max":753,"o":"m 207 -15 l 207 103 l 85 103 l 85 293 l 261 293 l 261 174 l 575 174 l 575 342 l 207 342 l 207 460 l 85 460 l 85 767 l 207 767 l 207 886 l 629 886 l 629 767 l 753 767 l 753 103 l 629 103 l 629 -15 l 207 -15 m 261 529 l 575 529 l 575 696 l 261 696 l 261 529 z "},"A":{"ha":838,"x_min":85,"x_max":753,"o":"m 85 -15 l 85 649 l 207 649 l 207 767 l 329 767 l 329 886 l 507 886 l 507 767 l 629 767 l 629 649 l 753 649 l 753 -15 l 575 -15 l 575 222 l 261 222 l 261 -15 l 85 -15 m 261 413 l 575 413 l 575 578 l 453 578 l 453 696 l 383 696 l 383 578 l 261 578 l 261 413 z "},"Á":{"ha":838,"x_min":85,"x_max":753,"o":"m 85 -15 l 85 649 l 207 649 l 207 767 l 329 767 l 329 886 l 507 886 l 507 767 l 629 767 l 629 649 l 753 649 l 753 -15 l 575 -15 l 575 222 l 261 222 l 261 -15 l 85 -15 m 261 413 l 575 413 l 575 578 l 453 578 l 453 696 l 383 696 l 383 578 l 261 578 l 261 413 m 299 946 l 299 1075 l 360 1075 l 360 1133 l 422 1133 l 422 1194 l 536 1194 l 536 1064 l 475 1064 l 475 1004 l 414 1004 l 414 946 l 299 946 z "},"Ă":{"ha":838,"x_min":85,"x_max":753,"o":"m 85 -15 l 85 649 l 207 649 l 207 767 l 329 767 l 329 886 l 507 886 l 507 767 l 629 767 l 629 649 l 753 649 l 753 -15 l 575 -15 l 575 222 l 261 222 l 261 -15 l 85 -15 m 261 413 l 575 413 l 575 578 l 453 578 l 453 696 l 383 696 l 383 578 l 261 578 l 261 413 m 235 946 l 235 1136 l 349 1136 l 349 1076 l 490 1076 l 490 1136 l 603 1136 l 603 946 l 235 946 z "},"Â":{"ha":838,"x_min":85,"x_max":753,"o":"m 85 -15 l 85 649 l 207 649 l 207 767 l 329 767 l 329 886 l 507 886 l 507 767 l 629 767 l 629 649 l 753 649 l 753 -15 l 575 -15 l 575 222 l 261 222 l 261 -15 l 85 -15 m 261 413 l 575 413 l 575 578 l 453 578 l 453 696 l 383 696 l 383 578 l 261 578 l 261 413 m 301 946 l 301 1075 l 363 1075 l 363 1136 l 478 1136 l 478 1075 l 539 1075 l 539 946 l 424 946 l 424 1006 l 415 1006 l 415 946 l 301 946 z "},"Ä":{"ha":838,"x_min":85,"x_max":753,"o":"m 85 -15 l 85 649 l 207 649 l 207 767 l 329 767 l 329 886 l 507 886 l 507 767 l 629 767 l 629 649 l 753 649 l 753 -15 l 575 -15 l 575 222 l 261 222 l 261 -15 l 85 -15 m 261 413 l 575 413 l 575 578 l 453 578 l 453 696 l 383 696 l 383 578 l 261 578 l 261 413 m 193 938 l 193 1128 l 371 1128 l 371 938 l 193 938 m 481 938 l 481 1128 l 657 1128 l 657 938 l 481 938 z "},"À":{"ha":838,"x_min":85,"x_max":753,"o":"m 85 -15 l 85 649 l 207 649 l 207 767 l 329 767 l 329 886 l 507 886 l 507 767 l 629 767 l 629 649 l 753 649 l 753 -15 l 575 -15 l 575 222 l 261 222 l 261 -15 l 85 -15 m 261 413 l 575 413 l 575 578 l 453 578 l 453 696 l 383 696 l 383 578 l 261 578 l 261 413 m 363 946 l 363 1004 l 301 1004 l 301 1064 l 240 1064 l 240 1194 l 354 1194 l 354 1133 l 417 1133 l 417 1075 l 478 1075 l 478 946 l 363 946 z "},"Ā":{"ha":838,"x_min":85,"x_max":753,"o":"m 85 -15 l 85 649 l 207 649 l 207 767 l 329 767 l 329 886 l 507 886 l 507 767 l 629 767 l 629 649 l 753 649 l 753 -15 l 575 -15 l 575 222 l 261 222 l 261 -15 l 85 -15 m 261 413 l 575 413 l 575 578 l 453 578 l 453 696 l 383 696 l 383 578 l 261 578 l 261 413 m 206 946 l 206 1136 l 628 1136 l 628 946 l 206 946 z "},"Ą":{"ha":838,"x_min":85,"x_max":874,"o":"m 85 -15 l 85 649 l 207 649 l 207 767 l 329 767 l 329 886 l 507 886 l 507 767 l 629 767 l 629 649 l 753 649 l 753 -15 l 575 -15 l 575 222 l 261 222 l 261 -15 l 85 -15 m 261 413 l 575 413 l 575 578 l 453 578 l 453 696 l 383 696 l 383 578 l 261 578 l 261 413 m 575 -279 l 575 -219 l 514 -219 l 514 -90 l 575 -90 l 575 -60 l 575 -61 l 575 38 l 753 38 l 753 -101 l 690 -101 l 690 -114 l 690 -125 l 690 -149 l 760 -149 l 760 -90 l 874 -90 l 874 -219 l 813 -219 l 813 -279 l 575 -279 z "},"Å":{"ha":838,"x_min":85,"x_max":753,"o":"m 85 -15 l 85 649 l 207 649 l 207 767 l 329 767 l 329 886 l 507 886 l 507 767 l 629 767 l 629 649 l 753 649 l 753 -15 l 575 -15 l 575 222 l 261 222 l 261 -15 l 85 -15 m 261 413 l 575 413 l 575 578 l 453 578 l 453 696 l 383 696 l 383 578 l 261 578 l 261 413 m 332 947 l 332 1138 l 506 1138 l 506 947 l 332 947 m 378 993 l 460 993 l 460 1092 l 378 1092 l 378 993 z "},"Ã":{"ha":838,"x_min":85,"x_max":753,"o":"m 85 -15 l 85 649 l 207 649 l 207 767 l 329 767 l 329 886 l 507 886 l 507 767 l 629 767 l 629 649 l 753 649 l 753 -15 l 575 -15 l 575 222 l 261 222 l 261 -15 l 85 -15 m 261 413 l 575 413 l 575 578 l 453 578 l 453 696 l 383 696 l 383 578 l 261 578 l 261 413 m 229 946 l 229 1139 l 475 1139 l 475 1079 l 485 1079 l 485 1139 l 603 1139 l 603 946 l 356 946 l 356 1008 l 346 1008 l 346 946 l 229 946 z "},"Æ":{"ha":1328,"x_min":85,"x_max":1243,"o":"m 85 -15 l 85 649 l 207 649 l 207 767 l 329 767 l 329 886 l 507 886 l 507 767 l 699 767 l 699 886 l 1121 886 l 1121 767 l 1243 767 l 1243 578 l 1067 578 l 1067 696 l 753 696 l 753 529 l 997 529 l 997 342 l 753 342 l 753 174 l 1067 174 l 1067 293 l 1243 293 l 1243 103 l 1121 103 l 1121 -15 l 575 -15 l 575 222 l 261 222 l 261 -15 l 85 -15 m 261 413 l 575 413 l 575 578 l 453 578 l 453 696 l 383 696 l 383 578 l 261 578 l 261 413 z "},"Ǽ":{"ha":1328,"x_min":85,"x_max":1243,"o":"m 85 -15 l 85 649 l 207 649 l 207 767 l 329 767 l 329 886 l 507 886 l 507 767 l 699 767 l 699 886 l 1121 886 l 1121 767 l 1243 767 l 1243 578 l 1067 578 l 1067 696 l 753 696 l 753 529 l 997 529 l 997 342 l 753 342 l 753 174 l 1067 174 l 1067 293 l 1243 293 l 1243 103 l 1121 103 l 1121 -15 l 575 -15 l 575 222 l 261 222 l 261 -15 l 85 -15 m 261 413 l 575 413 l 575 578 l 453 578 l 453 696 l 383 696 l 383 578 l 261 578 l 261 413 m 560 907 l 560 1036 l 621 1036 l 621 1094 l 683 1094 l 683 1156 l 797 1156 l 797 1025 l 736 1025 l 736 965 l 675 965 l 675 907 l 560 907 z "},"B":{"ha":838,"x_min":85,"x_max":753,"o":"m 207 -15 l 207 103 l 85 103 l 85 767 l 207 767 l 207 886 l 629 886 l 629 767 l 753 767 l 753 460 l 629 460 l 629 413 l 753 413 l 753 103 l 629 103 l 629 -15 l 207 -15 m 261 174 l 575 174 l 575 342 l 329 342 l 329 529 l 575 529 l 575 696 l 261 696 l 261 174 z "},"C":{"ha":838,"x_min":85,"x_max":753,"o":"m 207 -15 l 207 103 l 85 103 l 85 767 l 207 767 l 207 886 l 629 886 l 629 767 l 753 767 l 753 460 l 575 460 l 575 696 l 261 696 l 261 174 l 575 174 l 575 413 l 753 413 l 753 103 l 629 103 l 629 -15 l 207 -15 z "},"Ć":{"ha":838,"x_min":85,"x_max":753,"o":"m 207 -15 l 207 103 l 85 103 l 85 767 l 207 767 l 207 886 l 629 886 l 629 767 l 753 767 l 753 460 l 575 460 l 575 696 l 261 696 l 261 174 l 575 174 l 575 413 l 753 413 l 753 103 l 629 103 l 629 -15 l 207 -15 m 296 946 l 296 1075 l 357 1075 l 357 1133 l 419 1133 l 419 1194 l 533 1194 l 533 1064 l 472 1064 l 472 1004 l 411 1004 l 411 946 l 296 946 z "},"Č":{"ha":838,"x_min":85,"x_max":753,"o":"m 207 -15 l 207 103 l 85 103 l 85 767 l 207 767 l 207 886 l 629 886 l 629 767 l 753 767 l 753 460 l 575 460 l 575 696 l 261 696 l 261 174 l 575 174 l 575 413 l 753 413 l 753 103 l 629 103 l 629 -15 l 207 -15 m 360 946 l 360 1007 l 299 1007 l 299 1136 l 413 1136 l 413 1076 l 421 1076 l 421 1136 l 536 1136 l 536 1007 l 475 1007 l 475 946 l 360 946 z "},"Ç":{"ha":838,"x_min":85,"x_max":753,"o":"m 207 -15 l 207 103 l 85 103 l 85 767 l 207 767 l 207 886 l 629 886 l 629 767 l 753 767 l 753 460 l 575 460 l 575 696 l 261 696 l 261 174 l 575 174 l 575 413 l 753 413 l 753 103 l 629 103 l 629 -15 l 207 -15 m 271 -262 l 271 -203 l 210 -203 l 210 -74 l 325 -74 l 325 -132 l 393 -132 l 393 -114 l 393 -108 l 393 -85 l 332 -85 l 332 29 l 508 29 l 508 -74 l 569 -74 l 569 -125 l 569 -151 l 569 -203 l 508 -203 l 508 -262 l 271 -262 z "},"Ĉ":{"ha":838,"x_min":85,"x_max":753,"o":"m 207 -15 l 207 103 l 85 103 l 85 767 l 207 767 l 207 886 l 629 886 l 629 767 l 753 767 l 753 460 l 575 460 l 575 696 l 261 696 l 261 174 l 575 174 l 575 413 l 753 413 l 753 103 l 629 103 l 629 -15 l 207 -15 m 299 946 l 299 1075 l 360 1075 l 360 1136 l 475 1136 l 475 1075 l 536 1075 l 536 946 l 421 946 l 421 1006 l 413 1006 l 413 946 l 299 946 z "},"Ċ":{"ha":838,"x_min":85,"x_max":753,"o":"m 207 -15 l 207 103 l 85 103 l 85 767 l 207 767 l 207 886 l 629 886 l 629 767 l 753 767 l 753 460 l 575 460 l 575 696 l 261 696 l 261 174 l 575 174 l 575 413 l 753 413 l 753 103 l 629 103 l 629 -15 l 207 -15 m 329 947 l 329 1138 l 507 1138 l 507 947 l 329 947 z "},"D":{"ha":838,"x_min":85,"x_max":753,"o":"m 85 -15 l 85 886 l 507 886 l 507 767 l 629 767 l 629 649 l 753 649 l 753 222 l 629 222 l 629 103 l 507 103 l 507 -15 l 85 -15 m 261 174 l 453 174 l 453 293 l 575 293 l 575 578 l 453 578 l 453 696 l 261 696 l 261 174 z "},"Ď":{"ha":838,"x_min":85,"x_max":753,"o":"m 85 -15 l 85 886 l 507 886 l 507 767 l 629 767 l 629 649 l 753 649 l 753 222 l 629 222 l 629 103 l 507 103 l 507 -15 l 85 -15 m 261 174 l 453 174 l 453 293 l 575 293 l 575 578 l 453 578 l 453 696 l 261 696 l 261 174 m 289 946 l 289 1007 l 228 1007 l 228 1136 l 342 1136 l 342 1076 l 350 1076 l 350 1136 l 465 1136 l 465 1007 l 404 1007 l 404 946 l 289 946 z "},"Đ":{"ha":838,"x_min":32,"x_max":751,"o":"m 83 -15 l 83 317 l 32 317 l 32 507 l 83 507 l 83 886 l 506 886 l 506 767 l 628 767 l 628 649 l 751 649 l 751 222 l 628 222 l 628 103 l 506 103 l 506 -15 l 83 -15 m 260 174 l 451 174 l 451 293 l 574 293 l 574 578 l 451 578 l 451 696 l 260 696 l 260 507 l 400 507 l 400 317 l 260 317 l 260 174 z "},"Ð":{"ha":838,"x_min":32,"x_max":751,"o":"m 83 -15 l 83 317 l 32 317 l 32 507 l 83 507 l 83 886 l 506 886 l 506 767 l 628 767 l 628 649 l 751 649 l 751 222 l 628 222 l 628 103 l 506 103 l 506 -15 l 83 -15 m 260 174 l 451 174 l 451 293 l 574 293 l 574 578 l 451 578 l 451 696 l 260 696 l 260 507 l 400 507 l 400 317 l 260 317 l 260 174 z "},"E":{"ha":838,"x_min":85,"x_max":753,"o":"m 207 -15 l 207 103 l 85 103 l 85 767 l 207 767 l 207 886 l 629 886 l 629 767 l 753 767 l 753 578 l 575 578 l 575 696 l 261 696 l 261 529 l 507 529 l 507 342 l 261 342 l 261 174 l 575 174 l 575 293 l 753 293 l 753 103 l 629 103 l 629 -15 l 207 -15 z "},"É":{"ha":838,"x_min":85,"x_max":753,"o":"m 207 -15 l 207 103 l 85 103 l 85 767 l 207 767 l 207 886 l 629 886 l 629 767 l 753 767 l 753 578 l 575 578 l 575 696 l 261 696 l 261 529 l 507 529 l 507 342 l 261 342 l 261 174 l 575 174 l 575 293 l 753 293 l 753 103 l 629 103 l 629 -15 l 207 -15 m 293 946 l 293 1075 l 354 1075 l 354 1133 l 417 1133 l 417 1194 l 531 1194 l 531 1064 l 469 1064 l 469 1004 l 408 1004 l 408 946 l 293 946 z "},"Ĕ":{"ha":838,"x_min":85,"x_max":753,"o":"m 207 -15 l 207 103 l 85 103 l 85 767 l 207 767 l 207 886 l 629 886 l 629 767 l 753 767 l 753 578 l 575 578 l 575 696 l 261 696 l 261 529 l 507 529 l 507 342 l 261 342 l 261 174 l 575 174 l 575 293 l 753 293 l 753 103 l 629 103 l 629 -15 l 207 -15 m 229 946 l 229 1136 l 343 1136 l 343 1076 l 485 1076 l 485 1136 l 597 1136 l 597 946 l 229 946 z "},"Ě":{"ha":838,"x_min":85,"x_max":753,"o":"m 207 -15 l 207 103 l 85 103 l 85 767 l 207 767 l 207 886 l 629 886 l 629 767 l 753 767 l 753 578 l 575 578 l 575 696 l 261 696 l 261 529 l 507 529 l 507 342 l 261 342 l 261 174 l 575 174 l 575 293 l 753 293 l 753 103 l 629 103 l 629 -15 l 207 -15 m 357 946 l 357 1007 l 296 1007 l 296 1136 l 410 1136 l 410 1076 l 418 1076 l 418 1136 l 533 1136 l 533 1007 l 472 1007 l 472 946 l 357 946 z "},"Ê":{"ha":838,"x_min":85,"x_max":753,"o":"m 207 -15 l 207 103 l 85 103 l 85 767 l 207 767 l 207 886 l 629 886 l 629 767 l 753 767 l 753 578 l 575 578 l 575 696 l 261 696 l 261 529 l 507 529 l 507 342 l 261 342 l 261 174 l 575 174 l 575 293 l 753 293 l 753 103 l 629 103 l 629 -15 l 207 -15 m 296 946 l 296 1075 l 357 1075 l 357 1136 l 472 1136 l 472 1075 l 533 1075 l 533 946 l 418 946 l 418 1006 l 410 1006 l 410 946 l 296 946 z "},"Ë":{"ha":838,"x_min":85,"x_max":753,"o":"m 207 -15 l 207 103 l 85 103 l 85 767 l 207 767 l 207 886 l 629 886 l 629 767 l 753 767 l 753 578 l 575 578 l 575 696 l 261 696 l 261 529 l 507 529 l 507 342 l 261 342 l 261 174 l 575 174 l 575 293 l 753 293 l 753 103 l 629 103 l 629 -15 l 207 -15 m 188 938 l 188 1128 l 365 1128 l 365 938 l 188 938 m 475 938 l 475 1128 l 651 1128 l 651 938 l 475 938 z "},"Ė":{"ha":838,"x_min":85,"x_max":753,"o":"m 207 -15 l 207 103 l 85 103 l 85 767 l 207 767 l 207 886 l 629 886 l 629 767 l 753 767 l 753 578 l 575 578 l 575 696 l 261 696 l 261 529 l 507 529 l 507 342 l 261 342 l 261 174 l 575 174 l 575 293 l 753 293 l 753 103 l 629 103 l 629 -15 l 207 -15 m 326 947 l 326 1138 l 504 1138 l 504 947 l 326 947 z "},"È":{"ha":838,"x_min":85,"x_max":753,"o":"m 207 -15 l 207 103 l 85 103 l 85 767 l 207 767 l 207 886 l 629 886 l 629 767 l 753 767 l 753 578 l 575 578 l 575 696 l 261 696 l 261 529 l 507 529 l 507 342 l 261 342 l 261 174 l 575 174 l 575 293 l 753 293 l 753 103 l 629 103 l 629 -15 l 207 -15 m 357 946 l 357 1004 l 296 1004 l 296 1064 l 235 1064 l 235 1194 l 349 1194 l 349 1133 l 411 1133 l 411 1075 l 472 1075 l 472 946 l 357 946 z "},"Ē":{"ha":838,"x_min":85,"x_max":753,"o":"m 207 -15 l 207 103 l 85 103 l 85 767 l 207 767 l 207 886 l 629 886 l 629 767 l 753 767 l 753 578 l 575 578 l 575 696 l 261 696 l 261 529 l 507 529 l 507 342 l 261 342 l 261 174 l 575 174 l 575 293 l 753 293 l 753 103 l 629 103 l 629 -15 l 207 -15 m 200 946 l 200 1136 l 622 1136 l 622 946 l 200 946 z "},"Ę":{"ha":838,"x_min":85,"x_max":753,"o":"m 207 -15 l 207 103 l 85 103 l 85 767 l 207 767 l 207 886 l 629 886 l 629 767 l 753 767 l 753 578 l 575 578 l 575 696 l 261 696 l 261 529 l 507 529 l 507 342 l 261 342 l 261 174 l 575 174 l 575 293 l 753 293 l 753 103 l 629 103 l 629 -15 l 207 -15 m 310 -279 l 310 -219 l 249 -219 l 249 -90 l 310 -90 l 310 -60 l 310 -61 l 310 38 l 488 38 l 488 -101 l 425 -101 l 425 -114 l 425 -125 l 425 -149 l 494 -149 l 494 -90 l 608 -90 l 608 -219 l 547 -219 l 547 -279 l 310 -279 z "},"F":{"ha":838,"x_min":85,"x_max":753,"o":"m 85 -15 l 85 886 l 629 886 l 629 767 l 753 767 l 753 578 l 575 578 l 575 696 l 261 696 l 261 529 l 507 529 l 507 342 l 261 342 l 261 -15 l 85 -15 z "},"G":{"ha":838,"x_min":85,"x_max":753,"o":"m 207 -15 l 207 103 l 85 103 l 85 767 l 207 767 l 207 886 l 629 886 l 629 767 l 753 767 l 753 460 l 575 460 l 575 696 l 261 696 l 261 174 l 575 174 l 575 222 l 453 222 l 453 342 l 329 342 l 329 529 l 507 529 l 507 413 l 753 413 l 753 103 l 629 103 l 629 -15 l 207 -15 z "},"Ğ":{"ha":838,"x_min":85,"x_max":753,"o":"m 207 -15 l 207 103 l 85 103 l 85 767 l 207 767 l 207 886 l 629 886 l 629 767 l 753 767 l 753 460 l 575 460 l 575 696 l 261 696 l 261 174 l 575 174 l 575 222 l 453 222 l 453 342 l 329 342 l 329 529 l 507 529 l 507 413 l 753 413 l 753 103 l 629 103 l 629 -15 l 207 -15 m 235 946 l 235 1136 l 349 1136 l 349 1076 l 490 1076 l 490 1136 l 603 1136 l 603 946 l 235 946 z "},"Ĝ":{"ha":838,"x_min":85,"x_max":753,"o":"m 207 -15 l 207 103 l 85 103 l 85 767 l 207 767 l 207 886 l 629 886 l 629 767 l 753 767 l 753 460 l 575 460 l 575 696 l 261 696 l 261 174 l 575 174 l 575 222 l 453 222 l 453 342 l 329 342 l 329 529 l 507 529 l 507 413 l 753 413 l 753 103 l 629 103 l 629 -15 l 207 -15 m 301 946 l 301 1075 l 363 1075 l 363 1136 l 478 1136 l 478 1075 l 539 1075 l 539 946 l 424 946 l 424 1006 l 415 1006 l 415 946 l 301 946 z "},"Ģ":{"ha":838,"x_min":85,"x_max":753,"o":"m 207 -15 l 207 103 l 85 103 l 85 767 l 207 767 l 207 886 l 629 886 l 629 767 l 753 767 l 753 460 l 575 460 l 575 696 l 261 696 l 261 174 l 575 174 l 575 222 l 453 222 l 453 342 l 329 342 l 329 529 l 507 529 l 507 413 l 753 413 l 753 103 l 629 103 l 629 -15 l 207 -15 m 388 -368 l 388 -279 l 388 -278 l 388 -250 l 326 -250 l 326 -60 l 503 -60 l 503 -179 l 564 -179 l 564 -307 l 503 -307 l 503 -368 l 388 -368 z "},"Ġ":{"ha":838,"x_min":85,"x_max":753,"o":"m 207 -15 l 207 103 l 85 103 l 85 767 l 207 767 l 207 886 l 629 886 l 629 767 l 753 767 l 753 460 l 575 460 l 575 696 l 261 696 l 261 174 l 575 174 l 575 222 l 453 222 l 453 342 l 329 342 l 329 529 l 507 529 l 507 413 l 753 413 l 753 103 l 629 103 l 629 -15 l 207 -15 m 332 947 l 332 1138 l 510 1138 l 510 947 l 332 947 z "},"H":{"ha":838,"x_min":85,"x_max":753,"o":"m 85 -15 l 85 886 l 261 886 l 261 529 l 329 529 l 329 649 l 507 649 l 507 529 l 575 529 l 575 886 l 753 886 l 753 -15 l 575 -15 l 575 342 l 261 342 l 261 -15 l 85 -15 z "},"Ħ":{"ha":838,"x_min":85,"x_max":753,"o":"m 85 -15 l 85 886 l 261 886 l 261 838 l 575 838 l 575 886 l 753 886 l 753 -15 l 575 -15 l 575 342 l 261 342 l 261 -15 l 85 -15 m 261 529 l 329 529 l 329 649 l 507 649 l 507 529 l 575 529 l 575 649 l 261 649 l 261 529 z "},"Ĥ":{"ha":838,"x_min":85,"x_max":753,"o":"m 85 -15 l 85 886 l 261 886 l 261 529 l 329 529 l 329 649 l 507 649 l 507 529 l 575 529 l 575 886 l 753 886 l 753 -15 l 575 -15 l 575 342 l 261 342 l 261 -15 l 85 -15 m 301 946 l 301 1075 l 363 1075 l 363 1136 l 478 1136 l 478 1075 l 539 1075 l 539 946 l 424 946 l 424 1006 l 415 1006 l 415 946 l 301 946 z "},"I":{"ha":592,"x_min":85,"x_max":507,"o":"m 85 -15 l 85 174 l 207 174 l 207 696 l 85 696 l 85 886 l 507 886 l 507 696 l 383 696 l 383 174 l 507 174 l 507 -15 l 85 -15 z "},"Ĳ":{"ha":1429,"x_min":85,"x_max":1344,"o":"m 85 -15 l 85 174 l 207 174 l 207 696 l 85 696 l 85 886 l 507 886 l 507 696 l 383 696 l 383 174 l 507 174 l 507 -15 l 85 -15 m 799 -15 l 799 103 l 676 103 l 676 413 l 853 413 l 853 174 l 1167 174 l 1167 696 l 799 696 l 799 886 l 1221 886 l 1221 767 l 1344 767 l 1344 103 l 1221 103 l 1221 -15 l 799 -15 z "},"Í":{"ha":592,"x_min":85,"x_max":507,"o":"m 85 -15 l 85 174 l 207 174 l 207 696 l 85 696 l 85 886 l 507 886 l 507 696 l 383 696 l 383 174 l 507 174 l 507 -15 l 85 -15 m 175 946 l 175 1075 l 236 1075 l 236 1133 l 299 1133 l 299 1194 l 413 1194 l 413 1064 l 351 1064 l 351 1004 l 290 1004 l 290 946 l 175 946 z "},"Ĭ":{"ha":592,"x_min":85,"x_max":507,"o":"m 85 -15 l 85 174 l 207 174 l 207 696 l 85 696 l 85 886 l 507 886 l 507 696 l 383 696 l 383 174 l 507 174 l 507 -15 l 85 -15 m 111 946 l 111 1136 l 225 1136 l 225 1076 l 367 1076 l 367 1136 l 479 1136 l 479 946 l 111 946 z "},"Î":{"ha":592,"x_min":85,"x_max":507,"o":"m 85 -15 l 85 174 l 207 174 l 207 696 l 85 696 l 85 886 l 507 886 l 507 696 l 383 696 l 383 174 l 507 174 l 507 -15 l 85 -15 m 178 946 l 178 1075 l 239 1075 l 239 1136 l 354 1136 l 354 1075 l 415 1075 l 415 946 l 300 946 l 300 1006 l 292 1006 l 292 946 l 178 946 z "},"Ï":{"ha":592,"x_min":69,"x_max":533,"o":"m 85 -15 l 85 174 l 207 174 l 207 696 l 85 696 l 85 886 l 507 886 l 507 696 l 383 696 l 383 174 l 507 174 l 507 -15 l 85 -15 m 69 938 l 69 1128 l 247 1128 l 247 938 l 69 938 m 357 938 l 357 1128 l 533 1128 l 533 938 l 357 938 z "},"İ":{"ha":592,"x_min":85,"x_max":507,"o":"m 85 -15 l 85 174 l 207 174 l 207 696 l 85 696 l 85 886 l 507 886 l 507 696 l 383 696 l 383 174 l 507 174 l 507 -15 l 85 -15 m 208 947 l 208 1138 l 386 1138 l 386 947 l 208 947 z "},"Ì":{"ha":592,"x_min":85,"x_max":507,"o":"m 85 -15 l 85 174 l 207 174 l 207 696 l 85 696 l 85 886 l 507 886 l 507 696 l 383 696 l 383 174 l 507 174 l 507 -15 l 85 -15 m 239 946 l 239 1004 l 178 1004 l 178 1064 l 117 1064 l 117 1194 l 231 1194 l 231 1133 l 293 1133 l 293 1075 l 354 1075 l 354 946 l 239 946 z "},"Ī":{"ha":592,"x_min":82,"x_max":507,"o":"m 85 -15 l 85 174 l 207 174 l 207 696 l 85 696 l 85 886 l 507 886 l 507 696 l 383 696 l 383 174 l 507 174 l 507 -15 l 85 -15 m 82 946 l 82 1136 l 504 1136 l 504 946 l 82 946 z "},"Į":{"ha":592,"x_min":85,"x_max":507,"o":"m 85 -15 l 85 174 l 207 174 l 207 696 l 85 696 l 85 886 l 507 886 l 507 696 l 383 696 l 383 174 l 507 174 l 507 -15 l 85 -15 m 200 -279 l 200 -219 l 139 -219 l 139 -90 l 200 -90 l 200 -60 l 200 -61 l 200 38 l 378 38 l 378 -101 l 315 -101 l 315 -114 l 315 -125 l 315 -149 l 385 -149 l 385 -90 l 499 -90 l 499 -219 l 438 -219 l 438 -279 l 200 -279 z "},"Ĩ":{"ha":592,"x_min":85,"x_max":507,"o":"m 85 -15 l 85 174 l 207 174 l 207 696 l 85 696 l 85 886 l 507 886 l 507 696 l 383 696 l 383 174 l 507 174 l 507 -15 l 85 -15 m 106 946 l 106 1139 l 351 1139 l 351 1079 l 361 1079 l 361 1139 l 479 1139 l 479 946 l 232 946 l 232 1008 l 222 1008 l 222 946 l 106 946 z "},"J":{"ha":838,"x_min":85,"x_max":753,"o":"m 207 -15 l 207 103 l 85 103 l 85 413 l 261 413 l 261 174 l 575 174 l 575 696 l 207 696 l 207 886 l 629 886 l 629 767 l 753 767 l 753 103 l 629 103 l 629 -15 l 207 -15 z "},"Ĵ":{"ha":838,"x_min":85,"x_max":753,"o":"m 207 -15 l 207 103 l 85 103 l 85 413 l 261 413 l 261 174 l 575 174 l 575 696 l 207 696 l 207 886 l 629 886 l 629 767 l 753 767 l 753 103 l 629 103 l 629 -15 l 207 -15 m 301 946 l 301 1075 l 363 1075 l 363 1136 l 478 1136 l 478 1075 l 539 1075 l 539 946 l 424 946 l 424 1006 l 415 1006 l 415 946 l 301 946 z "},"K":{"ha":838,"x_min":85,"x_max":753,"o":"m 85 -15 l 85 767 l 207 767 l 207 886 l 383 886 l 383 696 l 261 696 l 261 529 l 329 529 l 329 649 l 453 649 l 453 767 l 575 767 l 575 886 l 753 886 l 753 696 l 629 696 l 629 578 l 507 578 l 507 460 l 383 460 l 383 413 l 507 413 l 507 293 l 629 293 l 629 174 l 753 174 l 753 -15 l 575 -15 l 575 103 l 453 103 l 453 222 l 329 222 l 329 342 l 261 342 l 261 -15 l 85 -15 z "},"Ķ":{"ha":838,"x_min":85,"x_max":753,"o":"m 85 -15 l 85 767 l 207 767 l 207 886 l 383 886 l 383 696 l 261 696 l 261 529 l 329 529 l 329 649 l 453 649 l 453 767 l 575 767 l 575 886 l 753 886 l 753 696 l 629 696 l 629 578 l 507 578 l 507 460 l 383 460 l 383 413 l 507 413 l 507 293 l 629 293 l 629 174 l 753 174 l 753 -15 l 575 -15 l 575 103 l 453 103 l 453 222 l 329 222 l 329 342 l 261 342 l 261 -15 l 85 -15 m 388 -368 l 388 -279 l 388 -278 l 388 -250 l 326 -250 l 326 -60 l 503 -60 l 503 -179 l 564 -179 l 564 -307 l 503 -307 l 503 -368 l 388 -368 z "},"L":{"ha":838,"x_min":85,"x_max":753,"o":"m 207 -15 l 207 103 l 85 103 l 85 886 l 261 886 l 261 174 l 575 174 l 575 293 l 753 293 l 753 103 l 629 103 l 629 -15 l 207 -15 z "},"Ĺ":{"ha":838,"x_min":85,"x_max":753,"o":"m 207 -15 l 207 103 l 85 103 l 85 886 l 261 886 l 261 174 l 575 174 l 575 293 l 753 293 l 753 103 l 629 103 l 629 -15 l 207 -15 m 299 1032 l 299 1161 l 360 1161 l 360 1219 l 422 1219 l 422 1281 l 536 1281 l 536 1150 l 475 1150 l 475 1090 l 414 1090 l 414 1032 l 299 1032 z "},"Ľ":{"ha":838,"x_min":85,"x_max":753,"o":"m 207 -15 l 207 103 l 85 103 l 85 886 l 261 886 l 261 174 l 575 174 l 575 293 l 753 293 l 753 103 l 629 103 l 629 -15 l 207 -15 m 571 578 l 571 667 l 571 656 l 571 696 l 510 696 l 510 886 l 686 886 l 686 767 l 747 767 l 747 638 l 686 638 l 686 578 l 571 578 z "},"Ļ":{"ha":838,"x_min":85,"x_max":753,"o":"m 207 -15 l 207 103 l 85 103 l 85 886 l 261 886 l 261 174 l 575 174 l 575 293 l 753 293 l 753 103 l 629 103 l 629 -15 l 207 -15 m 388 -368 l 388 -279 l 388 -278 l 388 -250 l 326 -250 l 326 -60 l 503 -60 l 503 -179 l 564 -179 l 564 -307 l 503 -307 l 503 -368 l 388 -368 z "},"Ŀ":{"ha":838,"x_min":85,"x_max":753,"o":"m 207 -15 l 207 103 l 85 103 l 85 886 l 261 886 l 261 174 l 575 174 l 575 293 l 753 293 l 753 103 l 629 103 l 629 -15 l 207 -15 m 331 535 l 331 725 l 507 725 l 507 535 l 331 535 z "},"Ł":{"ha":851,"x_min":-33,"x_max":767,"o":"m 221 -15 l 221 103 l 99 103 l 99 218 l 79 193 l -33 278 l 99 444 l 99 886 l 275 886 l 275 674 l 338 753 l 449 672 l 275 447 l 275 174 l 589 174 l 589 293 l 767 293 l 767 103 l 643 103 l 643 -15 l 221 -15 z "},"M":{"ha":1082,"x_min":85,"x_max":997,"o":"m 85 -15 l 85 767 l 207 767 l 207 886 l 383 886 l 383 767 l 507 767 l 507 529 l 575 529 l 575 767 l 699 767 l 699 886 l 876 886 l 876 767 l 997 767 l 997 -15 l 822 -15 l 822 696 l 753 696 l 753 460 l 629 460 l 629 103 l 453 103 l 453 460 l 329 460 l 329 696 l 261 696 l 261 -15 l 85 -15 z "},"N":{"ha":838,"x_min":85,"x_max":753,"o":"m 85 -15 l 85 886 l 261 886 l 261 767 l 383 767 l 383 649 l 507 649 l 507 293 l 575 293 l 575 886 l 753 886 l 753 -15 l 575 -15 l 575 103 l 453 103 l 453 222 l 329 222 l 329 578 l 261 578 l 261 -15 l 85 -15 z "},"Ń":{"ha":838,"x_min":85,"x_max":753,"o":"m 85 -15 l 85 886 l 261 886 l 261 767 l 383 767 l 383 649 l 507 649 l 507 293 l 575 293 l 575 886 l 753 886 l 753 -15 l 575 -15 l 575 103 l 453 103 l 453 222 l 329 222 l 329 578 l 261 578 l 261 -15 l 85 -15 m 299 946 l 299 1075 l 360 1075 l 360 1133 l 422 1133 l 422 1194 l 536 1194 l 536 1064 l 475 1064 l 475 1004 l 414 1004 l 414 946 l 299 946 z "},"Ň":{"ha":838,"x_min":85,"x_max":753,"o":"m 85 -15 l 85 886 l 261 886 l 261 767 l 383 767 l 383 649 l 507 649 l 507 293 l 575 293 l 575 886 l 753 886 l 753 -15 l 575 -15 l 575 103 l 453 103 l 453 222 l 329 222 l 329 578 l 261 578 l 261 -15 l 85 -15 m 363 946 l 363 1007 l 301 1007 l 301 1136 l 415 1136 l 415 1076 l 424 1076 l 424 1136 l 539 1136 l 539 1007 l 478 1007 l 478 946 l 363 946 z "},"Ņ":{"ha":838,"x_min":85,"x_max":753,"o":"m 85 -15 l 85 886 l 261 886 l 261 767 l 383 767 l 383 649 l 507 649 l 507 293 l 575 293 l 575 886 l 753 886 l 753 -15 l 575 -15 l 575 103 l 453 103 l 453 222 l 329 222 l 329 578 l 261 578 l 261 -15 l 85 -15 m 388 -368 l 388 -279 l 388 -278 l 388 -250 l 326 -250 l 326 -60 l 503 -60 l 503 -179 l 564 -179 l 564 -307 l 503 -307 l 503 -368 l 388 -368 z "},"Ñ":{"ha":838,"x_min":85,"x_max":753,"o":"m 85 -15 l 85 886 l 261 886 l 261 767 l 383 767 l 383 649 l 507 649 l 507 293 l 575 293 l 575 886 l 753 886 l 753 -15 l 575 -15 l 575 103 l 453 103 l 453 222 l 329 222 l 329 578 l 261 578 l 261 -15 l 85 -15 m 229 946 l 229 1139 l 475 1139 l 475 1079 l 485 1079 l 485 1139 l 603 1139 l 603 946 l 356 946 l 356 1008 l 346 1008 l 346 946 l 229 946 z "},"Ŋ":{"ha":838,"x_min":85,"x_max":753,"o":"m 329 -325 l 329 -206 l 206 -206 l 206 -28 l 383 -28 l 383 -135 l 575 -135 l 575 103 l 453 103 l 453 222 l 329 222 l 329 578 l 261 578 l 261 -15 l 85 -15 l 85 886 l 261 886 l 261 767 l 383 767 l 383 649 l 507 649 l 507 293 l 575 293 l 575 886 l 753 886 l 753 -206 l 629 -206 l 629 -325 l 329 -325 z "},"O":{"ha":838,"x_min":85,"x_max":753,"o":"m 207 -15 l 207 103 l 85 103 l 85 767 l 207 767 l 207 886 l 629 886 l 629 767 l 753 767 l 753 103 l 629 103 l 629 -15 l 207 -15 m 261 174 l 575 174 l 575 696 l 261 696 l 261 174 z "},"Ó":{"ha":838,"x_min":85,"x_max":753,"o":"m 207 -15 l 207 103 l 85 103 l 85 767 l 207 767 l 207 886 l 629 886 l 629 767 l 753 767 l 753 103 l 629 103 l 629 -15 l 207 -15 m 261 174 l 575 174 l 575 696 l 261 696 l 261 174 m 299 946 l 299 1075 l 360 1075 l 360 1133 l 422 1133 l 422 1194 l 536 1194 l 536 1064 l 475 1064 l 475 1004 l 414 1004 l 414 946 l 299 946 z "},"Ŏ":{"ha":838,"x_min":85,"x_max":753,"o":"m 207 -15 l 207 103 l 85 103 l 85 767 l 207 767 l 207 886 l 629 886 l 629 767 l 753 767 l 753 103 l 629 103 l 629 -15 l 207 -15 m 261 174 l 575 174 l 575 696 l 261 696 l 261 174 m 235 946 l 235 1136 l 349 1136 l 349 1076 l 490 1076 l 490 1136 l 603 1136 l 603 946 l 235 946 z "},"Ô":{"ha":838,"x_min":85,"x_max":753,"o":"m 207 -15 l 207 103 l 85 103 l 85 767 l 207 767 l 207 886 l 629 886 l 629 767 l 753 767 l 753 103 l 629 103 l 629 -15 l 207 -15 m 261 174 l 575 174 l 575 696 l 261 696 l 261 174 m 301 946 l 301 1075 l 363 1075 l 363 1136 l 478 1136 l 478 1075 l 539 1075 l 539 946 l 424 946 l 424 1006 l 415 1006 l 415 946 l 301 946 z "},"Ö":{"ha":838,"x_min":85,"x_max":753,"o":"m 207 -15 l 207 103 l 85 103 l 85 767 l 207 767 l 207 886 l 629 886 l 629 767 l 753 767 l 753 103 l 629 103 l 629 -15 l 207 -15 m 261 174 l 575 174 l 575 696 l 261 696 l 261 174 m 193 938 l 193 1128 l 371 1128 l 371 938 l 193 938 m 481 938 l 481 1128 l 657 1128 l 657 938 l 481 938 z "},"Ò":{"ha":838,"x_min":85,"x_max":753,"o":"m 207 -15 l 207 103 l 85 103 l 85 767 l 207 767 l 207 886 l 629 886 l 629 767 l 753 767 l 753 103 l 629 103 l 629 -15 l 207 -15 m 261 174 l 575 174 l 575 696 l 261 696 l 261 174 m 363 946 l 363 1004 l 301 1004 l 301 1064 l 240 1064 l 240 1194 l 354 1194 l 354 1133 l 417 1133 l 417 1075 l 478 1075 l 478 946 l 363 946 z "},"Ő":{"ha":838,"x_min":85,"x_max":753,"o":"m 207 -15 l 207 103 l 85 103 l 85 767 l 207 767 l 207 886 l 629 886 l 629 767 l 753 767 l 753 103 l 629 103 l 629 -15 l 207 -15 m 261 174 l 575 174 l 575 696 l 261 696 l 261 174 m 508 946 l 508 1004 l 447 1004 l 447 1064 l 386 1064 l 386 1194 l 500 1194 l 500 1133 l 563 1133 l 563 1075 l 624 1075 l 624 946 l 508 946 m 250 946 l 250 1004 l 189 1004 l 189 1064 l 128 1064 l 128 1194 l 242 1194 l 242 1133 l 304 1133 l 304 1075 l 365 1075 l 365 946 l 250 946 z "},"Ō":{"ha":838,"x_min":85,"x_max":753,"o":"m 207 -15 l 207 103 l 85 103 l 85 767 l 207 767 l 207 886 l 629 886 l 629 767 l 753 767 l 753 103 l 629 103 l 629 -15 l 207 -15 m 261 174 l 575 174 l 575 696 l 261 696 l 261 174 m 206 946 l 206 1136 l 628 1136 l 628 946 l 206 946 z "},"Ø":{"ha":838,"x_min":42,"x_max":774,"o":"m 42 -72 l 597 931 l 774 931 l 218 -72 l 42 -72 m 207 -15 l 207 103 l 85 103 l 85 767 l 207 767 l 207 886 l 629 886 l 629 767 l 753 767 l 753 103 l 629 103 l 629 -15 l 207 -15 m 261 174 l 575 174 l 575 696 l 261 696 l 261 174 z "},"Ǿ":{"ha":838,"x_min":42,"x_max":774,"o":"m 42 -72 l 597 931 l 774 931 l 218 -72 l 42 -72 m 207 -15 l 207 103 l 85 103 l 85 767 l 207 767 l 207 886 l 629 886 l 629 767 l 753 767 l 753 103 l 629 103 l 629 -15 l 207 -15 m 261 174 l 575 174 l 575 696 l 261 696 l 261 174 m 299 1032 l 299 1161 l 360 1161 l 360 1219 l 422 1219 l 422 1281 l 536 1281 l 536 1150 l 475 1150 l 475 1090 l 414 1090 l 414 1032 l 299 1032 z "},"Õ":{"ha":838,"x_min":85,"x_max":753,"o":"m 207 -15 l 207 103 l 85 103 l 85 767 l 207 767 l 207 886 l 629 886 l 629 767 l 753 767 l 753 103 l 629 103 l 629 -15 l 207 -15 m 261 174 l 575 174 l 575 696 l 261 696 l 261 174 m 229 946 l 229 1139 l 475 1139 l 475 1079 l 485 1079 l 485 1139 l 603 1139 l 603 946 l 356 946 l 356 1008 l 346 1008 l 346 946 l 229 946 z "},"Œ":{"ha":1328,"x_min":85,"x_max":1243,"o":"m 207 -15 l 207 103 l 85 103 l 85 767 l 207 767 l 207 886 l 629 886 l 629 767 l 699 767 l 699 886 l 1121 886 l 1121 767 l 1243 767 l 1243 578 l 1067 578 l 1067 696 l 753 696 l 753 529 l 997 529 l 997 342 l 753 342 l 753 174 l 1067 174 l 1067 293 l 1243 293 l 1243 103 l 1121 103 l 1121 -15 l 699 -15 l 699 103 l 629 103 l 629 -15 l 207 -15 m 261 174 l 575 174 l 575 696 l 261 696 l 261 174 z "},"P":{"ha":838,"x_min":85,"x_max":753,"o":"m 85 -15 l 85 767 l 207 767 l 207 886 l 629 886 l 629 767 l 753 767 l 753 342 l 629 342 l 629 222 l 261 222 l 261 -15 l 85 -15 m 261 413 l 575 413 l 575 696 l 261 696 l 261 413 z "},"Þ":{"ha":838,"x_min":85,"x_max":753,"o":"m 85 -15 l 85 886 l 261 886 l 261 753 l 629 753 l 629 633 l 753 633 l 753 207 l 629 207 l 629 89 l 261 89 l 261 -15 l 85 -15 m 261 278 l 575 278 l 575 563 l 261 563 l 261 278 z "},"Q":{"ha":838,"x_min":85,"x_max":753,"o":"m 453 -251 l 453 -135 l 329 -135 l 329 -15 l 207 -15 l 207 103 l 85 103 l 85 767 l 207 767 l 207 886 l 629 886 l 629 767 l 753 767 l 753 103 l 629 103 l 629 -15 l 507 -15 l 507 -64 l 629 -64 l 629 -251 l 453 -251 m 261 174 l 575 174 l 575 696 l 261 696 l 261 174 z "},"R":{"ha":838,"x_min":85,"x_max":753,"o":"m 85 -15 l 85 767 l 207 767 l 207 886 l 629 886 l 629 767 l 753 767 l 753 342 l 629 342 l 629 222 l 569 222 l 569 174 l 690 174 l 690 -15 l 515 -15 l 515 103 l 390 103 l 390 222 l 261 222 l 261 -15 l 85 -15 m 261 413 l 575 413 l 575 696 l 261 696 l 261 413 z "},"Ŕ":{"ha":838,"x_min":85,"x_max":753,"o":"m 85 -15 l 85 767 l 207 767 l 207 886 l 629 886 l 629 767 l 753 767 l 753 342 l 629 342 l 629 222 l 569 222 l 569 174 l 690 174 l 690 -15 l 515 -15 l 515 103 l 390 103 l 390 222 l 261 222 l 261 -15 l 85 -15 m 261 413 l 575 413 l 575 696 l 261 696 l 261 413 m 299 946 l 299 1075 l 360 1075 l 360 1133 l 422 1133 l 422 1194 l 536 1194 l 536 1064 l 475 1064 l 475 1004 l 414 1004 l 414 946 l 299 946 z "},"Ř":{"ha":838,"x_min":85,"x_max":753,"o":"m 85 -15 l 85 767 l 207 767 l 207 886 l 629 886 l 629 767 l 753 767 l 753 342 l 629 342 l 629 222 l 569 222 l 569 174 l 690 174 l 690 -15 l 515 -15 l 515 103 l 390 103 l 390 222 l 261 222 l 261 -15 l 85 -15 m 261 413 l 575 413 l 575 696 l 261 696 l 261 413 m 363 946 l 363 1007 l 301 1007 l 301 1136 l 415 1136 l 415 1076 l 424 1076 l 424 1136 l 539 1136 l 539 1007 l 478 1007 l 478 946 l 363 946 z "},"Ŗ":{"ha":838,"x_min":85,"x_max":753,"o":"m 85 -15 l 85 767 l 207 767 l 207 886 l 629 886 l 629 767 l 753 767 l 753 342 l 629 342 l 629 222 l 569 222 l 569 174 l 690 174 l 690 -15 l 515 -15 l 515 103 l 390 103 l 390 222 l 261 222 l 261 -15 l 85 -15 m 261 413 l 575 413 l 575 696 l 261 696 l 261 413 m 388 -368 l 388 -279 l 388 -278 l 388 -250 l 326 -250 l 326 -60 l 503 -60 l 503 -179 l 564 -179 l 564 -307 l 503 -307 l 503 -368 l 388 -368 z "},"S":{"ha":838,"x_min":85,"x_max":753,"o":"m 207 -15 l 207 103 l 85 103 l 85 293 l 261 293 l 261 174 l 575 174 l 575 342 l 207 342 l 207 460 l 85 460 l 85 767 l 207 767 l 207 886 l 629 886 l 629 767 l 753 767 l 753 578 l 575 578 l 575 696 l 261 696 l 261 529 l 629 529 l 629 413 l 753 413 l 753 103 l 629 103 l 629 -15 l 207 -15 z "},"Ś":{"ha":838,"x_min":85,"x_max":753,"o":"m 207 -15 l 207 103 l 85 103 l 85 293 l 261 293 l 261 174 l 575 174 l 575 342 l 207 342 l 207 460 l 85 460 l 85 767 l 207 767 l 207 886 l 629 886 l 629 767 l 753 767 l 753 578 l 575 578 l 575 696 l 261 696 l 261 529 l 629 529 l 629 413 l 753 413 l 753 103 l 629 103 l 629 -15 l 207 -15 m 299 946 l 299 1075 l 360 1075 l 360 1133 l 422 1133 l 422 1194 l 536 1194 l 536 1064 l 475 1064 l 475 1004 l 414 1004 l 414 946 l 299 946 z "},"Š":{"ha":838,"x_min":85,"x_max":753,"o":"m 207 -15 l 207 103 l 85 103 l 85 293 l 261 293 l 261 174 l 575 174 l 575 342 l 207 342 l 207 460 l 85 460 l 85 767 l 207 767 l 207 886 l 629 886 l 629 767 l 753 767 l 753 578 l 575 578 l 575 696 l 261 696 l 261 529 l 629 529 l 629 413 l 753 413 l 753 103 l 629 103 l 629 -15 l 207 -15 m 363 946 l 363 1007 l 301 1007 l 301 1136 l 415 1136 l 415 1076 l 424 1076 l 424 1136 l 539 1136 l 539 1007 l 478 1007 l 478 946 l 363 946 z "},"Ş":{"ha":838,"x_min":85,"x_max":753,"o":"m 207 -15 l 207 103 l 85 103 l 85 293 l 261 293 l 261 174 l 575 174 l 575 342 l 207 342 l 207 460 l 85 460 l 85 767 l 207 767 l 207 886 l 629 886 l 629 767 l 753 767 l 753 578 l 575 578 l 575 696 l 261 696 l 261 529 l 629 529 l 629 413 l 753 413 l 753 103 l 629 103 l 629 -15 l 207 -15 m 271 -262 l 271 -203 l 210 -203 l 210 -74 l 325 -74 l 325 -132 l 393 -132 l 393 -114 l 393 -108 l 393 -85 l 332 -85 l 332 29 l 508 29 l 508 -74 l 569 -74 l 569 -125 l 569 -151 l 569 -203 l 508 -203 l 508 -262 l 271 -262 z "},"Ŝ":{"ha":838,"x_min":85,"x_max":753,"o":"m 207 -15 l 207 103 l 85 103 l 85 293 l 261 293 l 261 174 l 575 174 l 575 342 l 207 342 l 207 460 l 85 460 l 85 767 l 207 767 l 207 886 l 629 886 l 629 767 l 753 767 l 753 578 l 575 578 l 575 696 l 261 696 l 261 529 l 629 529 l 629 413 l 753 413 l 753 103 l 629 103 l 629 -15 l 207 -15 m 301 946 l 301 1075 l 363 1075 l 363 1136 l 478 1136 l 478 1075 l 539 1075 l 539 946 l 424 946 l 424 1006 l 415 1006 l 415 946 l 301 946 z "},"Ș":{"ha":838,"x_min":85,"x_max":753,"o":"m 207 -15 l 207 103 l 85 103 l 85 293 l 261 293 l 261 174 l 575 174 l 575 342 l 207 342 l 207 460 l 85 460 l 85 767 l 207 767 l 207 886 l 629 886 l 629 767 l 753 767 l 753 578 l 575 578 l 575 696 l 261 696 l 261 529 l 629 529 l 629 413 l 753 413 l 753 103 l 629 103 l 629 -15 l 207 -15 m 388 -368 l 388 -279 l 388 -278 l 388 -250 l 326 -250 l 326 -60 l 503 -60 l 503 -179 l 564 -179 l 564 -307 l 503 -307 l 503 -368 l 388 -368 z "},"ẞ":{"ha":936,"x_min":85,"x_max":850,"o":"m 304 -15 l 304 174 l 672 174 l 672 342 l 443 342 l 443 529 l 672 529 l 672 696 l 165 696 l 165 886 l 726 886 l 726 767 l 850 767 l 850 460 l 726 460 l 726 413 l 850 413 l 850 103 l 726 103 l 726 -15 l 304 -15 m 85 -15 l 85 886 l 261 886 l 261 -15 l 85 -15 z "},"T":{"ha":838,"x_min":85,"x_max":753,"o":"m 329 -15 l 329 696 l 261 696 l 261 578 l 85 578 l 85 767 l 207 767 l 207 886 l 629 886 l 629 767 l 753 767 l 753 578 l 575 578 l 575 696 l 507 696 l 507 -15 l 329 -15 z "},"Ŧ":{"ha":869,"x_min":83,"x_max":761,"o":"m 332 -17 l 332 331 l 208 331 l 208 499 l 332 499 l 332 714 l 263 714 l 263 592 l 83 592 l 83 760 l 208 760 l 208 882 l 635 882 l 635 760 l 761 760 l 761 592 l 581 592 l 581 714 l 513 714 l 513 499 l 635 499 l 635 331 l 513 331 l 513 -17 l 332 -17 z "},"Ť":{"ha":838,"x_min":85,"x_max":753,"o":"m 329 -15 l 329 696 l 261 696 l 261 578 l 85 578 l 85 767 l 207 767 l 207 886 l 629 886 l 629 767 l 753 767 l 753 578 l 575 578 l 575 696 l 507 696 l 507 -15 l 329 -15 m 363 946 l 363 1007 l 301 1007 l 301 1136 l 415 1136 l 415 1076 l 424 1076 l 424 1136 l 539 1136 l 539 1007 l 478 1007 l 478 946 l 363 946 z "},"Ţ":{"ha":838,"x_min":85,"x_max":753,"o":"m 329 -15 l 329 696 l 261 696 l 261 578 l 85 578 l 85 767 l 207 767 l 207 886 l 629 886 l 629 767 l 753 767 l 753 578 l 575 578 l 575 696 l 507 696 l 507 -15 l 329 -15 m 271 -262 l 271 -203 l 210 -203 l 210 -74 l 325 -74 l 325 -132 l 393 -132 l 393 -114 l 393 -108 l 393 -85 l 332 -85 l 332 29 l 508 29 l 508 -74 l 569 -74 l 569 -125 l 569 -151 l 569 -203 l 508 -203 l 508 -262 l 271 -262 z "},"Ț":{"ha":838,"x_min":85,"x_max":753,"o":"m 329 -15 l 329 696 l 261 696 l 261 578 l 85 578 l 85 767 l 207 767 l 207 886 l 629 886 l 629 767 l 753 767 l 753 578 l 575 578 l 575 696 l 507 696 l 507 -15 l 329 -15 m 388 -368 l 388 -279 l 388 -278 l 388 -250 l 326 -250 l 326 -60 l 503 -60 l 503 -179 l 564 -179 l 564 -307 l 503 -307 l 503 -368 l 388 -368 z "},"U":{"ha":838,"x_min":85,"x_max":753,"o":"m 207 -15 l 207 103 l 85 103 l 85 886 l 261 886 l 261 174 l 575 174 l 575 886 l 753 886 l 753 103 l 629 103 l 629 -15 l 207 -15 z "},"Ú":{"ha":838,"x_min":85,"x_max":753,"o":"m 207 -15 l 207 103 l 85 103 l 85 886 l 261 886 l 261 174 l 575 174 l 575 886 l 753 886 l 753 103 l 629 103 l 629 -15 l 207 -15 m 299 946 l 299 1075 l 360 1075 l 360 1133 l 422 1133 l 422 1194 l 536 1194 l 536 1064 l 475 1064 l 475 1004 l 414 1004 l 414 946 l 299 946 z "},"Ŭ":{"ha":838,"x_min":85,"x_max":753,"o":"m 207 -15 l 207 103 l 85 103 l 85 886 l 261 886 l 261 174 l 575 174 l 575 886 l 753 886 l 753 103 l 629 103 l 629 -15 l 207 -15 m 235 946 l 235 1136 l 349 1136 l 349 1076 l 490 1076 l 490 1136 l 603 1136 l 603 946 l 235 946 z "},"Û":{"ha":838,"x_min":85,"x_max":753,"o":"m 207 -15 l 207 103 l 85 103 l 85 886 l 261 886 l 261 174 l 575 174 l 575 886 l 753 886 l 753 103 l 629 103 l 629 -15 l 207 -15 m 301 946 l 301 1075 l 363 1075 l 363 1136 l 478 1136 l 478 1075 l 539 1075 l 539 946 l 424 946 l 424 1006 l 415 1006 l 415 946 l 301 946 z "},"Ü":{"ha":838,"x_min":85,"x_max":753,"o":"m 207 -15 l 207 103 l 85 103 l 85 886 l 261 886 l 261 174 l 575 174 l 575 886 l 753 886 l 753 103 l 629 103 l 629 -15 l 207 -15 m 193 938 l 193 1128 l 371 1128 l 371 938 l 193 938 m 481 938 l 481 1128 l 657 1128 l 657 938 l 481 938 z "},"Ù":{"ha":838,"x_min":85,"x_max":753,"o":"m 207 -15 l 207 103 l 85 103 l 85 886 l 261 886 l 261 174 l 575 174 l 575 886 l 753 886 l 753 103 l 629 103 l 629 -15 l 207 -15 m 363 946 l 363 1004 l 301 1004 l 301 1064 l 240 1064 l 240 1194 l 354 1194 l 354 1133 l 417 1133 l 417 1075 l 478 1075 l 478 946 l 363 946 z "},"Ű":{"ha":838,"x_min":85,"x_max":753,"o":"m 207 -15 l 207 103 l 85 103 l 85 886 l 261 886 l 261 174 l 575 174 l 575 886 l 753 886 l 753 103 l 629 103 l 629 -15 l 207 -15 m 508 946 l 508 1004 l 447 1004 l 447 1064 l 386 1064 l 386 1194 l 500 1194 l 500 1133 l 563 1133 l 563 1075 l 624 1075 l 624 946 l 508 946 m 250 946 l 250 1004 l 189 1004 l 189 1064 l 128 1064 l 128 1194 l 242 1194 l 242 1133 l 304 1133 l 304 1075 l 365 1075 l 365 946 l 250 946 z "},"Ū":{"ha":838,"x_min":85,"x_max":753,"o":"m 207 -15 l 207 103 l 85 103 l 85 886 l 261 886 l 261 174 l 575 174 l 575 886 l 753 886 l 753 103 l 629 103 l 629 -15 l 207 -15 m 206 946 l 206 1136 l 628 1136 l 628 946 l 206 946 z "},"Ų":{"ha":838,"x_min":85,"x_max":753,"o":"m 207 -15 l 207 103 l 85 103 l 85 886 l 261 886 l 261 174 l 575 174 l 575 886 l 753 886 l 753 103 l 629 103 l 629 -15 l 207 -15 m 318 -278 l 318 -218 l 257 -218 l 257 -89 l 318 -89 l 318 -58 l 318 -60 l 318 39 l 496 39 l 496 -100 l 433 -100 l 433 -112 l 433 -124 l 433 -147 l 503 -147 l 503 -89 l 617 -89 l 617 -218 l 556 -218 l 556 -278 l 318 -278 z "},"Ů":{"ha":838,"x_min":85,"x_max":753,"o":"m 207 -15 l 207 103 l 85 103 l 85 886 l 261 886 l 261 174 l 575 174 l 575 886 l 753 886 l 753 103 l 629 103 l 629 -15 l 207 -15 m 332 947 l 332 1138 l 506 1138 l 506 947 l 332 947 m 378 993 l 460 993 l 460 1092 l 378 1092 l 378 993 z "},"Ũ":{"ha":838,"x_min":85,"x_max":753,"o":"m 207 -15 l 207 103 l 85 103 l 85 886 l 261 886 l 261 174 l 575 174 l 575 886 l 753 886 l 753 103 l 629 103 l 629 -15 l 207 -15 m 229 946 l 229 1139 l 475 1139 l 475 1079 l 485 1079 l 485 1139 l 603 1139 l 603 946 l 356 946 l 356 1008 l 346 1008 l 346 946 l 229 946 z "},"V":{"ha":838,"x_min":85,"x_max":753,"o":"m 329 -15 l 329 103 l 207 103 l 207 342 l 85 342 l 85 886 l 261 886 l 261 413 l 383 413 l 383 174 l 453 174 l 453 413 l 575 413 l 575 886 l 753 886 l 753 342 l 629 342 l 629 103 l 507 103 l 507 -15 l 329 -15 z "},"W":{"ha":1082,"x_min":85,"x_max":997,"o":"m 207 -15 l 207 103 l 85 103 l 85 886 l 261 886 l 261 174 l 329 174 l 329 413 l 453 413 l 453 767 l 629 767 l 629 413 l 753 413 l 753 174 l 822 174 l 822 886 l 997 886 l 997 103 l 876 103 l 876 -15 l 699 -15 l 699 103 l 575 103 l 575 342 l 507 342 l 507 103 l 383 103 l 383 -15 l 207 -15 z "},"Ẃ":{"ha":1082,"x_min":85,"x_max":997,"o":"m 207 -15 l 207 103 l 85 103 l 85 886 l 261 886 l 261 174 l 329 174 l 329 413 l 453 413 l 453 767 l 629 767 l 629 413 l 753 413 l 753 174 l 822 174 l 822 886 l 997 886 l 997 103 l 876 103 l 876 -15 l 699 -15 l 699 103 l 575 103 l 575 342 l 507 342 l 507 103 l 383 103 l 383 -15 l 207 -15 m 421 946 l 421 1075 l 482 1075 l 482 1133 l 544 1133 l 544 1194 l 658 1194 l 658 1064 l 597 1064 l 597 1004 l 536 1004 l 536 946 l 421 946 z "},"Ŵ":{"ha":1082,"x_min":85,"x_max":997,"o":"m 207 -15 l 207 103 l 85 103 l 85 886 l 261 886 l 261 174 l 329 174 l 329 413 l 453 413 l 453 767 l 629 767 l 629 413 l 753 413 l 753 174 l 822 174 l 822 886 l 997 886 l 997 103 l 876 103 l 876 -15 l 699 -15 l 699 103 l 575 103 l 575 342 l 507 342 l 507 103 l 383 103 l 383 -15 l 207 -15 m 424 946 l 424 1075 l 485 1075 l 485 1136 l 600 1136 l 600 1075 l 661 1075 l 661 946 l 546 946 l 546 1006 l 538 1006 l 538 946 l 424 946 z "},"Ẅ":{"ha":1082,"x_min":85,"x_max":997,"o":"m 207 -15 l 207 103 l 85 103 l 85 886 l 261 886 l 261 174 l 329 174 l 329 413 l 453 413 l 453 767 l 629 767 l 629 413 l 753 413 l 753 174 l 822 174 l 822 886 l 997 886 l 997 103 l 876 103 l 876 -15 l 699 -15 l 699 103 l 575 103 l 575 342 l 507 342 l 507 103 l 383 103 l 383 -15 l 207 -15 m 315 938 l 315 1128 l 493 1128 l 493 938 l 315 938 m 603 938 l 603 1128 l 779 1128 l 779 938 l 603 938 z "},"Ẁ":{"ha":1082,"x_min":85,"x_max":997,"o":"m 207 -15 l 207 103 l 85 103 l 85 886 l 261 886 l 261 174 l 329 174 l 329 413 l 453 413 l 453 767 l 629 767 l 629 413 l 753 413 l 753 174 l 822 174 l 822 886 l 997 886 l 997 103 l 876 103 l 876 -15 l 699 -15 l 699 103 l 575 103 l 575 342 l 507 342 l 507 103 l 383 103 l 383 -15 l 207 -15 m 485 946 l 485 1004 l 424 1004 l 424 1064 l 363 1064 l 363 1194 l 476 1194 l 476 1133 l 539 1133 l 539 1075 l 600 1075 l 600 946 l 485 946 z "},"X":{"ha":838,"x_min":85,"x_max":753,"o":"m 85 -15 l 85 174 l 207 174 l 207 413 l 329 413 l 329 460 l 207 460 l 207 696 l 85 696 l 85 886 l 261 886 l 261 767 l 383 767 l 383 529 l 453 529 l 453 767 l 575 767 l 575 886 l 753 886 l 753 696 l 629 696 l 629 460 l 507 460 l 507 413 l 629 413 l 629 174 l 753 174 l 753 -15 l 575 -15 l 575 103 l 453 103 l 453 342 l 383 342 l 383 103 l 261 103 l 261 -15 l 85 -15 z "},"Y":{"ha":838,"x_min":85,"x_max":753,"o":"m 329 -15 l 329 460 l 207 460 l 207 578 l 85 578 l 85 886 l 261 886 l 261 649 l 383 649 l 383 529 l 453 529 l 453 649 l 575 649 l 575 886 l 753 886 l 753 578 l 629 578 l 629 460 l 507 460 l 507 -15 l 329 -15 z "},"Ý":{"ha":838,"x_min":85,"x_max":753,"o":"m 329 -15 l 329 460 l 207 460 l 207 578 l 85 578 l 85 886 l 261 886 l 261 649 l 383 649 l 383 529 l 453 529 l 453 649 l 575 649 l 575 886 l 753 886 l 753 578 l 629 578 l 629 460 l 507 460 l 507 -15 l 329 -15 m 299 946 l 299 1075 l 360 1075 l 360 1133 l 422 1133 l 422 1194 l 536 1194 l 536 1064 l 475 1064 l 475 1004 l 414 1004 l 414 946 l 299 946 z "},"Ŷ":{"ha":838,"x_min":85,"x_max":753,"o":"m 329 -15 l 329 460 l 207 460 l 207 578 l 85 578 l 85 886 l 261 886 l 261 649 l 383 649 l 383 529 l 453 529 l 453 649 l 575 649 l 575 886 l 753 886 l 753 578 l 629 578 l 629 460 l 507 460 l 507 -15 l 329 -15 m 301 946 l 301 1075 l 363 1075 l 363 1136 l 478 1136 l 478 1075 l 539 1075 l 539 946 l 424 946 l 424 1006 l 415 1006 l 415 946 l 301 946 z "},"Ÿ":{"ha":838,"x_min":85,"x_max":753,"o":"m 329 -15 l 329 460 l 207 460 l 207 578 l 85 578 l 85 886 l 261 886 l 261 649 l 383 649 l 383 529 l 453 529 l 453 649 l 575 649 l 575 886 l 753 886 l 753 578 l 629 578 l 629 460 l 507 460 l 507 -15 l 329 -15 m 193 938 l 193 1128 l 371 1128 l 371 938 l 193 938 m 481 938 l 481 1128 l 657 1128 l 657 938 l 481 938 z "},"Ỳ":{"ha":838,"x_min":85,"x_max":753,"o":"m 329 -15 l 329 460 l 207 460 l 207 578 l 85 578 l 85 886 l 261 886 l 261 649 l 383 649 l 383 529 l 453 529 l 453 649 l 575 649 l 575 886 l 753 886 l 753 578 l 629 578 l 629 460 l 507 460 l 507 -15 l 329 -15 m 363 946 l 363 1004 l 301 1004 l 301 1064 l 240 1064 l 240 1194 l 354 1194 l 354 1133 l 417 1133 l 417 1075 l 478 1075 l 478 946 l 363 946 z "},"Z":{"ha":838,"x_min":85,"x_max":753,"o":"m 207 -15 l 207 103 l 85 103 l 85 413 l 207 413 l 207 529 l 575 529 l 575 696 l 261 696 l 261 578 l 85 578 l 85 886 l 629 886 l 629 767 l 753 767 l 753 460 l 629 460 l 629 342 l 261 342 l 261 174 l 575 174 l 575 293 l 753 293 l 753 -15 l 207 -15 z "},"Ź":{"ha":838,"x_min":85,"x_max":753,"o":"m 207 -15 l 207 103 l 85 103 l 85 413 l 207 413 l 207 529 l 575 529 l 575 696 l 261 696 l 261 578 l 85 578 l 85 886 l 629 886 l 629 767 l 753 767 l 753 460 l 629 460 l 629 342 l 261 342 l 261 174 l 575 174 l 575 293 l 753 293 l 753 -15 l 207 -15 m 299 946 l 299 1075 l 360 1075 l 360 1133 l 422 1133 l 422 1194 l 536 1194 l 536 1064 l 475 1064 l 475 1004 l 414 1004 l 414 946 l 299 946 z "},"Ž":{"ha":838,"x_min":85,"x_max":753,"o":"m 207 -15 l 207 103 l 85 103 l 85 413 l 207 413 l 207 529 l 575 529 l 575 696 l 261 696 l 261 578 l 85 578 l 85 886 l 629 886 l 629 767 l 753 767 l 753 460 l 629 460 l 629 342 l 261 342 l 261 174 l 575 174 l 575 293 l 753 293 l 753 -15 l 207 -15 m 363 946 l 363 1007 l 301 1007 l 301 1136 l 415 1136 l 415 1076 l 424 1076 l 424 1136 l 539 1136 l 539 1007 l 478 1007 l 478 946 l 363 946 z "},"Ż":{"ha":838,"x_min":85,"x_max":753,"o":"m 207 -15 l 207 103 l 85 103 l 85 413 l 207 413 l 207 529 l 575 529 l 575 696 l 261 696 l 261 578 l 85 578 l 85 886 l 629 886 l 629 767 l 753 767 l 753 460 l 629 460 l 629 342 l 261 342 l 261 174 l 575 174 l 575 293 l 753 293 l 753 -15 l 207 -15 m 332 947 l 332 1138 l 510 1138 l 510 947 l 332 947 z "},"a":{"ha":961,"x_min":85,"x_max":876,"o":"m 207 -15 l 207 103 l 85 103 l 85 529 l 207 529 l 207 649 l 629 649 l 629 529 l 753 529 l 753 174 l 876 174 l 876 -15 l 699 -15 l 699 103 l 629 103 l 629 -15 l 207 -15 m 261 174 l 575 174 l 575 460 l 261 460 l 261 174 z "},"á":{"ha":961,"x_min":85,"x_max":876,"o":"m 207 -15 l 207 103 l 85 103 l 85 529 l 207 529 l 207 649 l 629 649 l 629 529 l 753 529 l 753 174 l 876 174 l 876 -15 l 699 -15 l 699 103 l 629 103 l 629 -15 l 207 -15 m 261 174 l 575 174 l 575 460 l 261 460 l 261 174 m 299 708 l 299 838 l 360 838 l 360 896 l 422 896 l 422 957 l 536 957 l 536 826 l 475 826 l 475 767 l 414 767 l 414 708 l 299 708 z "},"ă":{"ha":961,"x_min":85,"x_max":876,"o":"m 207 -15 l 207 103 l 85 103 l 85 529 l 207 529 l 207 649 l 629 649 l 629 529 l 753 529 l 753 174 l 876 174 l 876 -15 l 699 -15 l 699 103 l 629 103 l 629 -15 l 207 -15 m 261 174 l 575 174 l 575 460 l 261 460 l 261 174 m 235 708 l 235 899 l 349 899 l 349 839 l 490 839 l 490 899 l 603 899 l 603 708 l 235 708 z "},"â":{"ha":961,"x_min":85,"x_max":876,"o":"m 207 -15 l 207 103 l 85 103 l 85 529 l 207 529 l 207 649 l 629 649 l 629 529 l 753 529 l 753 174 l 876 174 l 876 -15 l 699 -15 l 699 103 l 629 103 l 629 -15 l 207 -15 m 261 174 l 575 174 l 575 460 l 261 460 l 261 174 m 301 708 l 301 838 l 363 838 l 363 899 l 478 899 l 478 838 l 539 838 l 539 708 l 424 708 l 424 768 l 415 768 l 415 708 l 301 708 z "},"ä":{"ha":961,"x_min":85,"x_max":876,"o":"m 207 -15 l 207 103 l 85 103 l 85 529 l 207 529 l 207 649 l 629 649 l 629 529 l 753 529 l 753 174 l 876 174 l 876 -15 l 699 -15 l 699 103 l 629 103 l 629 -15 l 207 -15 m 261 174 l 575 174 l 575 460 l 261 460 l 261 174 m 193 700 l 193 890 l 371 890 l 371 700 l 193 700 m 481 700 l 481 890 l 657 890 l 657 700 l 481 700 z "},"à":{"ha":961,"x_min":85,"x_max":876,"o":"m 207 -15 l 207 103 l 85 103 l 85 529 l 207 529 l 207 649 l 629 649 l 629 529 l 753 529 l 753 174 l 876 174 l 876 -15 l 699 -15 l 699 103 l 629 103 l 629 -15 l 207 -15 m 261 174 l 575 174 l 575 460 l 261 460 l 261 174 m 363 708 l 363 767 l 301 767 l 301 826 l 240 826 l 240 957 l 354 957 l 354 896 l 417 896 l 417 838 l 478 838 l 478 708 l 363 708 z "},"ā":{"ha":961,"x_min":85,"x_max":876,"o":"m 207 -15 l 207 103 l 85 103 l 85 529 l 207 529 l 207 649 l 629 649 l 629 529 l 753 529 l 753 174 l 876 174 l 876 -15 l 699 -15 l 699 103 l 629 103 l 629 -15 l 207 -15 m 261 174 l 575 174 l 575 460 l 261 460 l 261 174 m 206 708 l 206 899 l 628 899 l 628 708 l 206 708 z "},"ą":{"ha":961,"x_min":85,"x_max":997,"o":"m 207 -15 l 207 103 l 85 103 l 85 529 l 207 529 l 207 649 l 629 649 l 629 529 l 753 529 l 753 174 l 876 174 l 876 -15 l 699 -15 l 699 103 l 629 103 l 629 -15 l 207 -15 m 261 174 l 575 174 l 575 460 l 261 460 l 261 174 m 699 -262 l 699 -203 l 638 -203 l 638 -74 l 699 -74 l 699 -43 l 699 -44 l 699 54 l 876 54 l 876 -85 l 814 -85 l 814 -97 l 814 -108 l 814 -132 l 883 -132 l 883 -74 l 997 -74 l 997 -203 l 936 -203 l 936 -262 l 699 -262 z "},"å":{"ha":961,"x_min":85,"x_max":876,"o":"m 207 -15 l 207 103 l 85 103 l 85 529 l 207 529 l 207 649 l 629 649 l 629 529 l 753 529 l 753 174 l 876 174 l 876 -15 l 699 -15 l 699 103 l 629 103 l 629 -15 l 207 -15 m 261 174 l 575 174 l 575 460 l 261 460 l 261 174 m 332 710 l 332 900 l 506 900 l 506 710 l 332 710 m 378 756 l 460 756 l 460 854 l 378 854 l 378 756 z "},"ã":{"ha":961,"x_min":85,"x_max":876,"o":"m 207 -15 l 207 103 l 85 103 l 85 529 l 207 529 l 207 649 l 629 649 l 629 529 l 753 529 l 753 174 l 876 174 l 876 -15 l 699 -15 l 699 103 l 629 103 l 629 -15 l 207 -15 m 261 174 l 575 174 l 575 460 l 261 460 l 261 174 m 229 708 l 229 901 l 475 901 l 475 842 l 485 842 l 485 901 l 603 901 l 603 708 l 356 708 l 356 771 l 346 771 l 346 708 l 229 708 z "},"æ":{"ha":1575,"x_min":85,"x_max":1490,"o":"m 207 -15 l 207 103 l 85 103 l 85 529 l 207 529 l 207 649 l 629 649 l 629 529 l 753 529 l 753 174 l 822 174 l 822 529 l 946 529 l 946 649 l 1367 649 l 1367 529 l 1490 529 l 1490 342 l 1314 342 l 1314 460 l 999 460 l 999 413 l 1244 413 l 1244 222 l 999 222 l 999 174 l 1314 174 l 1314 294 l 1490 294 l 1490 104 l 1367 104 l 1367 -15 l 946 -15 l 946 103 l 876 103 l 876 -15 l 699 -15 l 699 103 l 629 103 l 629 -15 l 207 -15 m 261 174 l 575 174 l 575 460 l 261 460 l 261 174 z "},"ǽ":{"ha":1575,"x_min":85,"x_max":1490,"o":"m 207 -15 l 207 103 l 85 103 l 85 529 l 207 529 l 207 649 l 629 649 l 629 529 l 753 529 l 753 174 l 822 174 l 822 529 l 946 529 l 946 649 l 1367 649 l 1367 529 l 1490 529 l 1490 342 l 1314 342 l 1314 460 l 999 460 l 999 413 l 1244 413 l 1244 222 l 999 222 l 999 174 l 1314 174 l 1314 294 l 1490 294 l 1490 104 l 1367 104 l 1367 -15 l 946 -15 l 946 103 l 876 103 l 876 -15 l 699 -15 l 699 103 l 629 103 l 629 -15 l 207 -15 m 261 174 l 575 174 l 575 460 l 261 460 l 261 174 m 732 708 l 732 838 l 793 838 l 793 896 l 856 896 l 856 957 l 969 957 l 969 826 l 908 826 l 908 767 l 847 767 l 847 708 l 732 708 z "},"b":{"ha":838,"x_min":85,"x_max":753,"o":"m 207 -15 l 207 103 l 85 103 l 85 886 l 261 886 l 261 649 l 629 649 l 629 529 l 753 529 l 753 103 l 629 103 l 629 -15 l 207 -15 m 261 174 l 575 174 l 575 460 l 261 460 l 261 174 z "},"c":{"ha":838,"x_min":85,"x_max":753,"o":"m 207 -15 l 207 103 l 85 103 l 85 529 l 207 529 l 207 649 l 629 649 l 629 529 l 753 529 l 753 342 l 575 342 l 575 460 l 261 460 l 261 174 l 575 174 l 575 293 l 753 293 l 753 103 l 629 103 l 629 -15 l 207 -15 z "},"ć":{"ha":838,"x_min":85,"x_max":753,"o":"m 207 -15 l 207 103 l 85 103 l 85 529 l 207 529 l 207 649 l 629 649 l 629 529 l 753 529 l 753 342 l 575 342 l 575 460 l 261 460 l 261 174 l 575 174 l 575 293 l 753 293 l 753 103 l 629 103 l 629 -15 l 207 -15 m 299 708 l 299 838 l 360 838 l 360 896 l 422 896 l 422 957 l 536 957 l 536 826 l 475 826 l 475 767 l 414 767 l 414 708 l 299 708 z "},"č":{"ha":838,"x_min":85,"x_max":753,"o":"m 207 -15 l 207 103 l 85 103 l 85 529 l 207 529 l 207 649 l 629 649 l 629 529 l 753 529 l 753 342 l 575 342 l 575 460 l 261 460 l 261 174 l 575 174 l 575 293 l 753 293 l 753 103 l 629 103 l 629 -15 l 207 -15 m 363 708 l 363 769 l 301 769 l 301 899 l 415 899 l 415 839 l 424 839 l 424 899 l 539 899 l 539 769 l 478 769 l 478 708 l 363 708 z "},"ç":{"ha":838,"x_min":85,"x_max":753,"o":"m 207 -15 l 207 103 l 85 103 l 85 529 l 207 529 l 207 649 l 629 649 l 629 529 l 753 529 l 753 342 l 575 342 l 575 460 l 261 460 l 261 174 l 575 174 l 575 293 l 753 293 l 753 103 l 629 103 l 629 -15 l 207 -15 m 271 -262 l 271 -203 l 210 -203 l 210 -74 l 325 -74 l 325 -132 l 393 -132 l 393 -114 l 393 -108 l 393 -85 l 332 -85 l 332 29 l 508 29 l 508 -74 l 569 -74 l 569 -125 l 569 -151 l 569 -203 l 508 -203 l 508 -262 l 271 -262 z "},"ĉ":{"ha":838,"x_min":85,"x_max":753,"o":"m 207 -15 l 207 103 l 85 103 l 85 529 l 207 529 l 207 649 l 629 649 l 629 529 l 753 529 l 753 342 l 575 342 l 575 460 l 261 460 l 261 174 l 575 174 l 575 293 l 753 293 l 753 103 l 629 103 l 629 -15 l 207 -15 m 301 708 l 301 838 l 363 838 l 363 899 l 478 899 l 478 838 l 539 838 l 539 708 l 424 708 l 424 768 l 415 768 l 415 708 l 301 708 z "},"ċ":{"ha":838,"x_min":85,"x_max":753,"o":"m 207 -15 l 207 103 l 85 103 l 85 529 l 207 529 l 207 649 l 629 649 l 629 529 l 753 529 l 753 342 l 575 342 l 575 460 l 261 460 l 261 174 l 575 174 l 575 293 l 753 293 l 753 103 l 629 103 l 629 -15 l 207 -15 m 332 710 l 332 900 l 510 900 l 510 710 l 332 710 z "},"d":{"ha":838,"x_min":85,"x_max":754,"o":"m 207 -15 l 207 103 l 85 103 l 85 529 l 207 529 l 207 649 l 576 649 l 576 886 l 754 886 l 754 103 l 629 103 l 629 -15 l 207 -15 m 261 174 l 575 174 l 575 460 l 261 460 l 261 174 z "},"ď":{"ha":838,"x_min":85,"x_max":1022,"o":"m 207 -15 l 207 103 l 85 103 l 85 529 l 207 529 l 207 649 l 576 649 l 576 886 l 754 886 l 754 103 l 629 103 l 629 -15 l 207 -15 m 261 174 l 575 174 l 575 460 l 261 460 l 261 174 m 846 578 l 846 667 l 846 656 l 846 696 l 785 696 l 785 886 l 961 886 l 961 767 l 1022 767 l 1022 638 l 961 638 l 961 578 l 846 578 z "},"đ":{"ha":835,"x_min":85,"x_max":789,"o":"m 207 -15 l 207 103 l 85 103 l 85 529 l 207 529 l 207 642 l 576 642 l 576 665 l 301 665 l 301 839 l 576 839 l 576 886 l 754 886 l 754 839 l 789 839 l 789 658 l 754 658 l 754 103 l 629 103 l 629 -15 l 207 -15 m 261 174 l 575 174 l 575 460 l 261 460 l 261 174 z "},"ð":{"ha":840,"x_min":85,"x_max":796,"o":"m 208 -15 l 208 103 l 85 103 l 85 413 l 208 413 l 208 529 l 576 529 l 576 696 l 263 696 l 263 578 l 85 578 l 85 767 l 208 767 l 208 886 l 631 886 l 631 767 l 753 767 l 753 103 l 631 103 l 631 -15 l 208 -15 m 263 174 l 576 174 l 576 342 l 263 342 l 263 174 m 342 583 l 619 972 l 796 972 l 518 583 l 342 583 z "},"e":{"ha":838,"x_min":85,"x_max":753,"o":"m 207 -15 l 207 103 l 85 103 l 85 529 l 207 529 l 207 649 l 629 649 l 629 529 l 753 529 l 753 342 l 575 342 l 575 460 l 261 460 l 261 413 l 507 413 l 507 222 l 261 222 l 261 174 l 575 174 l 575 294 l 753 294 l 753 104 l 629 104 l 629 -15 l 207 -15 z "},"é":{"ha":838,"x_min":85,"x_max":753,"o":"m 207 -15 l 207 103 l 85 103 l 85 529 l 207 529 l 207 649 l 629 649 l 629 529 l 753 529 l 753 342 l 575 342 l 575 460 l 261 460 l 261 413 l 507 413 l 507 222 l 261 222 l 261 174 l 575 174 l 575 294 l 753 294 l 753 104 l 629 104 l 629 -15 l 207 -15 m 299 708 l 299 838 l 360 838 l 360 896 l 422 896 l 422 957 l 536 957 l 536 826 l 475 826 l 475 767 l 414 767 l 414 708 l 299 708 z "},"ĕ":{"ha":838,"x_min":85,"x_max":753,"o":"m 207 -15 l 207 103 l 85 103 l 85 529 l 207 529 l 207 649 l 629 649 l 629 529 l 753 529 l 753 342 l 575 342 l 575 460 l 261 460 l 261 413 l 507 413 l 507 222 l 261 222 l 261 174 l 575 174 l 575 294 l 753 294 l 753 104 l 629 104 l 629 -15 l 207 -15 m 235 708 l 235 899 l 349 899 l 349 839 l 490 839 l 490 899 l 603 899 l 603 708 l 235 708 z "},"ě":{"ha":838,"x_min":85,"x_max":753,"o":"m 207 -15 l 207 103 l 85 103 l 85 529 l 207 529 l 207 649 l 629 649 l 629 529 l 753 529 l 753 342 l 575 342 l 575 460 l 261 460 l 261 413 l 507 413 l 507 222 l 261 222 l 261 174 l 575 174 l 575 294 l 753 294 l 753 104 l 629 104 l 629 -15 l 207 -15 m 363 708 l 363 769 l 301 769 l 301 899 l 415 899 l 415 839 l 424 839 l 424 899 l 539 899 l 539 769 l 478 769 l 478 708 l 363 708 z "},"ê":{"ha":838,"x_min":85,"x_max":753,"o":"m 207 -15 l 207 103 l 85 103 l 85 529 l 207 529 l 207 649 l 629 649 l 629 529 l 753 529 l 753 342 l 575 342 l 575 460 l 261 460 l 261 413 l 507 413 l 507 222 l 261 222 l 261 174 l 575 174 l 575 294 l 753 294 l 753 104 l 629 104 l 629 -15 l 207 -15 m 301 708 l 301 838 l 363 838 l 363 899 l 478 899 l 478 838 l 539 838 l 539 708 l 424 708 l 424 768 l 415 768 l 415 708 l 301 708 z "},"ë":{"ha":838,"x_min":85,"x_max":753,"o":"m 207 -15 l 207 103 l 85 103 l 85 529 l 207 529 l 207 649 l 629 649 l 629 529 l 753 529 l 753 342 l 575 342 l 575 460 l 261 460 l 261 413 l 507 413 l 507 222 l 261 222 l 261 174 l 575 174 l 575 294 l 753 294 l 753 104 l 629 104 l 629 -15 l 207 -15 m 193 700 l 193 890 l 371 890 l 371 700 l 193 700 m 481 700 l 481 890 l 657 890 l 657 700 l 481 700 z "},"ė":{"ha":838,"x_min":85,"x_max":753,"o":"m 207 -15 l 207 103 l 85 103 l 85 529 l 207 529 l 207 649 l 629 649 l 629 529 l 753 529 l 753 342 l 575 342 l 575 460 l 261 460 l 261 413 l 507 413 l 507 222 l 261 222 l 261 174 l 575 174 l 575 294 l 753 294 l 753 104 l 629 104 l 629 -15 l 207 -15 m 332 710 l 332 900 l 510 900 l 510 710 l 332 710 z "},"è":{"ha":838,"x_min":85,"x_max":753,"o":"m 207 -15 l 207 103 l 85 103 l 85 529 l 207 529 l 207 649 l 629 649 l 629 529 l 753 529 l 753 342 l 575 342 l 575 460 l 261 460 l 261 413 l 507 413 l 507 222 l 261 222 l 261 174 l 575 174 l 575 294 l 753 294 l 753 104 l 629 104 l 629 -15 l 207 -15 m 363 708 l 363 767 l 301 767 l 301 826 l 240 826 l 240 957 l 354 957 l 354 896 l 417 896 l 417 838 l 478 838 l 478 708 l 363 708 z "},"ē":{"ha":838,"x_min":85,"x_max":753,"o":"m 207 -15 l 207 103 l 85 103 l 85 529 l 207 529 l 207 649 l 629 649 l 629 529 l 753 529 l 753 342 l 575 342 l 575 460 l 261 460 l 261 413 l 507 413 l 507 222 l 261 222 l 261 174 l 575 174 l 575 294 l 753 294 l 753 104 l 629 104 l 629 -15 l 207 -15 m 206 708 l 206 899 l 628 899 l 628 708 l 206 708 z "},"ę":{"ha":838,"x_min":85,"x_max":753,"o":"m 207 -15 l 207 103 l 85 103 l 85 529 l 207 529 l 207 649 l 629 649 l 629 529 l 753 529 l 753 342 l 575 342 l 575 460 l 261 460 l 261 413 l 507 413 l 507 222 l 261 222 l 261 174 l 575 174 l 575 294 l 753 294 l 753 104 l 629 104 l 629 -15 l 207 -15 m 324 -262 l 324 -203 l 263 -203 l 263 -74 l 324 -74 l 324 -43 l 324 -44 l 324 54 l 501 54 l 501 -85 l 439 -85 l 439 -97 l 439 -108 l 439 -132 l 508 -132 l 508 -74 l 622 -74 l 622 -203 l 561 -203 l 561 -262 l 324 -262 z "},"f":{"ha":838,"x_min":85,"x_max":753,"o":"m 85 -15 l 85 767 l 207 767 l 207 886 l 629 886 l 629 767 l 753 767 l 753 578 l 575 578 l 575 696 l 261 696 l 261 529 l 507 529 l 507 342 l 261 342 l 261 -15 l 85 -15 z "},"g":{"ha":838,"x_min":85,"x_max":753,"o":"m 207 -253 l 207 -135 l 85 -135 l 85 54 l 261 54 l 261 -64 l 576 -64 l 576 103 l 207 103 l 207 222 l 85 222 l 85 529 l 207 529 l 207 649 l 631 649 l 631 529 l 753 529 l 753 -135 l 631 -135 l 631 -253 l 207 -253 m 261 293 l 576 293 l 576 460 l 261 460 l 261 293 z "},"ğ":{"ha":838,"x_min":85,"x_max":753,"o":"m 207 -253 l 207 -135 l 85 -135 l 85 54 l 261 54 l 261 -64 l 576 -64 l 576 103 l 207 103 l 207 222 l 85 222 l 85 529 l 207 529 l 207 649 l 631 649 l 631 529 l 753 529 l 753 -135 l 631 -135 l 631 -253 l 207 -253 m 261 293 l 576 293 l 576 460 l 261 460 l 261 293 m 235 708 l 235 899 l 349 899 l 349 839 l 490 839 l 490 899 l 603 899 l 603 708 l 235 708 z "},"ĝ":{"ha":838,"x_min":85,"x_max":753,"o":"m 207 -253 l 207 -135 l 85 -135 l 85 54 l 261 54 l 261 -64 l 576 -64 l 576 103 l 207 103 l 207 222 l 85 222 l 85 529 l 207 529 l 207 649 l 631 649 l 631 529 l 753 529 l 753 -135 l 631 -135 l 631 -253 l 207 -253 m 261 293 l 576 293 l 576 460 l 261 460 l 261 293 m 301 708 l 301 838 l 363 838 l 363 899 l 478 899 l 478 838 l 539 838 l 539 708 l 424 708 l 424 768 l 415 768 l 415 708 l 301 708 z "},"ģ":{"ha":838,"x_min":85,"x_max":753,"o":"m 207 -253 l 207 -135 l 85 -135 l 85 54 l 261 54 l 261 -64 l 576 -64 l 576 103 l 207 103 l 207 222 l 85 222 l 85 529 l 207 529 l 207 649 l 631 649 l 631 529 l 753 529 l 753 -135 l 631 -135 l 631 -253 l 207 -253 m 261 293 l 576 293 l 576 460 l 261 460 l 261 293 m 361 708 l 361 828 l 300 828 l 300 956 l 361 956 l 361 1017 l 476 1017 l 476 928 l 476 929 l 476 899 l 538 899 l 538 708 l 361 708 z "},"ġ":{"ha":838,"x_min":85,"x_max":753,"o":"m 207 -253 l 207 -135 l 85 -135 l 85 54 l 261 54 l 261 -64 l 576 -64 l 576 103 l 207 103 l 207 222 l 85 222 l 85 529 l 207 529 l 207 649 l 631 649 l 631 529 l 753 529 l 753 -135 l 631 -135 l 631 -253 l 207 -253 m 261 293 l 576 293 l 576 460 l 261 460 l 261 293 m 332 710 l 332 900 l 510 900 l 510 710 l 332 710 z "},"h":{"ha":838,"x_min":85,"x_max":753,"o":"m 85 -15 l 85 886 l 261 886 l 261 529 l 329 529 l 329 649 l 629 649 l 629 529 l 753 529 l 753 -15 l 575 -15 l 575 460 l 383 460 l 383 342 l 261 342 l 261 -15 l 85 -15 z "},"ħ":{"ha":838,"x_min":43,"x_max":751,"o":"m 83 -15 l 83 654 l 43 654 l 43 843 l 83 843 l 83 886 l 260 886 l 260 843 l 396 843 l 396 654 l 260 654 l 260 529 l 328 529 l 328 649 l 628 649 l 628 529 l 751 529 l 751 -15 l 574 -15 l 574 460 l 382 460 l 382 342 l 260 342 l 260 -15 l 83 -15 z "},"ĥ":{"ha":838,"x_min":85,"x_max":753,"o":"m 85 -15 l 85 886 l 261 886 l 261 529 l 329 529 l 329 649 l 629 649 l 629 529 l 753 529 l 753 -15 l 575 -15 l 575 460 l 383 460 l 383 342 l 261 342 l 261 -15 l 85 -15 m 301 946 l 301 1075 l 363 1075 l 363 1136 l 478 1136 l 478 1075 l 539 1075 l 539 946 l 424 946 l 424 1006 l 415 1006 l 415 946 l 301 946 z "},"i":{"ha":346,"x_min":85,"x_max":261,"o":"m 85 -15 l 85 649 l 261 649 l 261 -15 l 85 -15 m 85 696 l 85 886 l 261 886 l 261 696 l 85 696 z "},"ı":{"ha":346,"x_min":85,"x_max":263,"o":"m 85 -15 l 85 649 l 263 649 l 263 -15 l 85 -15 z "},"í":{"ha":346,"x_min":53,"x_max":290,"o":"m 85 -15 l 85 649 l 263 649 l 263 -15 l 85 -15 m 53 708 l 53 838 l 114 838 l 114 896 l 176 896 l 176 957 l 290 957 l 290 826 l 229 826 l 229 767 l 168 767 l 168 708 l 53 708 z "},"ĭ":{"ha":346,"x_min":-17,"x_max":353,"o":"m 82 -15 l 82 649 l 258 649 l 258 -15 l 82 -15 m -17 708 l -17 899 l 97 899 l 97 839 l 239 839 l 239 899 l 353 899 l 353 708 l -17 708 z "},"î":{"ha":346,"x_min":56,"x_max":293,"o":"m 85 -15 l 85 649 l 263 649 l 263 -15 l 85 -15 m 56 708 l 56 838 l 117 838 l 117 899 l 232 899 l 232 838 l 293 838 l 293 708 l 178 708 l 178 768 l 169 768 l 169 708 l 56 708 z "},"ï":{"ha":346,"x_min":-31,"x_max":378,"o":"m 85 -15 l 85 649 l 263 649 l 263 -15 l 85 -15 m -31 700 l -31 890 l 147 890 l 147 700 l -31 700 m 201 700 l 201 890 l 378 890 l 378 700 l 201 700 z "},"ì":{"ha":346,"x_min":-6,"x_max":263,"o":"m 85 -15 l 85 649 l 263 649 l 263 -15 l 85 -15 m 117 708 l 117 767 l 56 767 l 56 826 l -6 826 l -6 957 l 108 957 l 108 896 l 171 896 l 171 838 l 232 838 l 232 708 l 117 708 z "},"ī":{"ha":346,"x_min":-40,"x_max":382,"o":"m 85 -15 l 85 649 l 263 649 l 263 -15 l 85 -15 m -40 708 l -40 899 l 382 899 l 382 708 l -40 708 z "},"į":{"ha":346,"x_min":24,"x_max":383,"o":"m 85 -15 l 85 649 l 263 649 l 263 -15 l 85 -15 m 86 710 l 86 900 l 264 900 l 264 710 l 86 710 m 85 -268 l 85 -208 l 24 -208 l 24 -79 l 85 -79 l 85 -49 l 85 -50 l 85 49 l 263 49 l 263 -90 l 200 -90 l 200 -103 l 200 -114 l 200 -137 l 269 -137 l 269 -79 l 383 -79 l 383 -208 l 322 -208 l 322 -268 l 85 -268 z "},"ĩ":{"ha":346,"x_min":-17,"x_max":357,"o":"m 85 -15 l 85 649 l 263 649 l 263 -15 l 85 -15 m -17 708 l -17 901 l 229 901 l 229 842 l 239 842 l 239 901 l 357 901 l 357 708 l 110 708 l 110 771 l 100 771 l 100 708 l -17 708 z "},"ĳ":{"ha":1033,"x_min":85,"x_max":949,"o":"m 525 -17 l 525 103 l 403 103 l 403 293 l 579 293 l 579 174 l 771 174 l 771 649 l 949 649 l 949 103 l 825 103 l 825 -17 l 525 -17 m 85 -15 l 85 649 l 261 649 l 261 -15 l 85 -15 z "},"j":{"ha":715,"x_min":85,"x_max":631,"o":"m 207 -17 l 207 103 l 85 103 l 85 293 l 261 293 l 261 174 l 453 174 l 453 649 l 631 649 l 631 103 l 507 103 l 507 -17 l 207 -17 z "},"ȷ":{"ha":715,"x_min":85,"x_max":631,"o":"m 207 -17 l 207 103 l 85 103 l 85 293 l 261 293 l 261 174 l 453 174 l 453 649 l 631 649 l 631 103 l 507 103 l 507 -17 l 207 -17 z "},"ĵ":{"ha":715,"x_min":85,"x_max":656,"o":"m 207 -17 l 207 103 l 85 103 l 85 293 l 261 293 l 261 174 l 453 174 l 453 649 l 631 649 l 631 103 l 507 103 l 507 -17 l 207 -17 m 418 708 l 418 838 l 479 838 l 479 899 l 594 899 l 594 838 l 656 838 l 656 708 l 540 708 l 540 768 l 532 768 l 532 708 l 418 708 z "},"k":{"ha":838,"x_min":85,"x_max":753,"o":"m 85 -15 l 85 886 l 261 886 l 261 413 l 329 413 l 329 529 l 575 529 l 575 649 l 753 649 l 753 460 l 629 460 l 629 342 l 383 342 l 383 293 l 629 293 l 629 174 l 753 174 l 753 -15 l 575 -15 l 575 103 l 329 103 l 329 222 l 261 222 l 261 -15 l 85 -15 z "},"ķ":{"ha":838,"x_min":85,"x_max":753,"o":"m 85 -15 l 85 886 l 261 886 l 261 413 l 329 413 l 329 529 l 575 529 l 575 649 l 753 649 l 753 460 l 629 460 l 629 342 l 383 342 l 383 293 l 629 293 l 629 174 l 753 174 l 753 -15 l 575 -15 l 575 103 l 329 103 l 329 222 l 261 222 l 261 -15 l 85 -15 m 388 -368 l 388 -279 l 388 -278 l 388 -250 l 326 -250 l 326 -60 l 503 -60 l 503 -179 l 564 -179 l 564 -307 l 503 -307 l 503 -368 l 388 -368 z "},"l":{"ha":346,"x_min":85,"x_max":261,"o":"m 85 -15 l 85 886 l 261 886 l 261 -15 l 85 -15 z "},"ĺ":{"ha":346,"x_min":53,"x_max":290,"o":"m 85 -15 l 85 886 l 261 886 l 261 -15 l 85 -15 m 53 946 l 53 1075 l 114 1075 l 114 1133 l 176 1133 l 176 1194 l 290 1194 l 290 1064 l 229 1064 l 229 1004 l 168 1004 l 168 946 l 53 946 z "},"ľ":{"ha":346,"x_min":85,"x_max":529,"o":"m 85 -15 l 85 886 l 261 886 l 261 -15 l 85 -15 m 353 579 l 353 668 l 353 657 l 353 697 l 292 697 l 292 888 l 468 888 l 468 768 l 529 768 l 529 639 l 468 639 l 468 579 l 353 579 z "},"ļ":{"ha":346,"x_min":81,"x_max":318,"o":"m 85 -15 l 85 886 l 261 886 l 261 -15 l 85 -15 m 142 -368 l 142 -279 l 142 -278 l 142 -250 l 81 -250 l 81 -60 l 257 -60 l 257 -179 l 318 -179 l 318 -307 l 257 -307 l 257 -368 l 142 -368 z "},"ŀ":{"ha":346,"x_min":85,"x_max":261,"o":"m 85 -15 l 85 886 l 261 886 l 261 -15 l 85 -15 m 85 0 l 85 190 l 261 190 l 261 0 l 85 0 z "},"ł":{"ha":381,"x_min":-51,"x_max":442,"o":"m 103 -15 l 103 163 l 74 125 l -51 194 l 103 425 l 103 886 l 279 886 l 279 713 l 321 785 l 442 714 l 279 447 l 279 -15 l 103 -15 z "},"m":{"ha":1082,"x_min":85,"x_max":997,"o":"m 85 -15 l 85 649 l 507 649 l 507 529 l 575 529 l 575 649 l 876 649 l 876 529 l 997 529 l 997 -15 l 822 -15 l 822 460 l 629 460 l 629 -15 l 453 -15 l 453 460 l 261 460 l 261 -15 l 85 -15 z "},"n":{"ha":838,"x_min":85,"x_max":753,"o":"m 85 -15 l 85 649 l 629 649 l 629 529 l 753 529 l 753 -15 l 575 -15 l 575 460 l 261 460 l 261 -15 l 85 -15 z "},"ń":{"ha":838,"x_min":85,"x_max":753,"o":"m 85 -15 l 85 649 l 629 649 l 629 529 l 753 529 l 753 -15 l 575 -15 l 575 460 l 261 460 l 261 -15 l 85 -15 m 299 708 l 299 838 l 360 838 l 360 896 l 422 896 l 422 957 l 536 957 l 536 826 l 475 826 l 475 767 l 414 767 l 414 708 l 299 708 z "},"ŉ":{"ha":1046,"x_min":28,"x_max":961,"o":"m 293 -15 l 293 649 l 838 649 l 838 529 l 961 529 l 961 -15 l 783 -15 l 783 460 l 469 460 l 469 -15 l 293 -15 m 89 578 l 89 638 l 89 667 l 89 696 l 28 696 l 28 886 l 204 886 l 204 767 l 265 767 l 265 638 l 204 638 l 204 578 l 89 578 z "},"ň":{"ha":838,"x_min":85,"x_max":753,"o":"m 85 -15 l 85 649 l 629 649 l 629 529 l 753 529 l 753 -15 l 575 -15 l 575 460 l 261 460 l 261 -15 l 85 -15 m 363 708 l 363 769 l 301 769 l 301 899 l 415 899 l 415 839 l 424 839 l 424 899 l 539 899 l 539 769 l 478 769 l 478 708 l 363 708 z "},"ņ":{"ha":838,"x_min":85,"x_max":753,"o":"m 85 -15 l 85 649 l 629 649 l 629 529 l 753 529 l 753 -15 l 575 -15 l 575 460 l 261 460 l 261 -15 l 85 -15 m 388 -368 l 388 -279 l 388 -278 l 388 -250 l 326 -250 l 326 -60 l 503 -60 l 503 -179 l 564 -179 l 564 -307 l 503 -307 l 503 -368 l 388 -368 z "},"ñ":{"ha":838,"x_min":85,"x_max":753,"o":"m 85 -15 l 85 649 l 629 649 l 629 529 l 753 529 l 753 -15 l 575 -15 l 575 460 l 261 460 l 261 -15 l 85 -15 m 229 708 l 229 901 l 475 901 l 475 842 l 485 842 l 485 901 l 603 901 l 603 708 l 356 708 l 356 771 l 346 771 l 346 708 l 229 708 z "},"ŋ":{"ha":1040,"x_min":85,"x_max":763,"o":"m 333 -333 l 333 -211 l 208 -211 l 208 -43 l 388 -43 l 388 -165 l 582 -165 l 582 471 l 264 471 l 264 10 l 85 10 l 85 638 l 636 638 l 636 515 l 763 515 l 763 -211 l 636 -211 l 636 -333 l 333 -333 z "},"o":{"ha":838,"x_min":85,"x_max":753,"o":"m 207 -15 l 207 103 l 85 103 l 85 529 l 207 529 l 207 649 l 629 649 l 629 529 l 753 529 l 753 103 l 629 103 l 629 -15 l 207 -15 m 261 174 l 575 174 l 575 460 l 261 460 l 261 174 z "},"ó":{"ha":838,"x_min":85,"x_max":753,"o":"m 207 -15 l 207 103 l 85 103 l 85 529 l 207 529 l 207 649 l 629 649 l 629 529 l 753 529 l 753 103 l 629 103 l 629 -15 l 207 -15 m 261 174 l 575 174 l 575 460 l 261 460 l 261 174 m 299 708 l 299 838 l 360 838 l 360 896 l 422 896 l 422 957 l 536 957 l 536 826 l 475 826 l 475 767 l 414 767 l 414 708 l 299 708 z "},"ŏ":{"ha":838,"x_min":85,"x_max":753,"o":"m 207 -15 l 207 103 l 85 103 l 85 529 l 207 529 l 207 649 l 629 649 l 629 529 l 753 529 l 753 103 l 629 103 l 629 -15 l 207 -15 m 261 174 l 575 174 l 575 460 l 261 460 l 261 174 m 235 708 l 235 899 l 349 899 l 349 839 l 490 839 l 490 899 l 603 899 l 603 708 l 235 708 z "},"ô":{"ha":838,"x_min":85,"x_max":753,"o":"m 207 -15 l 207 103 l 85 103 l 85 529 l 207 529 l 207 649 l 629 649 l 629 529 l 753 529 l 753 103 l 629 103 l 629 -15 l 207 -15 m 261 174 l 575 174 l 575 460 l 261 460 l 261 174 m 301 708 l 301 838 l 363 838 l 363 899 l 478 899 l 478 838 l 539 838 l 539 708 l 424 708 l 424 768 l 415 768 l 415 708 l 301 708 z "},"ö":{"ha":838,"x_min":85,"x_max":753,"o":"m 207 -15 l 207 103 l 85 103 l 85 529 l 207 529 l 207 649 l 629 649 l 629 529 l 753 529 l 753 103 l 629 103 l 629 -15 l 207 -15 m 261 174 l 575 174 l 575 460 l 261 460 l 261 174 m 193 700 l 193 890 l 371 890 l 371 700 l 193 700 m 481 700 l 481 890 l 657 890 l 657 700 l 481 700 z "},"ò":{"ha":838,"x_min":85,"x_max":753,"o":"m 207 -15 l 207 103 l 85 103 l 85 529 l 207 529 l 207 649 l 629 649 l 629 529 l 753 529 l 753 103 l 629 103 l 629 -15 l 207 -15 m 261 174 l 575 174 l 575 460 l 261 460 l 261 174 m 363 708 l 363 767 l 301 767 l 301 826 l 240 826 l 240 957 l 354 957 l 354 896 l 417 896 l 417 838 l 478 838 l 478 708 l 363 708 z "},"ő":{"ha":838,"x_min":85,"x_max":753,"o":"m 207 -15 l 207 103 l 85 103 l 85 529 l 207 529 l 207 649 l 629 649 l 629 529 l 753 529 l 753 103 l 629 103 l 629 -15 l 207 -15 m 261 174 l 575 174 l 575 460 l 261 460 l 261 174 m 508 708 l 508 767 l 447 767 l 447 826 l 386 826 l 386 957 l 500 957 l 500 896 l 563 896 l 563 838 l 624 838 l 624 708 l 508 708 m 250 708 l 250 767 l 189 767 l 189 826 l 128 826 l 128 957 l 242 957 l 242 896 l 304 896 l 304 838 l 365 838 l 365 708 l 250 708 z "},"ō":{"ha":838,"x_min":85,"x_max":753,"o":"m 207 -15 l 207 103 l 85 103 l 85 529 l 207 529 l 207 649 l 629 649 l 629 529 l 753 529 l 753 103 l 629 103 l 629 -15 l 207 -15 m 261 174 l 575 174 l 575 460 l 261 460 l 261 174 m 206 708 l 206 899 l 628 899 l 628 708 l 206 708 z "},"ø":{"ha":838,"x_min":53,"x_max":786,"o":"m 53 -82 l 608 751 l 786 751 l 231 -82 l 53 -82 m 207 -15 l 207 103 l 85 103 l 85 529 l 207 529 l 207 649 l 629 649 l 629 529 l 753 529 l 753 103 l 629 103 l 629 -15 l 207 -15 m 261 174 l 575 174 l 575 460 l 261 460 l 261 174 z "},"ǿ":{"ha":838,"x_min":53,"x_max":786,"o":"m 53 -82 l 608 751 l 786 751 l 231 -82 l 53 -82 m 207 -15 l 207 103 l 85 103 l 85 529 l 207 529 l 207 649 l 629 649 l 629 529 l 753 529 l 753 103 l 629 103 l 629 -15 l 207 -15 m 261 174 l 575 174 l 575 460 l 261 460 l 261 174 m 299 708 l 299 838 l 360 838 l 360 896 l 422 896 l 422 957 l 536 957 l 536 826 l 475 826 l 475 767 l 414 767 l 414 708 l 299 708 z "},"õ":{"ha":838,"x_min":85,"x_max":753,"o":"m 207 -15 l 207 103 l 85 103 l 85 529 l 207 529 l 207 649 l 629 649 l 629 529 l 753 529 l 753 103 l 629 103 l 629 -15 l 207 -15 m 261 174 l 575 174 l 575 460 l 261 460 l 261 174 m 229 708 l 229 901 l 475 901 l 475 842 l 485 842 l 485 901 l 603 901 l 603 708 l 356 708 l 356 771 l 346 771 l 346 708 l 229 708 z "},"œ":{"ha":1328,"x_min":85,"x_max":1243,"o":"m 207 -15 l 207 103 l 85 103 l 85 529 l 207 529 l 207 649 l 629 649 l 629 529 l 699 529 l 699 649 l 1121 649 l 1121 529 l 1243 529 l 1243 342 l 1067 342 l 1067 460 l 753 460 l 753 413 l 997 413 l 997 222 l 753 222 l 753 174 l 1067 174 l 1067 294 l 1243 294 l 1243 104 l 1121 104 l 1121 -15 l 699 -15 l 699 103 l 629 103 l 629 -15 l 207 -15 m 261 174 l 575 174 l 575 460 l 261 460 l 261 174 z "},"p":{"ha":838,"x_min":85,"x_max":753,"o":"m 85 -246 l 85 529 l 207 529 l 207 649 l 629 649 l 629 529 l 753 529 l 753 103 l 629 103 l 629 -15 l 261 -15 l 261 -246 l 85 -246 m 261 174 l 575 174 l 575 460 l 261 460 l 261 174 z "},"þ":{"ha":838,"x_min":85,"x_max":753,"o":"m 85 -15 l 85 886 l 261 886 l 261 719 l 629 719 l 629 600 l 753 600 l 753 172 l 629 172 l 629 56 l 261 56 l 261 -15 l 85 -15 m 261 243 l 575 243 l 575 529 l 261 529 l 261 243 z "},"q":{"ha":838,"x_min":85,"x_max":753,"o":"m 575 -246 l 575 -15 l 207 -15 l 207 103 l 85 103 l 85 529 l 207 529 l 207 649 l 629 649 l 629 529 l 753 529 l 753 -246 l 575 -246 m 261 174 l 575 174 l 575 460 l 261 460 l 261 174 z "},"r":{"ha":838,"x_min":85,"x_max":753,"o":"m 85 -15 l 85 529 l 207 529 l 207 649 l 629 649 l 629 529 l 753 529 l 753 342 l 575 342 l 575 460 l 261 460 l 261 -15 l 85 -15 z "},"ŕ":{"ha":838,"x_min":85,"x_max":753,"o":"m 85 -15 l 85 529 l 207 529 l 207 649 l 629 649 l 629 529 l 753 529 l 753 342 l 575 342 l 575 460 l 261 460 l 261 -15 l 85 -15 m 299 708 l 299 838 l 360 838 l 360 896 l 422 896 l 422 957 l 536 957 l 536 826 l 475 826 l 475 767 l 414 767 l 414 708 l 299 708 z "},"ř":{"ha":838,"x_min":85,"x_max":753,"o":"m 85 -15 l 85 529 l 207 529 l 207 649 l 629 649 l 629 529 l 753 529 l 753 342 l 575 342 l 575 460 l 261 460 l 261 -15 l 85 -15 m 363 708 l 363 769 l 301 769 l 301 899 l 415 899 l 415 839 l 424 839 l 424 899 l 539 899 l 539 769 l 478 769 l 478 708 l 363 708 z "},"ŗ":{"ha":838,"x_min":85,"x_max":753,"o":"m 85 -15 l 85 529 l 207 529 l 207 649 l 629 649 l 629 529 l 753 529 l 753 342 l 575 342 l 575 460 l 261 460 l 261 -15 l 85 -15 m 388 -368 l 388 -279 l 388 -278 l 388 -250 l 326 -250 l 326 -60 l 503 -60 l 503 -179 l 564 -179 l 564 -307 l 503 -307 l 503 -368 l 388 -368 z "},"s":{"ha":838,"x_min":85,"x_max":753,"o":"m 85 -15 l 85 174 l 575 174 l 575 222 l 207 222 l 207 342 l 85 342 l 85 529 l 207 529 l 207 649 l 753 649 l 753 460 l 261 460 l 261 413 l 629 413 l 629 293 l 753 293 l 753 103 l 629 103 l 629 -15 l 85 -15 z "},"ś":{"ha":838,"x_min":85,"x_max":753,"o":"m 85 -15 l 85 174 l 575 174 l 575 222 l 207 222 l 207 342 l 85 342 l 85 529 l 207 529 l 207 649 l 753 649 l 753 460 l 261 460 l 261 413 l 629 413 l 629 293 l 753 293 l 753 103 l 629 103 l 629 -15 l 85 -15 m 379 708 l 379 838 l 440 838 l 440 896 l 503 896 l 503 957 l 617 957 l 617 826 l 556 826 l 556 767 l 494 767 l 494 708 l 379 708 z "},"š":{"ha":838,"x_min":85,"x_max":753,"o":"m 85 -15 l 85 174 l 575 174 l 575 222 l 207 222 l 207 342 l 85 342 l 85 529 l 207 529 l 207 649 l 753 649 l 753 460 l 261 460 l 261 413 l 629 413 l 629 293 l 753 293 l 753 103 l 629 103 l 629 -15 l 85 -15 m 443 708 l 443 769 l 382 769 l 382 899 l 496 899 l 496 839 l 504 839 l 504 899 l 619 899 l 619 769 l 558 769 l 558 708 l 443 708 z "},"ş":{"ha":838,"x_min":85,"x_max":753,"o":"m 85 -15 l 85 174 l 575 174 l 575 222 l 207 222 l 207 342 l 85 342 l 85 529 l 207 529 l 207 649 l 753 649 l 753 460 l 261 460 l 261 413 l 629 413 l 629 293 l 753 293 l 753 103 l 629 103 l 629 -15 l 85 -15 m 271 -262 l 271 -203 l 210 -203 l 210 -74 l 325 -74 l 325 -132 l 393 -132 l 393 -114 l 393 -108 l 393 -85 l 332 -85 l 332 29 l 508 29 l 508 -74 l 569 -74 l 569 -125 l 569 -151 l 569 -203 l 508 -203 l 508 -262 l 271 -262 z "},"ŝ":{"ha":838,"x_min":85,"x_max":753,"o":"m 85 -15 l 85 174 l 575 174 l 575 222 l 207 222 l 207 342 l 85 342 l 85 529 l 207 529 l 207 649 l 753 649 l 753 460 l 261 460 l 261 413 l 629 413 l 629 293 l 753 293 l 753 103 l 629 103 l 629 -15 l 85 -15 m 382 708 l 382 838 l 443 838 l 443 899 l 558 899 l 558 838 l 619 838 l 619 708 l 504 708 l 504 768 l 496 768 l 496 708 l 382 708 z "},"ș":{"ha":838,"x_min":85,"x_max":753,"o":"m 85 -15 l 85 174 l 575 174 l 575 222 l 207 222 l 207 342 l 85 342 l 85 529 l 207 529 l 207 649 l 753 649 l 753 460 l 261 460 l 261 413 l 629 413 l 629 293 l 753 293 l 753 103 l 629 103 l 629 -15 l 85 -15 m 388 -368 l 388 -279 l 388 -278 l 388 -250 l 326 -250 l 326 -60 l 503 -60 l 503 -179 l 564 -179 l 564 -307 l 503 -307 l 503 -368 l 388 -368 z "},"ß":{"ha":838,"x_min":85,"x_max":753,"o":"m 85 -15 l 85 886 l 629 886 l 629 767 l 753 767 l 753 460 l 629 460 l 629 413 l 753 413 l 753 103 l 629 103 l 629 -15 l 329 -15 l 329 174 l 575 174 l 575 342 l 329 342 l 329 529 l 575 529 l 575 696 l 261 696 l 261 -15 l 85 -15 z "},"t":{"ha":961,"x_min":85,"x_max":876,"o":"m 329 -15 l 329 103 l 207 103 l 207 460 l 85 460 l 85 649 l 207 649 l 207 886 l 383 886 l 383 649 l 753 649 l 753 460 l 383 460 l 383 174 l 699 174 l 699 293 l 876 293 l 876 103 l 753 103 l 753 -15 l 329 -15 z "},"ŧ":{"ha":961,"x_min":85,"x_max":876,"o":"m 329 -15 l 329 103 l 207 103 l 207 204 l 85 204 l 85 394 l 207 394 l 207 460 l 85 460 l 85 649 l 207 649 l 207 886 l 383 886 l 383 649 l 753 649 l 753 460 l 383 460 l 383 394 l 506 394 l 506 204 l 383 204 l 383 174 l 699 174 l 699 293 l 876 293 l 876 103 l 753 103 l 753 -15 l 329 -15 z "},"ť":{"ha":961,"x_min":85,"x_max":978,"o":"m 329 -15 l 329 103 l 207 103 l 207 460 l 85 460 l 85 649 l 207 649 l 207 886 l 383 886 l 383 649 l 753 649 l 753 460 l 383 460 l 383 174 l 699 174 l 699 293 l 876 293 l 876 103 l 753 103 l 753 -15 l 329 -15 m 801 578 l 801 667 l 801 656 l 801 696 l 740 696 l 740 886 l 917 886 l 917 767 l 978 767 l 978 638 l 917 638 l 917 578 l 801 578 z "},"ţ":{"ha":961,"x_min":85,"x_max":876,"o":"m 329 -15 l 329 103 l 207 103 l 207 460 l 85 460 l 85 649 l 207 649 l 207 886 l 383 886 l 383 649 l 753 649 l 753 460 l 383 460 l 383 174 l 699 174 l 699 293 l 876 293 l 876 103 l 753 103 l 753 -15 l 329 -15 m 332 -262 l 332 -203 l 271 -203 l 271 -74 l 386 -74 l 386 -132 l 454 -132 l 454 -114 l 454 -108 l 454 -85 l 393 -85 l 393 29 l 569 29 l 569 -74 l 631 -74 l 631 -125 l 631 -151 l 631 -203 l 569 -203 l 569 -262 l 332 -262 z "},"ț":{"ha":961,"x_min":85,"x_max":876,"o":"m 329 -15 l 329 103 l 207 103 l 207 460 l 85 460 l 85 649 l 207 649 l 207 886 l 383 886 l 383 649 l 753 649 l 753 460 l 383 460 l 383 174 l 699 174 l 699 293 l 876 293 l 876 103 l 753 103 l 753 -15 l 329 -15 m 449 -368 l 449 -279 l 449 -278 l 449 -250 l 388 -250 l 388 -60 l 564 -60 l 564 -179 l 625 -179 l 625 -307 l 564 -307 l 564 -368 l 449 -368 z "},"u":{"ha":838,"x_min":85,"x_max":753,"o":"m 207 -15 l 207 103 l 85 103 l 85 649 l 261 649 l 261 174 l 575 174 l 575 649 l 753 649 l 753 103 l 629 103 l 629 -15 l 207 -15 z "},"ú":{"ha":838,"x_min":85,"x_max":753,"o":"m 207 -15 l 207 103 l 85 103 l 85 649 l 261 649 l 261 174 l 575 174 l 575 649 l 753 649 l 753 103 l 629 103 l 629 -15 l 207 -15 m 299 708 l 299 838 l 360 838 l 360 896 l 422 896 l 422 957 l 536 957 l 536 826 l 475 826 l 475 767 l 414 767 l 414 708 l 299 708 z "},"ŭ":{"ha":838,"x_min":85,"x_max":753,"o":"m 207 -15 l 207 103 l 85 103 l 85 649 l 261 649 l 261 174 l 575 174 l 575 649 l 753 649 l 753 103 l 629 103 l 629 -15 l 207 -15 m 235 708 l 235 899 l 349 899 l 349 839 l 490 839 l 490 899 l 603 899 l 603 708 l 235 708 z "},"û":{"ha":838,"x_min":85,"x_max":753,"o":"m 207 -15 l 207 103 l 85 103 l 85 649 l 261 649 l 261 174 l 575 174 l 575 649 l 753 649 l 753 103 l 629 103 l 629 -15 l 207 -15 m 301 708 l 301 838 l 363 838 l 363 899 l 478 899 l 478 838 l 539 838 l 539 708 l 424 708 l 424 768 l 415 768 l 415 708 l 301 708 z "},"ü":{"ha":838,"x_min":85,"x_max":753,"o":"m 207 -15 l 207 103 l 85 103 l 85 649 l 261 649 l 261 174 l 575 174 l 575 649 l 753 649 l 753 103 l 629 103 l 629 -15 l 207 -15 m 193 700 l 193 890 l 371 890 l 371 700 l 193 700 m 481 700 l 481 890 l 657 890 l 657 700 l 481 700 z "},"ù":{"ha":838,"x_min":85,"x_max":753,"o":"m 207 -15 l 207 103 l 85 103 l 85 649 l 261 649 l 261 174 l 575 174 l 575 649 l 753 649 l 753 103 l 629 103 l 629 -15 l 207 -15 m 363 708 l 363 767 l 301 767 l 301 826 l 240 826 l 240 957 l 354 957 l 354 896 l 417 896 l 417 838 l 478 838 l 478 708 l 363 708 z "},"ű":{"ha":838,"x_min":85,"x_max":753,"o":"m 207 -15 l 207 103 l 85 103 l 85 649 l 261 649 l 261 174 l 575 174 l 575 649 l 753 649 l 753 103 l 629 103 l 629 -15 l 207 -15 m 508 708 l 508 767 l 447 767 l 447 826 l 386 826 l 386 957 l 500 957 l 500 896 l 563 896 l 563 838 l 624 838 l 624 708 l 508 708 m 250 708 l 250 767 l 189 767 l 189 826 l 128 826 l 128 957 l 242 957 l 242 896 l 304 896 l 304 838 l 365 838 l 365 708 l 250 708 z "},"ū":{"ha":838,"x_min":85,"x_max":753,"o":"m 207 -15 l 207 103 l 85 103 l 85 649 l 261 649 l 261 174 l 575 174 l 575 649 l 753 649 l 753 103 l 629 103 l 629 -15 l 207 -15 m 206 708 l 206 899 l 628 899 l 628 708 l 206 708 z "},"ų":{"ha":838,"x_min":85,"x_max":753,"o":"m 207 -15 l 207 103 l 85 103 l 85 649 l 261 649 l 261 174 l 575 174 l 575 649 l 753 649 l 753 103 l 629 103 l 629 -15 l 207 -15 m 324 -262 l 324 -203 l 263 -203 l 263 -74 l 324 -74 l 324 -43 l 324 -44 l 324 54 l 501 54 l 501 -85 l 439 -85 l 439 -97 l 439 -108 l 439 -132 l 508 -132 l 508 -74 l 622 -74 l 622 -203 l 561 -203 l 561 -262 l 324 -262 z "},"ů":{"ha":838,"x_min":85,"x_max":753,"o":"m 207 -15 l 207 103 l 85 103 l 85 649 l 261 649 l 261 174 l 575 174 l 575 649 l 753 649 l 753 103 l 629 103 l 629 -15 l 207 -15 m 332 710 l 332 900 l 506 900 l 506 710 l 332 710 m 378 756 l 460 756 l 460 854 l 378 854 l 378 756 z "},"ũ":{"ha":838,"x_min":85,"x_max":753,"o":"m 207 -15 l 207 103 l 85 103 l 85 649 l 261 649 l 261 174 l 575 174 l 575 649 l 753 649 l 753 103 l 629 103 l 629 -15 l 207 -15 m 229 708 l 229 901 l 475 901 l 475 842 l 485 842 l 485 901 l 603 901 l 603 708 l 356 708 l 356 771 l 346 771 l 346 708 l 229 708 z "},"v":{"ha":824,"x_min":69,"x_max":738,"o":"m 315 -15 l 315 103 l 193 103 l 193 342 l 69 342 l 69 649 l 246 649 l 246 413 l 368 413 l 368 174 l 438 174 l 438 413 l 560 413 l 560 649 l 738 649 l 738 342 l 614 342 l 614 103 l 492 103 l 492 -15 l 315 -15 z "},"w":{"ha":1082,"x_min":85,"x_max":997,"o":"m 85 -15 l 85 649 l 261 649 l 261 174 l 453 174 l 453 649 l 629 649 l 629 174 l 822 174 l 822 649 l 997 649 l 997 103 l 876 103 l 876 -15 l 575 -15 l 575 103 l 507 103 l 507 -15 l 85 -15 z "},"ẃ":{"ha":1082,"x_min":85,"x_max":997,"o":"m 85 -15 l 85 649 l 261 649 l 261 174 l 453 174 l 453 649 l 629 649 l 629 174 l 822 174 l 822 649 l 997 649 l 997 103 l 876 103 l 876 -15 l 575 -15 l 575 103 l 507 103 l 507 -15 l 85 -15 m 421 708 l 421 838 l 482 838 l 482 896 l 544 896 l 544 957 l 658 957 l 658 826 l 597 826 l 597 767 l 536 767 l 536 708 l 421 708 z "},"ŵ":{"ha":1082,"x_min":85,"x_max":997,"o":"m 85 -15 l 85 649 l 261 649 l 261 174 l 453 174 l 453 649 l 629 649 l 629 174 l 822 174 l 822 649 l 997 649 l 997 103 l 876 103 l 876 -15 l 575 -15 l 575 103 l 507 103 l 507 -15 l 85 -15 m 424 708 l 424 838 l 485 838 l 485 899 l 600 899 l 600 838 l 661 838 l 661 708 l 546 708 l 546 768 l 538 768 l 538 708 l 424 708 z "},"ẅ":{"ha":1082,"x_min":85,"x_max":997,"o":"m 85 -15 l 85 649 l 261 649 l 261 174 l 453 174 l 453 649 l 629 649 l 629 174 l 822 174 l 822 649 l 997 649 l 997 103 l 876 103 l 876 -15 l 575 -15 l 575 103 l 507 103 l 507 -15 l 85 -15 m 315 700 l 315 890 l 493 890 l 493 700 l 315 700 m 603 700 l 603 890 l 779 890 l 779 700 l 603 700 z "},"ẁ":{"ha":1082,"x_min":85,"x_max":997,"o":"m 85 -15 l 85 649 l 261 649 l 261 174 l 453 174 l 453 649 l 629 649 l 629 174 l 822 174 l 822 649 l 997 649 l 997 103 l 876 103 l 876 -15 l 575 -15 l 575 103 l 507 103 l 507 -15 l 85 -15 m 485 708 l 485 767 l 424 767 l 424 826 l 363 826 l 363 957 l 476 957 l 476 896 l 539 896 l 539 838 l 600 838 l 600 708 l 485 708 z "},"x":{"ha":838,"x_min":85,"x_max":753,"o":"m 85 -15 l 85 174 l 207 174 l 207 293 l 329 293 l 329 342 l 207 342 l 207 460 l 85 460 l 85 649 l 261 649 l 261 529 l 383 529 l 383 413 l 453 413 l 453 529 l 575 529 l 575 649 l 753 649 l 753 460 l 629 460 l 629 342 l 507 342 l 507 293 l 629 293 l 629 174 l 753 174 l 753 -15 l 575 -15 l 575 103 l 453 103 l 453 222 l 383 222 l 383 103 l 261 103 l 261 -15 l 85 -15 z "},"y":{"ha":838,"x_min":85,"x_max":753,"o":"m 207 -253 l 207 -135 l 85 -135 l 85 54 l 261 54 l 261 -64 l 576 -64 l 576 103 l 207 103 l 207 222 l 85 222 l 85 649 l 261 649 l 261 293 l 576 293 l 576 649 l 753 649 l 753 -135 l 631 -135 l 631 -253 l 207 -253 z "},"ý":{"ha":838,"x_min":85,"x_max":753,"o":"m 207 -253 l 207 -135 l 85 -135 l 85 54 l 261 54 l 261 -64 l 576 -64 l 576 103 l 207 103 l 207 222 l 85 222 l 85 649 l 261 649 l 261 293 l 576 293 l 576 649 l 753 649 l 753 -135 l 631 -135 l 631 -253 l 207 -253 m 299 708 l 299 838 l 360 838 l 360 896 l 422 896 l 422 957 l 536 957 l 536 826 l 475 826 l 475 767 l 414 767 l 414 708 l 299 708 z "},"ŷ":{"ha":838,"x_min":85,"x_max":753,"o":"m 207 -253 l 207 -135 l 85 -135 l 85 54 l 261 54 l 261 -64 l 576 -64 l 576 103 l 207 103 l 207 222 l 85 222 l 85 649 l 261 649 l 261 293 l 576 293 l 576 649 l 753 649 l 753 -135 l 631 -135 l 631 -253 l 207 -253 m 301 708 l 301 838 l 363 838 l 363 899 l 478 899 l 478 838 l 539 838 l 539 708 l 424 708 l 424 768 l 415 768 l 415 708 l 301 708 z "},"ÿ":{"ha":838,"x_min":85,"x_max":753,"o":"m 207 -253 l 207 -135 l 85 -135 l 85 54 l 261 54 l 261 -64 l 576 -64 l 576 103 l 207 103 l 207 222 l 85 222 l 85 649 l 261 649 l 261 293 l 576 293 l 576 649 l 753 649 l 753 -135 l 631 -135 l 631 -253 l 207 -253 m 193 700 l 193 890 l 371 890 l 371 700 l 193 700 m 481 700 l 481 890 l 657 890 l 657 700 l 481 700 z "},"ỳ":{"ha":838,"x_min":85,"x_max":753,"o":"m 207 -253 l 207 -135 l 85 -135 l 85 54 l 261 54 l 261 -64 l 576 -64 l 576 103 l 207 103 l 207 222 l 85 222 l 85 649 l 261 649 l 261 293 l 576 293 l 576 649 l 753 649 l 753 -135 l 631 -135 l 631 -253 l 207 -253 m 363 708 l 363 767 l 301 767 l 301 826 l 240 826 l 240 957 l 354 957 l 354 896 l 417 896 l 417 838 l 478 838 l 478 708 l 363 708 z "},"z":{"ha":838,"x_min":85,"x_max":753,"o":"m 85 -15 l 85 174 l 207 174 l 207 293 l 329 293 l 329 413 l 453 413 l 453 460 l 85 460 l 85 649 l 753 649 l 753 460 l 629 460 l 629 342 l 507 342 l 507 222 l 383 222 l 383 174 l 753 174 l 753 -15 l 85 -15 z "},"ź":{"ha":838,"x_min":85,"x_max":753,"o":"m 85 -15 l 85 174 l 207 174 l 207 293 l 329 293 l 329 413 l 453 413 l 453 460 l 85 460 l 85 649 l 753 649 l 753 460 l 629 460 l 629 342 l 507 342 l 507 222 l 383 222 l 383 174 l 753 174 l 753 -15 l 85 -15 m 299 708 l 299 838 l 360 838 l 360 896 l 422 896 l 422 957 l 536 957 l 536 826 l 475 826 l 475 767 l 414 767 l 414 708 l 299 708 z "},"ž":{"ha":838,"x_min":85,"x_max":753,"o":"m 85 -15 l 85 174 l 207 174 l 207 293 l 329 293 l 329 413 l 453 413 l 453 460 l 85 460 l 85 649 l 753 649 l 753 460 l 629 460 l 629 342 l 507 342 l 507 222 l 383 222 l 383 174 l 753 174 l 753 -15 l 85 -15 m 363 708 l 363 769 l 301 769 l 301 899 l 415 899 l 415 839 l 424 839 l 424 899 l 539 899 l 539 769 l 478 769 l 478 708 l 363 708 z "},"ż":{"ha":838,"x_min":85,"x_max":753,"o":"m 85 -15 l 85 174 l 207 174 l 207 293 l 329 293 l 329 413 l 453 413 l 453 460 l 85 460 l 85 649 l 753 649 l 753 460 l 629 460 l 629 342 l 507 342 l 507 222 l 383 222 l 383 174 l 753 174 l 753 -15 l 85 -15 m 332 710 l 332 900 l 510 900 l 510 710 l 332 710 z "},"ﬀ":{"ha":1328,"x_min":85,"x_max":1243,"o":"m 85 -15 l 85 767 l 207 767 l 207 886 l 629 886 l 629 767 l 699 767 l 699 886 l 1121 886 l 1121 767 l 1243 767 l 1243 578 l 1067 578 l 1067 696 l 753 696 l 753 529 l 997 529 l 997 342 l 753 342 l 753 -15 l 575 -15 l 575 696 l 261 696 l 261 529 l 507 529 l 507 342 l 261 342 l 261 -15 l 85 -15 z "},"ﬃ":{"ha":1328,"x_min":85,"x_max":1243,"o":"m 85 -15 l 85 767 l 207 767 l 207 886 l 629 886 l 629 767 l 699 767 l 699 886 l 1121 886 l 1121 767 l 1243 767 l 1243 578 l 1067 578 l 1067 696 l 753 696 l 753 529 l 1243 529 l 1243 -15 l 1065 -15 l 1065 342 l 753 342 l 753 -15 l 575 -15 l 575 696 l 261 696 l 261 529 l 507 529 l 507 342 l 261 342 l 261 -15 l 85 -15 z "},"ﬄ":{"ha":1328,"x_min":85,"x_max":1243,"o":"m 85 -15 l 85 767 l 207 767 l 207 886 l 629 886 l 629 767 l 699 767 l 699 886 l 1121 886 l 1121 767 l 1243 767 l 1243 -15 l 1067 -15 l 1067 696 l 753 696 l 753 529 l 997 529 l 997 342 l 753 342 l 753 -15 l 575 -15 l 575 696 l 261 696 l 261 529 l 507 529 l 507 342 l 261 342 l 261 -15 l 85 -15 z "},"ﬁ":{"ha":838,"x_min":85,"x_max":753,"o":"m 85 -15 l 85 767 l 207 767 l 207 886 l 629 886 l 629 767 l 753 767 l 753 578 l 575 578 l 575 696 l 261 696 l 261 529 l 753 529 l 753 -15 l 575 -15 l 575 342 l 261 342 l 261 -15 l 85 -15 z "},"ﬂ":{"ha":838,"x_min":85,"x_max":753,"o":"m 85 -15 l 85 767 l 207 767 l 207 886 l 629 886 l 629 767 l 753 767 l 753 -15 l 575 -15 l 575 696 l 261 696 l 261 529 l 507 529 l 507 342 l 261 342 l 261 -15 l 85 -15 z "},"ﬆ":{"ha":1564,"x_min":85,"x_max":1479,"o":"m 85 -15 l 85 174 l 575 174 l 575 222 l 207 222 l 207 342 l 85 342 l 85 529 l 207 529 l 207 649 l 811 649 l 811 886 l 988 886 l 988 649 l 1357 649 l 1357 460 l 988 460 l 988 174 l 1303 174 l 1303 293 l 1479 293 l 1479 103 l 1357 103 l 1357 -15 l 933 -15 l 933 103 l 811 103 l 811 460 l 261 460 l 261 413 l 629 413 l 629 293 l 753 293 l 753 103 l 629 103 l 629 -15 l 85 -15 z "},"ª":{"ha":568,"x_min":86,"x_max":482,"o":"m 147 557 l 147 615 l 86 615 l 86 829 l 147 829 l 147 889 l 358 889 l 358 829 l 419 829 l 419 651 l 482 651 l 482 557 l 393 557 l 393 615 l 358 615 l 358 557 l 147 557 m 174 651 l 331 651 l 331 794 l 174 794 l 174 651 m 358 417 l 358 513 l 147 513 l 147 417 l 358 417 z "},"º":{"ha":506,"x_min":86,"x_max":419,"o":"m 147 614 l 147 556 l 358 556 l 358 614 l 419 614 l 419 828 l 358 828 l 358 888 l 147 888 l 147 828 l 86 828 l 86 614 l 147 614 m 174 793 l 331 793 l 331 650 l 174 650 l 174 793 m 358 417 l 358 513 l 147 513 l 147 417 l 358 417 z "},"А":{"ha":838,"x_min":85,"x_max":753,"o":"m 85 -15 l 85 649 l 207 649 l 207 767 l 329 767 l 329 886 l 507 886 l 507 767 l 629 767 l 629 649 l 753 649 l 753 -15 l 575 -15 l 575 222 l 261 222 l 261 -15 l 85 -15 m 261 413 l 575 413 l 575 578 l 453 578 l 453 696 l 383 696 l 383 578 l 261 578 l 261 413 z "},"Б":{"ha":838,"x_min":85,"x_max":753,"o":"m 207 -15 l 207 103 l 85 103 l 85 886 l 629 886 l 629 767 l 753 767 l 753 578 l 575 578 l 575 696 l 261 696 l 261 529 l 629 529 l 629 413 l 753 413 l 753 103 l 629 103 l 629 -15 l 207 -15 m 261 174 l 575 174 l 575 342 l 261 342 l 261 174 z "},"В":{"ha":838,"x_min":85,"x_max":753,"o":"m 207 -15 l 207 103 l 85 103 l 85 767 l 207 767 l 207 886 l 629 886 l 629 767 l 753 767 l 753 460 l 629 460 l 629 413 l 753 413 l 753 103 l 629 103 l 629 -15 l 207 -15 m 261 174 l 575 174 l 575 342 l 329 342 l 329 529 l 575 529 l 575 696 l 261 696 l 261 174 z "},"Г":{"ha":714,"x_min":85,"x_max":629,"o":"m 85 -15 l 85 883 l 629 883 l 629 693 l 261 693 l 261 -15 l 85 -15 z "},"Ѓ":{"ha":714,"x_min":85,"x_max":629,"o":"m 85 -15 l 85 883 l 629 883 l 629 693 l 261 693 l 261 -15 l 85 -15 z "},"Ґ":{"ha":714,"x_min":85,"x_max":629,"o":"m 85 -15 l 85 883 l 453 883 l 453 978 l 629 978 l 629 693 l 261 693 l 261 -15 l 85 -15 z "},"Д":{"ha":960,"x_min":85,"x_max":875,"o":"m 85 -15 l 85 414 l 206 414 l 206 883 l 875 883 l 875 -15 l 697 -15 l 697 104 l 261 104 l 261 -15 l 85 -15 m 383 294 l 697 294 l 697 693 l 383 693 l 383 294 z "},"Е":{"ha":838,"x_min":85,"x_max":753,"o":"m 207 -15 l 207 103 l 85 103 l 85 767 l 207 767 l 207 886 l 629 886 l 629 767 l 753 767 l 753 578 l 575 578 l 575 696 l 261 696 l 261 529 l 507 529 l 507 342 l 261 342 l 261 174 l 575 174 l 575 293 l 753 293 l 753 103 l 629 103 l 629 -15 l 207 -15 z "},"Ё":{"ha":838,"x_min":85,"x_max":753,"o":"m 207 -15 l 207 103 l 85 103 l 85 767 l 207 767 l 207 886 l 629 886 l 629 767 l 753 767 l 753 578 l 575 578 l 575 696 l 261 696 l 261 529 l 507 529 l 507 342 l 261 342 l 261 174 l 575 174 l 575 293 l 753 293 l 753 103 l 629 103 l 629 -15 l 207 -15 m 228 888 l 228 1078 l 342 1078 l 342 888 l 228 888 m 496 888 l 496 1078 l 610 1078 l 610 888 l 496 888 z "},"Ж":{"ha":1328,"x_min":85,"x_max":1243,"o":"m 85 -15 l 85 175 l 207 175 l 207 293 l 329 293 l 329 413 l 453 413 l 453 460 l 329 460 l 329 578 l 207 578 l 207 696 l 85 696 l 85 886 l 261 886 l 261 767 l 383 767 l 383 649 l 507 649 l 507 529 l 575 529 l 575 886 l 753 886 l 753 529 l 821 529 l 821 649 l 944 649 l 944 767 l 1067 767 l 1067 886 l 1243 886 l 1243 696 l 1121 696 l 1121 578 l 997 578 l 997 460 l 875 460 l 875 413 l 997 413 l 997 293 l 1121 293 l 1121 175 l 1243 175 l 1243 -15 l 1067 -15 l 1067 104 l 944 104 l 944 222 l 821 222 l 821 342 l 753 342 l 753 -15 l 575 -15 l 575 342 l 507 342 l 507 222 l 383 222 l 383 104 l 261 104 l 261 -15 l 85 -15 z "},"З":{"ha":838,"x_min":85,"x_max":753,"o":"m 207 -15 l 207 103 l 85 103 l 85 293 l 261 293 l 261 174 l 575 174 l 575 342 l 207 342 l 207 529 l 575 529 l 575 696 l 261 696 l 261 578 l 85 578 l 85 767 l 207 767 l 207 886 l 629 886 l 629 767 l 753 767 l 753 460 l 629 460 l 629 413 l 753 413 l 753 103 l 629 103 l 629 -15 l 207 -15 z "},"И":{"ha":838,"x_min":85,"x_max":753,"o":"m 85 -15 l 85 886 l 261 886 l 261 293 l 329 293 l 329 649 l 453 649 l 453 767 l 575 767 l 575 886 l 753 886 l 753 -15 l 575 -15 l 575 578 l 507 578 l 507 222 l 383 222 l 383 103 l 261 103 l 261 -15 l 85 -15 z "},"Й":{"ha":838,"x_min":85,"x_max":753,"o":"m 85 -15 l 85 886 l 261 886 l 261 293 l 329 293 l 329 649 l 453 649 l 453 767 l 575 767 l 575 886 l 753 886 l 753 -15 l 575 -15 l 575 578 l 507 578 l 507 222 l 383 222 l 383 103 l 261 103 l 261 -15 l 85 -15 m 232 907 l 232 1097 l 346 1097 l 346 1038 l 488 1038 l 488 1097 l 600 1097 l 600 907 l 232 907 z "},"К":{"ha":838,"x_min":85,"x_max":753,"o":"m 85 -15 l 85 767 l 207 767 l 207 886 l 383 886 l 383 696 l 261 696 l 261 529 l 329 529 l 329 649 l 453 649 l 453 767 l 575 767 l 575 886 l 753 886 l 753 696 l 629 696 l 629 578 l 507 578 l 507 460 l 383 460 l 383 413 l 507 413 l 507 293 l 629 293 l 629 174 l 753 174 l 753 -15 l 575 -15 l 575 103 l 453 103 l 453 222 l 329 222 l 329 342 l 261 342 l 261 -15 l 85 -15 m 358 907 l 358 1038 l 419 1038 l 419 1097 l 481 1097 l 481 1157 l 593 1157 l 593 1026 l 535 1026 l 535 967 l 474 967 l 474 907 l 358 907 z "},"Ќ":{"ha":838,"x_min":85,"x_max":753,"o":"m 85 -15 l 85 767 l 207 767 l 207 886 l 383 886 l 383 696 l 261 696 l 261 529 l 329 529 l 329 649 l 453 649 l 453 767 l 575 767 l 575 886 l 753 886 l 753 696 l 629 696 l 629 578 l 507 578 l 507 460 l 383 460 l 383 413 l 507 413 l 507 293 l 629 293 l 629 174 l 753 174 l 753 -15 l 575 -15 l 575 103 l 453 103 l 453 222 l 329 222 l 329 342 l 261 342 l 261 -15 l 85 -15 z "},"Л":{"ha":960,"x_min":85,"x_max":875,"o":"m 85 -15 l 85 175 l 206 175 l 206 883 l 875 883 l 875 -15 l 697 -15 l 697 693 l 383 693 l 383 -15 l 85 -15 z "},"М":{"ha":1082,"x_min":85,"x_max":997,"o":"m 85 -15 l 85 767 l 207 767 l 207 886 l 383 886 l 383 767 l 507 767 l 507 529 l 575 529 l 575 767 l 699 767 l 699 886 l 876 886 l 876 767 l 997 767 l 997 -15 l 822 -15 l 822 696 l 753 696 l 753 460 l 629 460 l 629 103 l 453 103 l 453 460 l 329 460 l 329 696 l 261 696 l 261 -15 l 85 -15 z "},"Н":{"ha":838,"x_min":85,"x_max":753,"o":"m 85 -15 l 85 886 l 261 886 l 261 529 l 575 529 l 575 886 l 753 886 l 753 -15 l 575 -15 l 575 342 l 261 342 l 261 -15 l 85 -15 z "},"Р":{"ha":838,"x_min":85,"x_max":753,"o":"m 85 -15 l 85 767 l 207 767 l 207 886 l 629 886 l 629 767 l 753 767 l 753 342 l 629 342 l 629 222 l 261 222 l 261 -15 l 85 -15 m 261 413 l 575 413 l 575 696 l 261 696 l 261 413 z "},"С":{"ha":838,"x_min":85,"x_max":753,"o":"m 207 -15 l 207 103 l 85 103 l 85 767 l 207 767 l 207 886 l 629 886 l 629 767 l 753 767 l 753 460 l 575 460 l 575 696 l 261 696 l 261 174 l 575 174 l 575 413 l 753 413 l 753 103 l 629 103 l 629 -15 l 207 -15 z "},"Т":{"ha":838,"x_min":85,"x_max":753,"o":"m 329 -15 l 329 696 l 261 696 l 261 578 l 85 578 l 85 767 l 207 767 l 207 886 l 629 886 l 629 767 l 753 767 l 753 578 l 575 578 l 575 696 l 507 696 l 507 -15 l 329 -15 z "},"У":{"ha":838,"x_min":85,"x_max":753,"o":"m 329 -15 l 329 460 l 207 460 l 207 578 l 85 578 l 85 886 l 261 886 l 261 649 l 383 649 l 383 529 l 453 529 l 453 649 l 575 649 l 575 886 l 753 886 l 753 578 l 629 578 l 629 460 l 507 460 l 507 -15 l 329 -15 z "},"Ў":{"ha":838,"x_min":85,"x_max":753,"o":"m 329 -15 l 329 460 l 207 460 l 207 578 l 85 578 l 85 886 l 261 886 l 261 649 l 383 649 l 383 529 l 453 529 l 453 649 l 575 649 l 575 886 l 753 886 l 753 578 l 629 578 l 629 460 l 507 460 l 507 -15 l 329 -15 m 232 907 l 232 1097 l 346 1097 l 346 1038 l 500 1038 l 500 1097 l 614 1097 l 614 907 l 232 907 z "},"Ф":{"ha":838,"x_min":85,"x_max":753,"o":"m 325 -15 l 325 101 l 207 101 l 207 219 l 85 219 l 85 646 l 207 646 l 207 765 l 325 765 l 325 886 l 503 886 l 503 765 l 629 765 l 629 646 l 753 646 l 753 219 l 629 219 l 629 101 l 503 101 l 503 -15 l 325 -15 m 261 290 l 325 290 l 325 575 l 261 575 l 261 290 m 503 290 l 575 290 l 575 575 l 503 575 l 503 290 z "},"Х":{"ha":838,"x_min":85,"x_max":753,"o":"m 85 -15 l 85 174 l 207 174 l 207 413 l 329 413 l 329 460 l 207 460 l 207 696 l 85 696 l 85 886 l 261 886 l 261 767 l 383 767 l 383 529 l 453 529 l 453 767 l 575 767 l 575 886 l 753 886 l 753 696 l 629 696 l 629 460 l 507 460 l 507 413 l 629 413 l 629 174 l 753 174 l 753 -15 l 575 -15 l 575 103 l 453 103 l 453 342 l 383 342 l 383 103 l 261 103 l 261 -15 l 85 -15 z "},"Ч":{"ha":838,"x_min":85,"x_max":753,"o":"m 576 -17 l 576 339 l 207 339 l 207 458 l 85 458 l 85 885 l 261 885 l 261 528 l 576 528 l 576 885 l 753 885 l 753 -17 l 576 -17 z "},"Ц":{"ha":838,"x_min":85,"x_max":813,"o":"m 636 -133 l 636 -74 l 636 -75 l 636 -15 l 85 -15 l 85 883 l 261 883 l 261 175 l 575 175 l 575 883 l 753 883 l 753 56 l 813 56 l 813 -74 l 753 -74 l 753 -133 l 636 -133 z "},"Ш":{"ha":1082,"x_min":85,"x_max":997,"o":"m 207 -15 l 207 103 l 85 103 l 85 886 l 261 886 l 261 174 l 329 174 l 329 413 l 453 413 l 453 767 l 629 767 l 629 413 l 753 413 l 753 174 l 822 174 l 822 886 l 997 886 l 997 103 l 876 103 l 876 -15 l 699 -15 l 699 103 l 575 103 l 575 342 l 507 342 l 507 103 l 383 103 l 383 -15 l 207 -15 z "},"Щ":{"ha":1081,"x_min":85,"x_max":1058,"o":"m 882 -133 l 882 -74 l 882 -75 l 882 -15 l 699 -15 l 699 103 l 575 103 l 575 342 l 507 342 l 507 103 l 383 103 l 383 -15 l 207 -15 l 207 103 l 85 103 l 85 886 l 261 886 l 261 174 l 329 174 l 329 413 l 453 413 l 453 767 l 629 767 l 629 413 l 753 413 l 753 174 l 822 174 l 822 886 l 997 886 l 997 56 l 1058 56 l 1058 -74 l 997 -74 l 997 -133 l 882 -133 z "},"Џ":{"ha":838,"x_min":85,"x_max":753,"o":"m 328 -135 l 328 -15 l 85 -15 l 85 885 l 261 885 l 261 175 l 575 175 l 575 885 l 753 885 l 753 -15 l 504 -15 l 504 -135 l 328 -135 z "},"Ь":{"ha":838,"x_min":85,"x_max":753,"o":"m 207 -15 l 207 103 l 85 103 l 85 886 l 261 886 l 261 649 l 629 649 l 629 529 l 753 529 l 753 103 l 629 103 l 629 -15 l 207 -15 m 261 174 l 575 174 l 575 460 l 261 460 l 261 174 z "},"Ы":{"ha":1082,"x_min":85,"x_max":997,"o":"m 207 -15 l 207 103 l 85 103 l 85 886 l 261 886 l 261 528 l 629 528 l 629 410 l 753 410 l 753 103 l 629 103 l 629 -15 l 207 -15 m 261 174 l 575 174 l 575 339 l 261 339 l 261 174 m 821 -15 l 821 649 l 997 649 l 997 -15 l 821 -15 z "},"Ъ":{"ha":832,"x_min":-54,"x_max":749,"o":"m 203 -15 l 203 103 l 81 103 l 81 696 l -54 696 l -54 886 l 393 886 l 393 696 l 257 696 l 257 649 l 625 649 l 625 529 l 749 529 l 749 103 l 625 103 l 625 -15 l 203 -15 m 257 174 l 571 174 l 571 460 l 257 460 l 257 174 z "},"Љ":{"ha":960,"x_min":85,"x_max":875,"o":"m 85 -15 l 85 175 l 206 175 l 206 883 l 875 883 l 875 -15 l 697 -15 l 697 693 l 383 693 l 383 -15 l 85 -15 z "},"Њ":{"ha":1328,"x_min":85,"x_max":1243,"o":"m 85 -15 l 85 886 l 261 886 l 261 529 l 575 529 l 575 886 l 753 886 l 753 649 l 1121 649 l 1121 529 l 1243 529 l 1243 103 l 1121 103 l 1121 -15 l 575 -15 l 575 342 l 261 342 l 261 -15 l 85 -15 m 753 174 l 1067 174 l 1067 460 l 753 460 l 753 174 z "},"Ѕ":{"ha":838,"x_min":85,"x_max":753,"o":"m 85 -15 l 85 174 l 575 174 l 575 222 l 207 222 l 207 342 l 85 342 l 85 529 l 207 529 l 207 649 l 753 649 l 753 460 l 261 460 l 261 413 l 629 413 l 629 293 l 753 293 l 753 103 l 629 103 l 629 -15 l 85 -15 z "},"Є":{"ha":838,"x_min":85,"x_max":753,"o":"m 207 -15 l 207 103 l 85 103 l 85 413 l 207 413 l 207 460 l 85 460 l 85 767 l 207 767 l 207 886 l 629 886 l 629 767 l 753 767 l 753 578 l 575 578 l 575 696 l 261 696 l 261 529 l 629 529 l 629 342 l 261 342 l 261 174 l 575 174 l 575 293 l 753 293 l 753 103 l 629 103 l 629 -15 l 207 -15 z "},"Э":{"ha":838,"x_min":85,"x_max":753,"o":"m 207 -15 l 207 103 l 85 103 l 85 293 l 261 293 l 261 174 l 575 174 l 575 342 l 207 342 l 207 529 l 575 529 l 575 696 l 261 696 l 261 578 l 85 578 l 85 767 l 207 767 l 207 886 l 629 886 l 629 767 l 753 767 l 753 460 l 629 460 l 629 413 l 753 413 l 753 103 l 629 103 l 629 -15 l 207 -15 z "},"Ї":{"ha":418,"x_min":-28,"x_max":444,"o":"m 119 -15 l 119 647 l 297 647 l 297 -15 l 119 -15 m -28 694 l -28 885 l 150 885 l 150 694 l -28 694 m 268 694 l 268 885 l 444 885 l 444 694 l 268 694 z "},"Ј":{"ha":838,"x_min":85,"x_max":753,"o":"m 207 -15 l 207 103 l 85 103 l 85 413 l 261 413 l 261 174 l 575 174 l 575 696 l 207 696 l 207 886 l 629 886 l 629 767 l 753 767 l 753 103 l 629 103 l 629 -15 l 207 -15 z "},"Ћ":{"ha":832,"x_min":-54,"x_max":749,"o":"m 81 -15 l 81 693 l -54 693 l -54 883 l 393 883 l 393 693 l 257 693 l 257 529 l 325 529 l 325 649 l 625 649 l 625 529 l 749 529 l 749 -15 l 571 -15 l 571 460 l 379 460 l 379 342 l 257 342 l 257 -15 l 81 -15 z "},"Ю":{"ha":1194,"x_min":85,"x_max":1110,"o":"m 85 -15 l 85 886 l 261 886 l 261 529 l 440 529 l 440 767 l 564 767 l 564 886 l 986 886 l 986 767 l 1110 767 l 1110 103 l 986 103 l 986 -15 l 564 -15 l 564 103 l 440 103 l 440 342 l 261 342 l 261 -15 l 85 -15 m 618 174 l 932 174 l 932 696 l 618 696 l 618 174 z "},"Я":{"ha":838,"x_min":85,"x_max":753,"o":"m 146 -15 l 146 174 l 268 174 l 268 222 l 207 222 l 207 342 l 85 342 l 85 767 l 207 767 l 207 886 l 629 886 l 629 767 l 753 767 l 753 -15 l 575 -15 l 575 222 l 444 222 l 444 103 l 322 103 l 322 -15 l 146 -15 m 261 413 l 575 413 l 575 696 l 261 696 l 261 413 z "},"Ђ":{"ha":832,"x_min":-54,"x_max":749,"o":"m 203 -15 l 203 103 l 81 103 l 81 696 l -54 696 l -54 886 l 393 886 l 393 696 l 257 696 l 257 649 l 625 649 l 625 529 l 749 529 l 749 103 l 625 103 l 625 -15 l 203 -15 m 257 174 l 571 174 l 571 460 l 257 460 l 257 174 z "},"а":{"ha":990,"x_min":83,"x_max":883,"o":"m 208 -17 l 208 104 l 83 104 l 83 442 l 579 442 l 579 468 l 83 468 l 83 635 l 633 635 l 633 513 l 760 513 l 760 150 l 883 150 l 883 -17 l 704 -17 l 704 104 l 633 104 l 633 -17 l 208 -17 m 263 150 l 579 150 l 579 274 l 263 274 l 263 150 z "},"б":{"ha":838,"x_min":85,"x_max":753,"o":"m 207 -15 l 207 103 l 85 103 l 85 767 l 207 767 l 207 886 l 629 886 l 629 767 l 753 767 l 753 578 l 575 578 l 575 696 l 261 696 l 261 529 l 629 529 l 629 413 l 753 413 l 753 103 l 629 103 l 629 -15 l 207 -15 m 261 174 l 575 174 l 575 342 l 261 342 l 261 174 z "},"в":{"ha":838,"x_min":85,"x_max":753,"o":"m 207 -15 l 207 103 l 85 103 l 85 529 l 207 529 l 207 649 l 629 649 l 629 529 l 753 529 l 753 339 l 629 339 l 629 292 l 753 292 l 753 103 l 629 103 l 629 -15 l 207 -15 m 261 174 l 575 174 l 575 221 l 329 221 l 329 410 l 575 410 l 575 460 l 261 460 l 261 174 z "},"г":{"ha":714,"x_min":85,"x_max":629,"o":"m 85 -15 l 85 649 l 629 649 l 629 460 l 261 460 l 261 -15 l 85 -15 z "},"ѓ":{"ha":838,"x_min":85,"x_max":753,"o":"m 85 -15 l 85 529 l 207 529 l 207 649 l 629 649 l 629 529 l 753 529 l 753 342 l 575 342 l 575 460 l 261 460 l 261 -15 l 85 -15 m 301 708 l 301 839 l 361 839 l 361 899 l 422 899 l 422 958 l 536 958 l 536 828 l 476 828 l 476 768 l 415 768 l 415 708 l 301 708 z "},"ґ":{"ha":838,"x_min":85,"x_max":753,"o":"m 329 -15 l 329 460 l 207 460 l 207 578 l 85 578 l 85 886 l 261 886 l 261 649 l 383 649 l 383 529 l 453 529 l 453 649 l 575 649 l 575 886 l 753 886 l 753 578 l 629 578 l 629 460 l 507 460 l 507 -15 l 329 -15 z "},"д":{"ha":960,"x_min":85,"x_max":875,"o":"m 85 -15 l 85 414 l 206 414 l 206 649 l 875 649 l 875 -15 l 697 -15 l 697 104 l 261 104 l 261 -15 l 85 -15 m 383 294 l 697 294 l 697 460 l 383 460 l 383 294 z "},"е":{"ha":838,"x_min":85,"x_max":753,"o":"m 207 -15 l 207 103 l 85 103 l 85 529 l 207 529 l 207 649 l 629 649 l 629 529 l 753 529 l 753 342 l 575 342 l 575 460 l 261 460 l 261 413 l 507 413 l 507 222 l 261 222 l 261 174 l 575 174 l 575 294 l 753 294 l 753 104 l 629 104 l 629 -15 l 207 -15 z "},"ё":{"ha":838,"x_min":85,"x_max":753,"o":"m 207 -15 l 207 103 l 85 103 l 85 529 l 207 529 l 207 649 l 629 649 l 629 529 l 753 529 l 753 342 l 575 342 l 575 460 l 261 460 l 261 413 l 507 413 l 507 222 l 261 222 l 261 174 l 575 174 l 575 294 l 753 294 l 753 104 l 629 104 l 629 -15 l 207 -15 m 185 725 l 185 915 l 363 915 l 363 725 l 185 725 m 472 725 l 472 915 l 649 915 l 649 725 l 472 725 z "},"ж":{"ha":1072,"x_min":85,"x_max":989,"o":"m 85 -15 l 85 133 l 164 133 l 164 211 l 246 211 l 246 281 l 325 281 l 325 353 l 244 353 l 244 431 l 163 431 l 163 508 l 85 508 l 85 649 l 217 649 l 217 579 l 299 579 l 299 501 l 379 501 l 379 422 l 447 422 l 447 649 l 625 649 l 625 422 l 693 422 l 693 501 l 774 501 l 774 579 l 856 579 l 856 649 l 989 649 l 989 508 l 910 508 l 910 431 l 828 431 l 828 353 l 747 353 l 747 281 l 826 281 l 826 211 l 908 211 l 908 133 l 989 133 l 989 -15 l 854 -15 l 854 63 l 772 63 l 772 140 l 693 140 l 693 210 l 625 210 l 625 -15 l 447 -15 l 447 210 l 379 210 l 379 140 l 300 140 l 300 63 l 218 63 l 218 -15 l 85 -15 z "},"з":{"ha":838,"x_min":85,"x_max":753,"o":"m 207 -15 l 207 104 l 85 104 l 85 294 l 261 294 l 261 174 l 575 174 l 575 222 l 329 222 l 329 413 l 575 413 l 575 460 l 261 460 l 261 342 l 85 342 l 85 529 l 207 529 l 207 649 l 629 649 l 629 529 l 753 529 l 753 103 l 629 103 l 629 -15 l 207 -15 z "},"и":{"ha":796,"x_min":85,"x_max":753,"o":"m 85 -15 l 85 649 l 261 649 l 261 293 l 329 293 l 329 413 l 453 413 l 453 529 l 575 529 l 575 649 l 753 649 l 753 -15 l 575 -15 l 575 342 l 507 342 l 507 222 l 383 222 l 383 103 l 261 103 l 261 -15 l 85 -15 z "},"й":{"ha":838,"x_min":85,"x_max":753,"o":"m 85 -15 l 85 650 l 261 650 l 261 293 l 329 293 l 329 414 l 453 414 l 453 531 l 575 531 l 575 650 l 753 650 l 753 -15 l 575 -15 l 575 343 l 507 343 l 507 222 l 383 222 l 383 103 l 261 103 l 261 -15 l 85 -15 m 244 671 l 244 861 l 360 861 l 360 801 l 488 801 l 488 861 l 600 861 l 600 671 l 244 671 z "},"к":{"ha":838,"x_min":85,"x_max":753,"o":"m 85 -15 l 85 649 l 261 649 l 261 413 l 329 413 l 329 529 l 575 529 l 575 649 l 753 649 l 753 460 l 629 460 l 629 342 l 383 342 l 383 293 l 629 293 l 629 174 l 753 174 l 753 -15 l 575 -15 l 575 103 l 329 103 l 329 222 l 261 222 l 261 -15 l 85 -15 z "},"ќ":{"ha":838,"x_min":85,"x_max":753,"o":"m 85 -15 l 85 649 l 261 649 l 261 413 l 329 413 l 329 529 l 575 529 l 575 649 l 753 649 l 753 460 l 629 460 l 629 342 l 383 342 l 383 293 l 629 293 l 629 174 l 753 174 l 753 -15 l 575 -15 l 575 103 l 329 103 l 329 222 l 261 222 l 261 -15 l 85 -15 m 301 708 l 301 839 l 361 839 l 361 899 l 422 899 l 422 958 l 536 958 l 536 828 l 476 828 l 476 768 l 415 768 l 415 708 l 301 708 z "},"л":{"ha":960,"x_min":85,"x_max":875,"o":"m 85 -15 l 85 175 l 206 175 l 206 647 l 875 647 l 875 -15 l 697 -15 l 697 458 l 383 458 l 383 -15 l 85 -15 z "},"м":{"ha":1082,"x_min":85,"x_max":997,"o":"m 85 -15 l 85 529 l 207 529 l 207 649 l 383 649 l 383 529 l 507 529 l 507 293 l 575 293 l 575 529 l 699 529 l 699 649 l 876 649 l 876 529 l 997 529 l 997 -15 l 822 -15 l 822 460 l 753 460 l 753 222 l 629 222 l 629 103 l 453 103 l 453 222 l 329 222 l 329 460 l 261 460 l 261 -15 l 85 -15 z "},"н":{"ha":838,"x_min":85,"x_max":753,"o":"m 85 -15 l 85 650 l 261 650 l 261 397 l 575 397 l 575 650 l 753 650 l 753 -15 l 575 -15 l 575 208 l 261 208 l 261 -15 l 85 -15 z "},"о":{"ha":838,"x_min":85,"x_max":753,"o":"m 207 -15 l 207 103 l 85 103 l 85 529 l 207 529 l 207 649 l 629 649 l 629 529 l 753 529 l 753 103 l 629 103 l 629 -15 l 207 -15 m 261 174 l 575 174 l 575 460 l 261 460 l 261 174 z "},"п":{"ha":838,"x_min":85,"x_max":753,"o":"m 85 -15 l 85 649 l 753 649 l 753 -15 l 575 -15 l 575 460 l 261 460 l 261 -15 l 85 -15 z "},"р":{"ha":838,"x_min":85,"x_max":753,"o":"m 85 -246 l 85 529 l 207 529 l 207 649 l 629 649 l 629 529 l 753 529 l 753 103 l 629 103 l 629 -15 l 261 -15 l 261 -246 l 85 -246 m 261 174 l 575 174 l 575 460 l 261 460 l 261 174 z "},"с":{"ha":838,"x_min":85,"x_max":753,"o":"m 207 -15 l 207 103 l 85 103 l 85 529 l 207 529 l 207 649 l 629 649 l 629 529 l 753 529 l 753 342 l 575 342 l 575 460 l 261 460 l 261 174 l 575 174 l 575 293 l 753 293 l 753 103 l 629 103 l 629 -15 l 207 -15 z "},"т":{"ha":838,"x_min":85,"x_max":753,"o":"m 329 -15 l 329 461 l 261 461 l 261 343 l 85 343 l 85 531 l 207 531 l 207 650 l 629 650 l 629 531 l 753 531 l 753 343 l 575 343 l 575 461 l 507 461 l 507 -15 l 329 -15 z "},"у":{"ha":838,"x_min":85,"x_max":753,"o":"m 207 -253 l 207 -135 l 85 -135 l 85 54 l 261 54 l 261 -64 l 576 -64 l 576 103 l 207 103 l 207 222 l 85 222 l 85 649 l 261 649 l 261 293 l 576 293 l 576 649 l 753 649 l 753 -135 l 631 -135 l 631 -253 l 207 -253 z "},"ў":{"ha":838,"x_min":85,"x_max":753,"o":"m 207 -253 l 207 -135 l 85 -135 l 85 54 l 261 54 l 261 -64 l 576 -64 l 576 103 l 207 103 l 207 222 l 85 222 l 85 649 l 261 649 l 261 293 l 576 293 l 576 649 l 753 649 l 753 -135 l 631 -135 l 631 -253 l 207 -253 m 232 708 l 232 899 l 346 899 l 346 839 l 500 839 l 500 899 l 614 899 l 614 708 l 232 708 z "},"ф":{"ha":726,"x_min":43,"x_max":640,"o":"m 249 -15 l 249 136 l 151 136 l 151 240 l 43 240 l 43 625 l 151 625 l 151 731 l 249 731 l 249 886 l 426 886 l 426 731 l 532 731 l 532 625 l 640 625 l 640 240 l 532 240 l 532 136 l 426 136 l 426 -15 l 249 -15 m 206 311 l 249 311 l 249 556 l 206 556 l 206 311 m 426 311 l 478 311 l 478 556 l 426 556 l 426 311 z "},"х":{"ha":838,"x_min":85,"x_max":753,"o":"m 85 -15 l 85 174 l 207 174 l 207 293 l 329 293 l 329 342 l 207 342 l 207 460 l 85 460 l 85 649 l 261 649 l 261 529 l 383 529 l 383 413 l 453 413 l 453 529 l 575 529 l 575 649 l 753 649 l 753 460 l 629 460 l 629 342 l 507 342 l 507 293 l 629 293 l 629 174 l 753 174 l 753 -15 l 575 -15 l 575 103 l 453 103 l 453 222 l 383 222 l 383 103 l 261 103 l 261 -15 l 85 -15 z "},"ч":{"ha":838,"x_min":85,"x_max":753,"o":"m 576 -17 l 576 103 l 208 103 l 208 222 l 85 222 l 85 649 l 261 649 l 261 293 l 576 293 l 576 649 l 753 649 l 753 -17 l 576 -17 z "},"ц":{"ha":854,"x_min":85,"x_max":811,"o":"m 635 -133 l 635 -74 l 635 -75 l 635 -15 l 85 -15 l 85 649 l 261 649 l 261 175 l 575 175 l 575 649 l 753 649 l 753 56 l 811 56 l 811 -74 l 751 -74 l 751 -133 l 635 -133 z "},"ш":{"ha":1082,"x_min":85,"x_max":997,"o":"m 85 -15 l 85 649 l 261 649 l 261 174 l 453 174 l 453 649 l 629 649 l 629 174 l 822 174 l 822 649 l 997 649 l 997 -15 l 575 -15 l 575 103 l 507 103 l 507 -15 l 85 -15 z "},"щ":{"ha":1081,"x_min":85,"x_max":1058,"o":"m 882 -133 l 882 -74 l 882 -75 l 882 -15 l 575 -15 l 575 103 l 507 103 l 507 -15 l 85 -15 l 85 649 l 261 649 l 261 174 l 453 174 l 453 649 l 629 649 l 629 174 l 822 174 l 822 649 l 997 649 l 997 56 l 1058 56 l 1058 -74 l 997 -74 l 997 -133 l 882 -133 z "},"џ":{"ha":838,"x_min":85,"x_max":753,"o":"m 328 -135 l 328 -15 l 85 -15 l 85 647 l 261 647 l 261 175 l 575 175 l 575 647 l 753 647 l 753 -15 l 504 -15 l 504 -135 l 328 -135 z "},"ь":{"ha":835,"x_min":0,"x_max":669,"o":"m 124 -15 l 124 103 l 0 103 l 0 886 l 178 886 l 178 649 l 544 649 l 544 529 l 669 529 l 669 103 l 544 103 l 544 -15 l 124 -15 m 178 174 l 490 174 l 490 460 l 178 460 l 178 174 z "},"ы":{"ha":1082,"x_min":85,"x_max":997,"o":"m 207 -15 l 207 103 l 85 103 l 85 886 l 261 886 l 261 649 l 629 649 l 629 529 l 753 529 l 753 103 l 629 103 l 629 -15 l 207 -15 m 261 174 l 575 174 l 575 460 l 261 460 l 261 174 m 821 -15 l 821 886 l 997 886 l 997 -15 l 821 -15 z "},"ъ":{"ha":835,"x_min":0,"x_max":750,"o":"m 204 -15 l 204 103 l 82 103 l 82 696 l 0 696 l 0 886 l 258 886 l 258 649 l 626 649 l 626 529 l 750 529 l 750 103 l 626 103 l 626 -15 l 204 -15 m 258 174 l 572 174 l 572 460 l 258 460 l 258 174 z "},"љ":{"ha":1314,"x_min":85,"x_max":1229,"o":"m 85 -15 l 85 175 l 206 175 l 206 647 l 739 647 l 739 528 l 1107 528 l 1107 410 l 1229 410 l 1229 103 l 1107 103 l 1107 -15 l 561 -15 l 561 458 l 383 458 l 383 -15 l 85 -15 m 739 174 l 1053 174 l 1053 339 l 739 339 l 739 174 z "},"њ":{"ha":1194,"x_min":85,"x_max":1110,"o":"m 85 -15 l 85 650 l 261 650 l 261 397 l 440 397 l 440 650 l 618 650 l 618 528 l 986 528 l 986 410 l 1110 410 l 1110 103 l 986 103 l 986 -15 l 440 -15 l 440 208 l 261 208 l 261 -15 l 85 -15 m 618 174 l 932 174 l 932 339 l 618 339 l 618 174 z "},"ѕ":{"ha":838,"x_min":85,"x_max":753,"o":"m 85 -15 l 85 174 l 575 174 l 575 222 l 207 222 l 207 342 l 85 342 l 85 529 l 207 529 l 207 649 l 753 649 l 753 460 l 261 460 l 261 413 l 629 413 l 629 293 l 753 293 l 753 103 l 629 103 l 629 -15 l 85 -15 z "},"є":{"ha":838,"x_min":85,"x_max":753,"o":"m 207 -15 l 207 103 l 85 103 l 85 529 l 207 529 l 207 649 l 629 649 l 629 529 l 753 529 l 753 342 l 575 342 l 575 460 l 261 460 l 261 413 l 507 413 l 507 222 l 261 222 l 261 174 l 575 174 l 575 294 l 753 294 l 753 104 l 629 104 l 629 -15 l 207 -15 z "},"э":{"ha":838,"x_min":85,"x_max":753,"o":"m 207 -15 l 207 104 l 85 104 l 85 294 l 261 294 l 261 174 l 575 174 l 575 222 l 329 222 l 329 413 l 575 413 l 575 460 l 261 460 l 261 342 l 85 342 l 85 529 l 207 529 l 207 649 l 629 649 l 629 529 l 753 529 l 753 103 l 629 103 l 629 -15 l 207 -15 z "},"і":{"ha":346,"x_min":85,"x_max":261,"o":"m 85 -15 l 85 649 l 261 649 l 261 -15 l 85 -15 m 85 696 l 85 886 l 261 886 l 261 696 l 85 696 z "},"ї":{"ha":501,"x_min":14,"x_max":486,"o":"m 161 -15 l 161 413 l 339 413 l 339 -15 l 161 -15 m 14 460 l 14 649 l 192 649 l 192 460 l 14 460 m 310 460 l 310 649 l 486 649 l 486 460 l 310 460 z "},"ј":{"ha":715,"x_min":85,"x_max":631,"o":"m 207 -17 l 207 103 l 85 103 l 85 293 l 261 293 l 261 174 l 453 174 l 453 649 l 631 649 l 631 103 l 507 103 l 507 -17 l 207 -17 z "},"ћ":{"ha":836,"x_min":83,"x_max":751,"o":"m 83 -15 l 83 883 l 396 883 l 396 693 l 260 693 l 260 529 l 328 529 l 328 649 l 628 649 l 628 529 l 751 529 l 751 -15 l 574 -15 l 574 460 l 382 460 l 382 342 l 260 342 l 260 -15 l 83 -15 z "},"ю":{"ha":1193,"x_min":85,"x_max":1108,"o":"m 85 -15 l 85 650 l 261 650 l 261 397 l 439 397 l 439 529 l 563 529 l 563 649 l 985 649 l 985 529 l 1108 529 l 1108 103 l 985 103 l 985 -15 l 563 -15 l 563 103 l 439 103 l 439 208 l 261 208 l 261 -15 l 85 -15 m 617 174 l 931 174 l 931 460 l 617 460 l 617 174 z "},"я":{"ha":838,"x_min":85,"x_max":753,"o":"m 146 -15 l 146 174 l 268 174 l 268 224 l 207 224 l 207 343 l 85 343 l 85 529 l 207 529 l 207 649 l 629 649 l 629 529 l 753 529 l 753 -15 l 575 -15 l 575 224 l 444 224 l 444 103 l 322 103 l 322 -15 l 146 -15 m 261 414 l 575 414 l 575 460 l 261 460 l 261 414 z "},"ђ":{"ha":908,"x_min":83,"x_max":800,"o":"m 372 -401 l 372 -278 l 249 -278 l 249 -110 l 428 -110 l 428 -233 l 621 -233 l 621 471 l 428 471 l 428 350 l 304 350 l 304 -17 l 124 -17 l 124 669 l 83 669 l 83 838 l 124 838 l 124 882 l 304 882 l 304 838 l 442 838 l 442 669 l 304 669 l 304 515 l 372 515 l 372 638 l 676 638 l 676 515 l 800 515 l 800 -278 l 676 -278 l 676 -401 l 372 -401 z "},"Α":{"ha":838,"x_min":85,"x_max":753,"o":"m 85 -15 l 85 649 l 207 649 l 207 767 l 329 767 l 329 886 l 507 886 l 507 767 l 629 767 l 629 649 l 753 649 l 753 -15 l 575 -15 l 575 222 l 261 222 l 261 -15 l 85 -15 m 261 413 l 575 413 l 575 578 l 453 578 l 453 696 l 383 696 l 383 578 l 261 578 l 261 413 z "},"Β":{"ha":838,"x_min":85,"x_max":753,"o":"m 207 -15 l 207 103 l 85 103 l 85 767 l 207 767 l 207 886 l 629 886 l 629 767 l 753 767 l 753 460 l 629 460 l 629 413 l 753 413 l 753 103 l 629 103 l 629 -15 l 207 -15 m 261 174 l 575 174 l 575 342 l 329 342 l 329 529 l 575 529 l 575 696 l 261 696 l 261 174 z "},"Γ":{"ha":714,"x_min":85,"x_max":629,"o":"m 85 -15 l 85 886 l 629 886 l 629 696 l 261 696 l 261 -15 l 85 -15 z "},"Ε":{"ha":838,"x_min":85,"x_max":753,"o":"m 207 -15 l 207 103 l 85 103 l 85 767 l 207 767 l 207 886 l 629 886 l 629 767 l 753 767 l 753 578 l 575 578 l 575 696 l 261 696 l 261 529 l 507 529 l 507 342 l 261 342 l 261 174 l 575 174 l 575 293 l 753 293 l 753 103 l 629 103 l 629 -15 l 207 -15 z "},"Ζ":{"ha":838,"x_min":85,"x_max":753,"o":"m 207 -15 l 207 103 l 85 103 l 85 413 l 207 413 l 207 529 l 575 529 l 575 696 l 261 696 l 261 578 l 85 578 l 85 886 l 629 886 l 629 767 l 753 767 l 753 460 l 629 460 l 629 342 l 261 342 l 261 174 l 575 174 l 575 293 l 753 293 l 753 -15 l 207 -15 z "},"Η":{"ha":838,"x_min":85,"x_max":753,"o":"m 85 -15 l 85 886 l 261 886 l 261 529 l 329 529 l 329 649 l 507 649 l 507 529 l 575 529 l 575 886 l 753 886 l 753 -15 l 575 -15 l 575 342 l 261 342 l 261 -15 l 85 -15 z "},"Θ":{"ha":838,"x_min":85,"x_max":753,"o":"m 207 -15 l 207 103 l 85 103 l 85 767 l 207 767 l 207 886 l 629 886 l 629 767 l 753 767 l 753 103 l 629 103 l 629 -15 l 207 -15 m 261 174 l 575 174 l 575 696 l 261 696 l 261 174 m 304 353 l 304 496 l 533 496 l 533 353 l 304 353 z "},"Ι":{"ha":592,"x_min":85,"x_max":507,"o":"m 85 -15 l 85 174 l 207 174 l 207 696 l 85 696 l 85 886 l 507 886 l 507 696 l 383 696 l 383 174 l 507 174 l 507 -15 l 85 -15 z "},"Κ":{"ha":838,"x_min":85,"x_max":753,"o":"m 85 -15 l 85 767 l 207 767 l 207 886 l 383 886 l 383 696 l 261 696 l 261 529 l 329 529 l 329 649 l 453 649 l 453 767 l 575 767 l 575 886 l 753 886 l 753 696 l 629 696 l 629 578 l 507 578 l 507 460 l 383 460 l 383 413 l 507 413 l 507 293 l 629 293 l 629 174 l 753 174 l 753 -15 l 575 -15 l 575 103 l 453 103 l 453 222 l 329 222 l 329 342 l 261 342 l 261 -15 l 85 -15 z "},"Λ":{"ha":838,"x_min":85,"x_max":753,"o":"m 85 -15 l 85 529 l 207 529 l 207 768 l 329 768 l 329 886 l 507 886 l 507 768 l 629 768 l 629 529 l 753 529 l 753 -15 l 575 -15 l 575 460 l 453 460 l 453 697 l 383 697 l 383 460 l 261 460 l 261 -15 l 85 -15 z "},"Μ":{"ha":1082,"x_min":85,"x_max":997,"o":"m 85 -15 l 85 767 l 207 767 l 207 886 l 383 886 l 383 767 l 507 767 l 507 529 l 575 529 l 575 767 l 699 767 l 699 886 l 876 886 l 876 767 l 997 767 l 997 -15 l 822 -15 l 822 696 l 753 696 l 753 460 l 629 460 l 629 103 l 453 103 l 453 460 l 329 460 l 329 696 l 261 696 l 261 -15 l 85 -15 z "},"μ":{"ha":1082,"x_min":85,"x_max":997,"o":"m 85 -15 l 85 767 l 207 767 l 207 886 l 383 886 l 383 767 l 507 767 l 507 529 l 575 529 l 575 767 l 699 767 l 699 886 l 876 886 l 876 767 l 997 767 l 997 -15 l 822 -15 l 822 696 l 753 696 l 753 460 l 629 460 l 629 103 l 453 103 l 453 460 l 329 460 l 329 696 l 261 696 l 261 -15 l 85 -15 z "},"Ν":{"ha":838,"x_min":85,"x_max":753,"o":"m 85 -15 l 85 886 l 261 886 l 261 767 l 383 767 l 383 649 l 507 649 l 507 293 l 575 293 l 575 886 l 753 886 l 753 -15 l 575 -15 l 575 103 l 453 103 l 453 222 l 329 222 l 329 578 l 261 578 l 261 -15 l 85 -15 z "},"Ξ":{"ha":590,"x_min":85,"x_max":506,"o":"m 85 696 l 85 886 l 506 886 l 506 696 l 85 696 m 85 -15 l 85 175 l 506 175 l 506 -15 l 85 -15 m 85 340 l 85 529 l 506 529 l 506 340 l 85 340 z "},"Ο":{"ha":838,"x_min":85,"x_max":753,"o":"m 207 -15 l 207 103 l 85 103 l 85 767 l 207 767 l 207 886 l 629 886 l 629 767 l 753 767 l 753 103 l 629 103 l 629 -15 l 207 -15 m 261 174 l 575 174 l 575 696 l 261 696 l 261 174 z "},"Π":{"ha":838,"x_min":85,"x_max":753,"o":"m 85 -15 l 85 883 l 753 883 l 753 -15 l 575 -15 l 575 693 l 261 693 l 261 -15 l 85 -15 z "},"Ρ":{"ha":838,"x_min":85,"x_max":753,"o":"m 85 -15 l 85 767 l 207 767 l 207 886 l 629 886 l 629 767 l 753 767 l 753 342 l 629 342 l 629 222 l 261 222 l 261 -15 l 85 -15 m 261 413 l 575 413 l 575 696 l 261 696 l 261 413 z "},"Σ":{"ha":1082,"x_min":85,"x_max":997,"o":"m 207 -17 l 207 103 l 85 103 l 85 292 l 207 292 l 207 411 l 453 411 l 453 458 l 207 458 l 207 576 l 85 576 l 85 767 l 207 767 l 207 885 l 997 885 l 997 696 l 261 696 l 261 647 l 507 647 l 507 528 l 876 528 l 876 340 l 507 340 l 507 221 l 261 221 l 261 174 l 997 174 l 997 -17 l 207 -17 z "},"Τ":{"ha":838,"x_min":85,"x_max":753,"o":"m 329 -15 l 329 696 l 261 696 l 261 578 l 85 578 l 85 767 l 207 767 l 207 886 l 629 886 l 629 767 l 753 767 l 753 578 l 575 578 l 575 696 l 507 696 l 507 -15 l 329 -15 z "},"Υ":{"ha":838,"x_min":85,"x_max":753,"o":"m 329 -15 l 329 460 l 207 460 l 207 578 l 85 578 l 85 886 l 261 886 l 261 649 l 383 649 l 383 529 l 453 529 l 453 649 l 575 649 l 575 886 l 753 886 l 753 578 l 629 578 l 629 460 l 507 460 l 507 -15 l 329 -15 z "},"Φ":{"ha":838,"x_min":85,"x_max":753,"o":"m 325 -14 l 325 89 l 207 89 l 207 207 l 85 207 l 85 635 l 207 635 l 207 753 l 325 753 l 325 888 l 503 888 l 503 753 l 629 753 l 629 635 l 753 635 l 753 207 l 629 207 l 629 89 l 503 89 l 503 -14 l 325 -14 m 379 160 l 449 160 l 449 207 l 379 207 l 379 160 m 261 278 l 325 278 l 325 564 l 261 564 l 261 278 m 503 278 l 575 278 l 575 564 l 503 564 l 503 278 m 379 635 l 449 635 l 449 682 l 379 682 l 379 635 z "},"Χ":{"ha":838,"x_min":85,"x_max":753,"o":"m 85 -15 l 85 174 l 207 174 l 207 413 l 329 413 l 329 460 l 207 460 l 207 696 l 85 696 l 85 886 l 261 886 l 261 767 l 383 767 l 383 529 l 453 529 l 453 767 l 575 767 l 575 886 l 753 886 l 753 696 l 629 696 l 629 460 l 507 460 l 507 413 l 629 413 l 629 174 l 753 174 l 753 -15 l 575 -15 l 575 103 l 453 103 l 453 342 l 383 342 l 383 103 l 261 103 l 261 -15 l 85 -15 z "},"Ψ":{"ha":838,"x_min":85,"x_max":753,"o":"m 325 -15 l 325 271 l 207 271 l 207 389 l 85 389 l 85 883 l 261 883 l 261 460 l 325 460 l 325 886 l 503 886 l 503 460 l 575 460 l 575 883 l 753 883 l 753 389 l 629 389 l 629 271 l 503 271 l 503 -15 l 325 -15 z "},"Ά":{"ha":838,"x_min":85,"x_max":753,"o":"m 85 -15 l 85 649 l 207 649 l 207 767 l 329 767 l 329 886 l 507 886 l 507 767 l 629 767 l 629 649 l 753 649 l 753 -15 l 575 -15 l 575 222 l 261 222 l 261 -15 l 85 -15 m 261 413 l 575 413 l 575 578 l 453 578 l 453 696 l 383 696 l 383 578 l 261 578 l 261 413 m 358 907 l 358 1019 l 497 1157 l 593 1157 l 593 1044 l 456 907 l 358 907 z "},"Έ":{"ha":838,"x_min":85,"x_max":753,"o":"m 207 -15 l 207 103 l 85 103 l 85 767 l 207 767 l 207 886 l 629 886 l 629 767 l 753 767 l 753 578 l 575 578 l 575 696 l 261 696 l 261 529 l 507 529 l 507 342 l 261 342 l 261 174 l 575 174 l 575 293 l 753 293 l 753 103 l 629 103 l 629 -15 l 207 -15 m 358 907 l 358 1019 l 497 1157 l 593 1157 l 593 1044 l 456 907 l 358 907 z "},"Ή":{"ha":838,"x_min":85,"x_max":753,"o":"m 85 -15 l 85 886 l 261 886 l 261 529 l 329 529 l 329 649 l 507 649 l 507 529 l 575 529 l 575 886 l 753 886 l 753 -15 l 575 -15 l 575 342 l 261 342 l 261 -15 l 85 -15 m 361 907 l 361 1097 l 476 1097 l 476 907 l 361 907 z "},"Ί":{"ha":592,"x_min":85,"x_max":507,"o":"m 85 -15 l 85 174 l 207 174 l 207 696 l 85 696 l 85 886 l 507 886 l 507 696 l 383 696 l 383 174 l 507 174 l 507 -15 l 85 -15 m 242 907 l 242 1097 l 356 1097 l 356 907 l 242 907 z "},"ί":{"ha":592,"x_min":85,"x_max":507,"o":"m 85 -15 l 85 174 l 207 174 l 207 696 l 85 696 l 85 886 l 507 886 l 507 696 l 383 696 l 383 174 l 507 174 l 507 -15 l 85 -15 m 242 907 l 242 1097 l 356 1097 l 356 907 l 242 907 z "},"Ό":{"ha":838,"x_min":85,"x_max":753,"o":"m 207 -15 l 207 103 l 85 103 l 85 767 l 207 767 l 207 886 l 629 886 l 629 767 l 753 767 l 753 103 l 629 103 l 629 -15 l 207 -15 m 261 174 l 575 174 l 575 696 l 261 696 l 261 174 m 361 907 l 361 1097 l 476 1097 l 476 907 l 361 907 z "},"Ύ":{"ha":838,"x_min":85,"x_max":753,"o":"m 329 -15 l 329 460 l 207 460 l 207 578 l 85 578 l 85 886 l 261 886 l 261 649 l 383 649 l 383 529 l 453 529 l 453 649 l 575 649 l 575 886 l 753 886 l 753 578 l 629 578 l 629 460 l 507 460 l 507 -15 l 329 -15 m 361 907 l 361 1097 l 476 1097 l 476 907 l 361 907 z "},"Ώ":{"ha":832,"x_min":0,"x_max":829,"o":"m 0 -17 l 0 174 l 82 174 l 82 767 l 204 767 l 204 885 l 626 885 l 626 767 l 750 767 l 750 174 l 829 174 l 829 -17 l 572 -17 l 572 696 l 258 696 l 258 -17 l 0 -17 m 356 907 l 356 1019 l 494 1157 l 590 1157 l 590 1044 l 453 907 l 356 907 z "},"Ϊ":{"ha":590,"x_min":65,"x_max":531,"o":"m 83 -15 l 83 174 l 206 174 l 206 696 l 83 696 l 83 886 l 506 886 l 506 696 l 382 696 l 382 174 l 506 174 l 506 -15 l 83 -15 m 65 922 l 65 1113 l 242 1113 l 242 922 l 65 922 m 351 922 l 351 1113 l 531 1113 l 531 922 l 351 922 z "},"ϊ":{"ha":590,"x_min":65,"x_max":531,"o":"m 83 -15 l 83 174 l 206 174 l 206 696 l 83 696 l 83 886 l 506 886 l 506 696 l 382 696 l 382 174 l 506 174 l 506 -15 l 83 -15 m 65 922 l 65 1113 l 242 1113 l 242 922 l 65 922 m 351 922 l 351 1113 l 531 1113 l 531 922 l 351 922 z "},"Ϋ":{"ha":838,"x_min":85,"x_max":753,"o":"m 329 -15 l 329 460 l 207 460 l 207 578 l 85 578 l 85 886 l 261 886 l 261 649 l 383 649 l 383 529 l 453 529 l 453 649 l 575 649 l 575 886 l 753 886 l 753 578 l 629 578 l 629 460 l 507 460 l 507 -15 l 329 -15 m 228 907 l 228 1097 l 342 1097 l 342 907 l 228 907 m 496 907 l 496 1097 l 610 1097 l 610 907 l 496 907 z "},"ϋ":{"ha":838,"x_min":85,"x_max":753,"o":"m 329 -15 l 329 460 l 207 460 l 207 578 l 85 578 l 85 886 l 261 886 l 261 649 l 383 649 l 383 529 l 453 529 l 453 649 l 575 649 l 575 886 l 753 886 l 753 578 l 629 578 l 629 460 l 507 460 l 507 -15 l 329 -15 m 228 907 l 228 1097 l 342 1097 l 342 907 l 228 907 m 496 907 l 496 1097 l 610 1097 l 610 907 l 496 907 z "},"α":{"ha":838,"x_min":85,"x_max":753,"o":"m 575 -103 l 575 -15 l 207 -15 l 207 103 l 85 103 l 85 529 l 207 529 l 207 649 l 629 649 l 629 529 l 753 529 l 753 -103 l 575 -103 m 261 174 l 575 174 l 575 460 l 261 460 l 261 174 z "},"β":{"ha":838,"x_min":85,"x_max":753,"o":"m 85 -253 l 85 886 l 629 886 l 629 767 l 753 767 l 753 460 l 629 460 l 629 413 l 753 413 l 753 103 l 629 103 l 629 -15 l 329 -15 l 329 174 l 575 174 l 575 342 l 329 342 l 329 529 l 575 529 l 575 696 l 261 696 l 261 -253 l 85 -253 z "},"γ":{"ha":824,"x_min":69,"x_max":738,"o":"m 315 -15 l 315 271 l 193 271 l 193 510 l 69 510 l 69 649 l 246 649 l 246 581 l 368 581 l 368 342 l 438 342 l 438 581 l 560 581 l 560 649 l 738 649 l 738 510 l 614 510 l 614 271 l 492 271 l 492 -15 l 315 -15 z "},"δ":{"ha":838,"x_min":85,"x_max":753,"o":"m 207 -15 l 207 103 l 85 103 l 85 529 l 207 529 l 207 649 l 325 649 l 325 767 l 449 767 l 449 886 l 625 886 l 625 696 l 503 696 l 503 649 l 629 649 l 629 529 l 753 529 l 753 103 l 629 103 l 629 -15 l 207 -15 m 261 174 l 575 174 l 575 460 l 261 460 l 261 174 z "},"ε":{"ha":838,"x_min":85,"x_max":753,"o":"m 207 -15 l 207 103 l 85 103 l 85 529 l 207 529 l 207 649 l 629 649 l 629 529 l 753 529 l 753 342 l 575 342 l 575 460 l 261 460 l 261 413 l 507 413 l 507 222 l 261 222 l 261 174 l 575 174 l 575 294 l 753 294 l 753 104 l 629 104 l 629 -15 l 207 -15 z "},"ζ":{"ha":838,"x_min":85,"x_max":753,"o":"m 451 -247 l 451 -60 l 575 -60 l 575 -15 l 207 -15 l 207 104 l 85 104 l 85 413 l 207 413 l 207 529 l 575 529 l 575 697 l 207 697 l 207 886 l 629 886 l 629 768 l 753 768 l 753 460 l 629 460 l 629 342 l 261 342 l 261 175 l 575 175 l 575 293 l 753 293 l 753 -247 l 451 -247 z "},"η":{"ha":838,"x_min":85,"x_max":753,"o":"m 575 -253 l 575 460 l 261 460 l 261 -15 l 85 -15 l 85 649 l 629 649 l 629 529 l 753 529 l 753 -253 l 575 -253 z "},"θ":{"ha":838,"x_min":85,"x_max":753,"o":"m 207 -15 l 207 103 l 85 103 l 85 529 l 207 529 l 207 649 l 629 649 l 629 529 l 753 529 l 753 103 l 629 103 l 629 -15 l 207 -15 m 261 174 l 575 174 l 575 460 l 261 460 l 261 174 m 307 238 l 307 378 l 531 378 l 531 238 l 307 238 z "},"ι":{"ha":346,"x_min":85,"x_max":261,"o":"m 85 -15 l 85 649 l 261 649 l 261 -15 l 85 -15 m 85 696 l 85 886 l 261 886 l 261 696 l 85 696 z "},"κ":{"ha":838,"x_min":85,"x_max":753,"o":"m 85 -15 l 85 886 l 261 886 l 261 413 l 329 413 l 329 529 l 575 529 l 575 649 l 753 649 l 753 460 l 629 460 l 629 342 l 383 342 l 383 293 l 629 293 l 629 174 l 753 174 l 753 -15 l 575 -15 l 575 103 l 329 103 l 329 222 l 261 222 l 261 -15 l 85 -15 z "},"λ":{"ha":838,"x_min":85,"x_max":753,"o":"m 85 -15 l 85 293 l 207 293 l 207 413 l 329 413 l 329 886 l 507 886 l 507 413 l 629 413 l 629 293 l 753 293 l 753 -15 l 575 -15 l 575 222 l 453 222 l 453 342 l 383 342 l 383 222 l 261 222 l 261 -15 l 85 -15 z "},"ν":{"ha":824,"x_min":69,"x_max":738,"o":"m 315 -15 l 315 103 l 193 103 l 193 342 l 69 342 l 69 649 l 246 649 l 246 413 l 368 413 l 368 174 l 438 174 l 438 413 l 560 413 l 560 649 l 738 649 l 738 342 l 614 342 l 614 103 l 492 103 l 492 -15 l 315 -15 z "},"ξ":{"ha":835,"x_min":0,"x_max":750,"o":"m 326 -250 l 326 -62 l 572 -62 l 572 -15 l 204 -15 l 204 103 l 82 103 l 82 413 l 204 413 l 204 460 l 82 460 l 82 696 l 0 696 l 0 885 l 626 885 l 626 767 l 750 767 l 750 578 l 572 578 l 572 696 l 258 696 l 258 529 l 626 529 l 626 342 l 258 342 l 258 174 l 572 174 l 572 293 l 750 293 l 750 -250 l 326 -250 z "},"ο":{"ha":838,"x_min":85,"x_max":753,"o":"m 207 -15 l 207 103 l 85 103 l 85 529 l 207 529 l 207 649 l 629 649 l 629 529 l 753 529 l 753 103 l 629 103 l 629 -15 l 207 -15 m 261 174 l 575 174 l 575 460 l 261 460 l 261 174 z "},"π":{"ha":1328,"x_min":85,"x_max":1243,"o":"m 329 -15 l 329 458 l 261 458 l 261 340 l 85 340 l 85 528 l 207 528 l 207 647 l 629 647 l 629 528 l 699 528 l 699 647 l 1121 647 l 1121 528 l 1243 528 l 1243 340 l 1067 340 l 1067 458 l 997 458 l 997 -15 l 821 -15 l 821 458 l 753 458 l 753 340 l 575 340 l 575 458 l 507 458 l 507 -15 l 329 -15 z "},"ρ":{"ha":838,"x_min":85,"x_max":753,"o":"m 85 -246 l 85 529 l 207 529 l 207 649 l 629 649 l 629 529 l 753 529 l 753 103 l 629 103 l 629 -15 l 261 -15 l 261 -246 l 85 -246 m 261 174 l 575 174 l 575 460 l 261 460 l 261 174 z "},"σ":{"ha":835,"x_min":85,"x_max":831,"o":"m 207 -15 l 207 103 l 85 103 l 85 529 l 207 529 l 207 649 l 831 649 l 831 460 l 753 460 l 753 103 l 629 103 l 629 -15 l 207 -15 m 261 174 l 575 174 l 575 460 l 261 460 l 261 174 z "},"τ":{"ha":838,"x_min":85,"x_max":753,"o":"m 329 -15 l 329 460 l 261 460 l 261 342 l 85 342 l 85 529 l 207 529 l 207 649 l 629 649 l 629 529 l 753 529 l 753 342 l 575 342 l 575 460 l 507 460 l 507 -15 l 329 -15 z "},"υ":{"ha":838,"x_min":85,"x_max":753,"o":"m 207 -15 l 207 103 l 85 103 l 85 649 l 261 649 l 261 174 l 575 174 l 575 649 l 753 649 l 753 103 l 629 103 l 629 -15 l 207 -15 m 358 674 l 358 788 l 497 924 l 593 924 l 593 811 l 456 674 l 358 674 z "},"φ":{"ha":838,"x_min":85,"x_max":753,"o":"m 325 -15 l 325 104 l 207 104 l 207 222 l 85 222 l 85 649 l 207 649 l 207 768 l 325 768 l 325 886 l 503 886 l 503 768 l 629 768 l 629 649 l 753 649 l 753 222 l 629 222 l 629 104 l 503 104 l 503 -15 l 325 -15 m 261 293 l 325 293 l 325 578 l 261 578 l 261 293 m 503 293 l 575 293 l 575 578 l 503 578 l 503 293 z "},"χ":{"ha":838,"x_min":85,"x_max":753,"o":"m 85 -15 l 85 174 l 207 174 l 207 293 l 329 293 l 329 342 l 207 342 l 207 460 l 85 460 l 85 649 l 261 649 l 261 529 l 383 529 l 383 413 l 453 413 l 453 529 l 575 529 l 575 649 l 753 649 l 753 460 l 629 460 l 629 342 l 507 342 l 507 293 l 629 293 l 629 174 l 753 174 l 753 -15 l 575 -15 l 575 103 l 453 103 l 453 222 l 383 222 l 383 103 l 261 103 l 261 -15 l 85 -15 z "},"ψ":{"ha":838,"x_min":85,"x_max":753,"o":"m 325 -15 l 325 103 l 207 103 l 207 221 l 85 221 l 85 767 l 261 767 l 261 292 l 325 292 l 325 886 l 503 886 l 503 292 l 575 292 l 575 767 l 753 767 l 753 221 l 629 221 l 629 103 l 503 103 l 503 -15 l 325 -15 z "},"ω":{"ha":1082,"x_min":85,"x_max":997,"o":"m 85 -15 l 85 649 l 261 649 l 261 174 l 453 174 l 453 649 l 629 649 l 629 174 l 822 174 l 822 649 l 997 649 l 997 103 l 876 103 l 876 -15 l 575 -15 l 575 103 l 507 103 l 507 -15 l 85 -15 z "},"ύ":{"ha":838,"x_min":85,"x_max":753,"o":"m 207 -15 l 207 103 l 85 103 l 85 649 l 261 649 l 261 174 l 575 174 l 575 649 l 753 649 l 753 103 l 629 103 l 629 -15 l 207 -15 m 361 693 l 361 883 l 476 883 l 476 693 l 361 693 z "},"ό":{"ha":838,"x_min":85,"x_max":753,"o":"m 207 -15 l 207 103 l 85 103 l 85 529 l 207 529 l 207 649 l 629 649 l 629 529 l 753 529 l 753 103 l 629 103 l 629 -15 l 207 -15 m 261 174 l 575 174 l 575 460 l 261 460 l 261 174 m 361 693 l 361 883 l 476 883 l 476 693 l 361 693 z "},"ώ":{"ha":1082,"x_min":85,"x_max":997,"o":"m 85 -15 l 85 649 l 261 649 l 261 174 l 453 174 l 453 649 l 629 649 l 629 174 l 822 174 l 822 649 l 997 649 l 997 103 l 876 103 l 876 -15 l 575 -15 l 575 103 l 507 103 l 507 -15 l 85 -15 m 483 693 l 483 883 l 596 883 l 596 693 l 483 693 z "},"ά":{"ha":838,"x_min":85,"x_max":753,"o":"m 575 -103 l 575 -15 l 207 -15 l 207 103 l 85 103 l 85 529 l 207 529 l 207 649 l 629 649 l 629 529 l 753 529 l 753 -103 l 575 -103 m 261 174 l 575 174 l 575 460 l 261 460 l 261 174 m 361 693 l 361 883 l 476 883 l 476 693 l 361 693 z "},"έ":{"ha":838,"x_min":85,"x_max":753,"o":"m 207 -15 l 207 103 l 85 103 l 85 529 l 207 529 l 207 649 l 629 649 l 629 529 l 753 529 l 753 342 l 575 342 l 575 460 l 261 460 l 261 413 l 507 413 l 507 222 l 261 222 l 261 174 l 575 174 l 575 294 l 753 294 l 753 104 l 629 104 l 629 -15 l 207 -15 m 361 693 l 361 883 l 476 883 l 476 693 l 361 693 z "},"ή":{"ha":838,"x_min":85,"x_max":753,"o":"m 575 -253 l 575 460 l 261 460 l 261 -15 l 85 -15 l 85 649 l 629 649 l 629 529 l 753 529 l 753 -253 l 575 -253 m 361 693 l 361 883 l 476 883 l 476 693 l 361 693 z "},"½":{"ha":1151,"x_min":83,"x_max":1076,"o":"m 231 -17 l 231 242 l 339 242 l 339 454 l 447 454 l 447 561 l 556 561 l 556 775 l 667 775 l 667 882 l 829 882 l 829 624 l 721 624 l 721 515 l 611 515 l 611 303 l 503 303 l 503 196 l 393 196 l 393 -17 l 231 -17 m 211 399 l 211 774 l 201 774 l 201 711 l 83 711 l 83 818 l 147 818 l 147 882 l 265 882 l 265 818 l 331 818 l 331 399 l 211 399 m 768 -18 l 768 43 l 704 43 l 704 282 l 768 282 l 768 346 l 960 346 l 960 425 l 822 425 l 822 361 l 704 361 l 704 469 l 768 469 l 768 533 l 1014 533 l 1014 469 l 1076 469 l 1076 300 l 1014 300 l 1014 236 l 822 236 l 822 89 l 960 89 l 960 219 l 1076 219 l 1076 43 l 1014 43 l 1014 -18 l 768 -18 z "},"⅓":{"ha":1317,"x_min":83,"x_max":1233,"o":"m 299 -17 l 299 242 l 407 242 l 407 454 l 517 454 l 517 561 l 624 561 l 624 775 l 735 775 l 735 882 l 897 882 l 897 624 l 790 624 l 790 515 l 679 515 l 679 303 l 571 303 l 571 196 l 461 196 l 461 -17 l 299 -17 m 211 399 l 211 774 l 201 774 l 201 711 l 83 711 l 83 818 l 147 818 l 147 882 l 265 882 l 265 818 l 331 818 l 331 399 l 211 399 m 924 -18 l 924 44 l 858 44 l 858 153 l 979 153 l 979 90 l 1113 90 l 1113 238 l 924 238 l 924 346 l 1113 346 l 1113 424 l 979 424 l 979 361 l 858 361 l 858 469 l 924 469 l 924 533 l 1167 533 l 1167 469 l 1233 469 l 1233 300 l 1167 300 l 1167 283 l 1233 283 l 1233 44 l 1167 44 l 1167 -18 l 924 -18 z "},"⅔":{"ha":1300,"x_min":83,"x_max":1274,"o":"m 365 -17 l 365 242 l 475 242 l 475 454 l 583 454 l 583 561 l 693 561 l 693 775 l 801 775 l 801 882 l 967 882 l 967 624 l 857 624 l 857 515 l 747 515 l 747 303 l 638 303 l 638 196 l 529 196 l 529 -17 l 365 -17 m 147 396 l 147 457 l 83 457 l 83 696 l 147 696 l 147 760 l 339 760 l 339 839 l 201 839 l 201 775 l 83 775 l 83 885 l 147 885 l 147 946 l 393 946 l 393 885 l 457 885 l 457 714 l 393 714 l 393 650 l 201 650 l 201 503 l 339 503 l 339 567 l 457 567 l 457 457 l 393 457 l 393 396 l 147 396 m 965 -18 l 965 44 l 899 44 l 899 153 l 1019 153 l 1019 90 l 1154 90 l 1154 238 l 965 238 l 965 346 l 1154 346 l 1154 424 l 1019 424 l 1019 361 l 899 361 l 899 469 l 965 469 l 965 533 l 1208 533 l 1208 469 l 1274 469 l 1274 300 l 1208 300 l 1208 283 l 1274 283 l 1274 44 l 1208 44 l 1208 -18 l 965 -18 z "},"¼":{"ha":1231,"x_min":85,"x_max":1146,"o":"m 296 -15 l 296 263 l 403 263 l 403 469 l 511 469 l 511 574 l 618 574 l 618 782 l 728 782 l 728 886 l 888 886 l 888 608 l 781 608 l 781 503 l 672 503 l 672 296 l 565 296 l 565 192 l 457 192 l 457 -15 l 296 -15 m 210 389 l 210 754 l 200 754 l 200 693 l 85 693 l 85 824 l 146 824 l 146 886 l 264 886 l 264 824 l 328 824 l 328 389 l 210 389 m 1028 -17 l 1028 106 l 776 106 l 776 299 l 840 299 l 840 358 l 903 358 l 903 419 l 965 419 l 965 481 l 1146 481 l 1146 -17 l 1028 -17 m 957 236 l 1028 236 l 1028 350 l 1019 350 l 1019 288 l 979 288 l 978 288 l 957 288 l 957 236 z "},"¾":{"ha":1363,"x_min":83,"x_max":1267,"o":"m 407 -17 l 407 242 l 517 242 l 517 454 l 624 454 l 624 561 l 733 561 l 733 775 l 843 775 l 843 882 l 1007 882 l 1007 624 l 897 624 l 897 515 l 789 515 l 789 303 l 679 303 l 679 196 l 571 196 l 571 -17 l 407 -17 m 149 331 l 149 394 l 83 394 l 83 501 l 203 501 l 203 440 l 338 440 l 338 519 l 149 519 l 149 626 l 338 626 l 338 772 l 203 772 l 203 711 l 83 711 l 83 818 l 149 818 l 149 882 l 392 882 l 392 818 l 457 818 l 457 581 l 392 581 l 392 565 l 457 565 l 457 394 l 392 394 l 392 331 l 149 331 m 1150 -18 l 1150 107 l 893 107 l 893 278 l 958 278 l 958 340 l 1021 340 l 1021 401 l 1085 401 l 1085 465 l 1267 465 l 1267 -18 l 1150 -18 m 1011 215 l 1150 215 l 1150 357 l 1140 357 l 1140 294 l 1075 294 l 1075 232 l 1011 232 l 1011 215 z "},"⅛":{"ha":1304,"x_min":83,"x_max":1221,"o":"m 299 -17 l 299 242 l 407 242 l 407 454 l 517 454 l 517 561 l 624 561 l 624 775 l 735 775 l 735 882 l 897 882 l 897 624 l 790 624 l 790 515 l 679 515 l 679 303 l 571 303 l 571 196 l 461 196 l 461 -17 l 299 -17 m 211 399 l 211 774 l 201 774 l 201 711 l 83 711 l 83 818 l 147 818 l 147 882 l 265 882 l 265 818 l 331 818 l 331 399 l 211 399 m 908 -18 l 908 44 l 844 44 l 844 269 l 908 269 l 908 286 l 844 286 l 844 457 l 908 457 l 908 521 l 1156 521 l 1156 457 l 1221 457 l 1221 286 l 1156 286 l 1156 269 l 1221 269 l 1221 44 l 1156 44 l 1156 -18 l 908 -18 m 964 90 l 1100 90 l 1100 224 l 964 224 l 964 90 m 964 332 l 1100 332 l 1100 413 l 964 413 l 964 332 z "},"⅜":{"ha":1399,"x_min":83,"x_max":1315,"o":"m 393 -17 l 393 242 l 503 242 l 503 454 l 611 454 l 611 561 l 719 561 l 719 775 l 829 775 l 829 882 l 993 882 l 993 624 l 885 624 l 885 515 l 775 515 l 775 303 l 665 303 l 665 196 l 557 196 l 557 -17 l 393 -17 m 149 331 l 149 394 l 83 394 l 83 501 l 203 501 l 203 440 l 338 440 l 338 519 l 149 519 l 149 626 l 338 626 l 338 772 l 203 772 l 203 711 l 83 711 l 83 818 l 149 818 l 149 882 l 392 882 l 392 818 l 457 818 l 457 581 l 392 581 l 392 565 l 457 565 l 457 394 l 392 394 l 392 331 l 149 331 m 1060 90 l 1196 90 l 1196 238 l 1060 238 l 1060 90 m 1004 -18 l 1004 44 l 940 44 l 940 283 l 1004 283 l 1004 300 l 940 300 l 940 471 l 1004 471 l 1004 533 l 1251 533 l 1251 471 l 1315 471 l 1315 300 l 1251 300 l 1251 283 l 1315 283 l 1315 44 l 1251 44 l 1251 -18 l 1004 -18 m 1060 346 l 1196 346 l 1196 426 l 1060 426 l 1060 346 z "},"⅝":{"ha":1426,"x_min":83,"x_max":1343,"o":"m 435 -17 l 435 242 l 542 242 l 542 454 l 651 454 l 651 561 l 760 561 l 760 775 l 871 775 l 871 882 l 1033 882 l 1033 624 l 925 624 l 925 515 l 814 515 l 814 303 l 707 303 l 707 196 l 597 196 l 597 -17 l 435 -17 m 147 343 l 147 406 l 83 406 l 83 514 l 201 514 l 201 451 l 339 451 l 339 468 l 211 468 l 211 532 l 147 532 l 147 593 l 83 593 l 83 818 l 147 818 l 147 882 l 393 882 l 393 818 l 458 818 l 458 593 l 339 593 l 339 774 l 201 774 l 201 639 l 265 639 l 265 578 l 393 578 l 393 514 l 458 514 l 458 406 l 393 406 l 393 343 l 147 343 m 1085 90 l 1224 90 l 1224 238 l 1085 238 l 1085 90 m 1031 -18 l 1031 44 l 968 44 l 968 283 l 1031 283 l 1031 300 l 968 300 l 968 471 l 1031 471 l 1031 533 l 1276 533 l 1276 471 l 1343 471 l 1343 300 l 1276 300 l 1276 283 l 1343 283 l 1343 44 l 1276 44 l 1276 -18 l 1031 -18 m 1085 346 l 1224 346 l 1224 426 l 1085 426 l 1085 346 z "},"⅞":{"ha":1385,"x_min":85,"x_max":1300,"o":"m 457 -15 l 457 263 l 564 263 l 564 469 l 672 469 l 672 574 l 779 574 l 779 782 l 888 782 l 888 886 l 1049 886 l 1049 608 l 942 608 l 942 503 l 832 503 l 832 296 l 726 296 l 726 192 l 618 192 l 618 -15 l 457 -15 m 336 388 l 336 754 l 200 754 l 200 693 l 85 693 l 85 824 l 146 824 l 146 886 l 390 886 l 390 824 l 454 824 l 454 388 l 336 388 m 992 -17 l 992 44 l 929 44 l 929 228 l 929 239 l 929 249 l 929 268 l 929 421 l 992 421 l 992 482 l 1235 482 l 1235 421 l 1300 421 l 1300 238 l 1300 232 l 1300 228 l 1300 197 l 1300 44 l 1235 44 l 1235 -17 l 992 -17 m 1046 115 l 1181 115 l 1181 167 l 1046 167 l 1046 115 m 1046 299 l 1181 299 l 1181 350 l 1046 350 l 1046 299 z "},"₀":{"ha":538,"x_min":85,"x_max":453,"o":"m 146 -17 l 146 44 l 85 44 l 85 419 l 146 419 l 146 481 l 390 481 l 390 419 l 453 419 l 453 44 l 390 44 l 390 -17 l 146 -17 m 200 115 l 336 115 l 336 350 l 200 350 l 200 115 z "},"₁":{"ha":413,"x_min":85,"x_max":328,"o":"m 210 -17 l 210 350 l 200 350 l 200 288 l 85 288 l 85 419 l 146 419 l 146 481 l 264 481 l 264 419 l 328 419 l 328 -17 l 210 -17 z "},"₂":{"ha":575,"x_min":83,"x_max":457,"o":"m 147 -18 l 147 43 l 83 43 l 83 282 l 147 282 l 147 346 l 339 346 l 339 425 l 201 425 l 201 361 l 83 361 l 83 469 l 147 469 l 147 533 l 393 533 l 393 469 l 457 469 l 457 300 l 393 300 l 393 236 l 201 236 l 201 89 l 339 89 l 339 153 l 457 153 l 457 43 l 393 43 l 393 -18 l 147 -18 z "},"₃":{"ha":575,"x_min":83,"x_max":457,"o":"m 149 -18 l 149 44 l 83 44 l 83 153 l 203 153 l 203 90 l 338 90 l 338 238 l 149 238 l 149 346 l 338 346 l 338 424 l 203 424 l 203 361 l 83 361 l 83 469 l 149 469 l 149 533 l 392 533 l 392 469 l 457 469 l 457 300 l 392 300 l 392 283 l 457 283 l 457 44 l 392 44 l 392 -18 l 149 -18 z "},"₄":{"ha":539,"x_min":85,"x_max":454,"o":"m 336 -17 l 336 106 l 85 106 l 85 299 l 146 299 l 146 360 l 210 360 l 210 421 l 275 421 l 275 482 l 454 482 l 454 -17 l 336 -17 m 264 238 l 336 238 l 336 350 l 329 350 l 329 289 l 297 289 l 281 289 l 264 289 l 264 238 z "},"₅":{"ha":576,"x_min":83,"x_max":458,"o":"m 147 -18 l 147 44 l 83 44 l 83 153 l 201 153 l 201 90 l 339 90 l 339 174 l 211 174 l 211 238 l 147 238 l 147 300 l 83 300 l 83 471 l 147 471 l 147 533 l 393 533 l 393 471 l 458 471 l 458 300 l 339 300 l 339 426 l 201 426 l 201 346 l 265 346 l 265 283 l 393 283 l 393 219 l 458 219 l 458 44 l 393 44 l 393 -18 l 147 -18 z "},"₆":{"ha":576,"x_min":83,"x_max":458,"o":"m 147 -18 l 147 44 l 83 44 l 83 471 l 147 471 l 147 533 l 393 533 l 393 471 l 458 471 l 458 363 l 339 363 l 339 426 l 201 426 l 201 346 l 393 346 l 393 283 l 458 283 l 458 44 l 393 44 l 393 -18 l 147 -18 m 201 90 l 339 90 l 339 238 l 201 238 l 201 90 z "},"₇":{"ha":539,"x_min":85,"x_max":454,"o":"m 336 -17 l 336 350 l 200 350 l 200 289 l 85 289 l 85 421 l 146 421 l 146 482 l 390 482 l 390 421 l 454 421 l 454 -17 l 336 -17 z "},"₈":{"ha":539,"x_min":85,"x_max":454,"o":"m 146 -17 l 146 44 l 85 44 l 85 228 l 85 233 l 85 238 l 85 268 l 85 421 l 146 421 l 146 482 l 390 482 l 390 421 l 454 421 l 454 238 l 454 233 l 454 228 l 454 197 l 454 44 l 390 44 l 390 -17 l 146 -17 m 200 115 l 336 115 l 336 167 l 200 167 l 200 115 m 200 299 l 336 299 l 336 350 l 200 350 l 200 299 z "},"₉":{"ha":576,"x_min":83,"x_max":458,"o":"m 147 -18 l 147 44 l 83 44 l 83 153 l 201 153 l 201 90 l 339 90 l 339 238 l 147 238 l 147 300 l 83 300 l 83 471 l 147 471 l 147 533 l 393 533 l 393 471 l 458 471 l 458 44 l 393 44 l 393 -18 l 147 -18 m 201 346 l 339 346 l 339 426 l 201 426 l 201 346 z "},"⁰":{"ha":538,"x_min":85,"x_max":453,"o":"m 146 389 l 146 450 l 85 450 l 85 824 l 146 824 l 146 886 l 390 886 l 390 824 l 453 824 l 453 450 l 390 450 l 390 389 l 146 389 m 200 521 l 336 521 l 336 754 l 200 754 l 200 521 z "},"¹":{"ha":413,"x_min":85,"x_max":328,"o":"m 210 389 l 210 754 l 200 754 l 200 693 l 85 693 l 85 824 l 146 824 l 146 886 l 264 886 l 264 824 l 328 824 l 328 389 l 210 389 z "},"²":{"ha":575,"x_min":83,"x_max":457,"o":"m 147 328 l 147 390 l 83 390 l 83 561 l 147 561 l 147 624 l 339 624 l 339 771 l 201 771 l 201 708 l 83 708 l 83 817 l 147 817 l 147 879 l 393 879 l 393 817 l 457 817 l 457 579 l 393 579 l 393 515 l 201 515 l 201 436 l 339 436 l 339 499 l 457 499 l 457 390 l 393 390 l 393 328 l 147 328 z "},"³":{"ha":575,"x_min":83,"x_max":457,"o":"m 149 331 l 149 394 l 83 394 l 83 501 l 203 501 l 203 440 l 338 440 l 338 519 l 149 519 l 149 626 l 338 626 l 338 772 l 203 772 l 203 711 l 83 711 l 83 818 l 149 818 l 149 882 l 392 882 l 392 818 l 457 818 l 457 581 l 392 581 l 392 565 l 457 565 l 457 394 l 392 394 l 392 331 l 149 331 z "},"⁴":{"ha":539,"x_min":85,"x_max":454,"o":"m 336 388 l 336 510 l 85 510 l 85 703 l 146 703 l 146 764 l 210 764 l 210 824 l 275 824 l 275 886 l 454 886 l 454 388 l 336 388 m 264 642 l 336 642 l 336 754 l 329 754 l 329 693 l 297 693 l 281 693 l 264 693 l 264 642 z "},"⁵":{"ha":576,"x_min":83,"x_max":458,"o":"m 147 329 l 147 393 l 83 393 l 83 500 l 201 500 l 201 439 l 339 439 l 339 454 l 211 454 l 211 518 l 147 518 l 147 579 l 83 579 l 83 818 l 147 818 l 147 882 l 393 882 l 393 818 l 458 818 l 458 647 l 339 647 l 339 774 l 201 774 l 201 625 l 265 625 l 265 564 l 393 564 l 393 500 l 458 500 l 458 393 l 393 393 l 393 329 l 147 329 z "},"⁶":{"ha":576,"x_min":83,"x_max":458,"o":"m 147 329 l 147 393 l 83 393 l 83 818 l 147 818 l 147 882 l 393 882 l 393 818 l 458 818 l 458 711 l 339 711 l 339 774 l 201 774 l 201 625 l 393 625 l 393 564 l 458 564 l 458 393 l 393 393 l 393 329 l 147 329 m 201 439 l 339 439 l 339 518 l 201 518 l 201 439 z "},"⁷":{"ha":539,"x_min":85,"x_max":454,"o":"m 336 388 l 336 754 l 200 754 l 200 693 l 85 693 l 85 824 l 146 824 l 146 886 l 390 886 l 390 824 l 454 824 l 454 388 l 336 388 z "},"⁸":{"ha":576,"x_min":83,"x_max":458,"o":"m 147 329 l 147 393 l 83 393 l 83 564 l 147 564 l 147 579 l 83 579 l 83 818 l 147 818 l 147 882 l 393 882 l 393 818 l 458 818 l 458 579 l 393 579 l 393 564 l 458 564 l 458 393 l 393 393 l 393 329 l 147 329 m 201 439 l 339 439 l 339 518 l 201 518 l 201 439 m 201 625 l 339 625 l 339 774 l 201 774 l 201 625 z "},"⁹":{"ha":576,"x_min":83,"x_max":458,"o":"m 147 329 l 147 393 l 83 393 l 83 500 l 201 500 l 201 439 l 339 439 l 339 518 l 147 518 l 147 579 l 83 579 l 83 818 l 147 818 l 147 882 l 393 882 l 393 818 l 458 818 l 458 393 l 393 393 l 393 329 l 147 329 m 201 625 l 339 625 l 339 774 l 201 774 l 201 625 z "}," ":{"ha":278,"x_min":0,"x_max":0,"o":""}," ":{"ha":278,"x_min":0,"x_max":0,"o":""},".":{"ha":346,"x_min":85,"x_max":261,"o":"m 85 0 l 85 190 l 261 190 l 261 0 l 85 0 z "},",":{"ha":407,"x_min":85,"x_max":322,"o":"m 146 -118 l 146 -57 l 146 -29 l 146 0 l 85 0 l 85 190 l 261 190 l 261 71 l 322 71 l 322 -57 l 261 -57 l 261 -118 l 146 -118 z "},":":{"ha":346,"x_min":85,"x_max":261,"o":"m 85 107 l 85 297 l 261 297 l 261 107 l 85 107 m 85 340 l 85 529 l 261 529 l 261 340 l 85 340 z "},";":{"ha":407,"x_min":85,"x_max":322,"o":"m 146 -11 l 146 54 l 146 78 l 146 107 l 85 107 l 85 297 l 261 297 l 261 178 l 322 178 l 322 49 l 261 49 l 261 -11 l 146 -11 m 85 340 l 85 529 l 261 529 l 261 340 l 85 340 z "},"…":{"ha":915,"x_min":85,"x_max":829,"o":"m 368 0 l 368 190 l 546 190 l 546 0 l 368 0 m 85 0 l 85 190 l 261 190 l 261 0 l 85 0 m 653 0 l 653 190 l 829 190 l 829 0 l 653 0 z "},"!":{"ha":346,"x_min":85,"x_max":261,"o":"m 85 222 l 85 886 l 261 886 l 261 222 l 85 222 m 85 -15 l 85 174 l 261 174 l 261 -15 l 85 -15 z "},"¡":{"ha":346,"x_min":85,"x_max":261,"o":"m 85 -15 l 85 649 l 261 649 l 261 -15 l 85 -15 m 85 697 l 85 886 l 261 886 l 261 697 l 85 697 z "},"?":{"ha":838,"x_min":85,"x_max":753,"o":"m 329 222 l 329 529 l 575 529 l 575 696 l 261 696 l 261 460 l 85 460 l 85 767 l 207 767 l 207 886 l 629 886 l 629 767 l 753 767 l 753 460 l 629 460 l 629 342 l 507 342 l 507 222 l 329 222 m 329 -15 l 329 174 l 507 174 l 507 -15 l 329 -15 z "},"¿":{"ha":838,"x_min":85,"x_max":753,"o":"m 207 -15 l 207 104 l 85 104 l 85 413 l 207 413 l 207 529 l 329 529 l 329 649 l 507 649 l 507 342 l 261 342 l 261 175 l 575 175 l 575 413 l 753 413 l 753 104 l 629 104 l 629 -15 l 207 -15 m 329 697 l 329 886 l 507 886 l 507 697 l 329 697 z "},"·":{"ha":346,"x_min":85,"x_max":261,"o":"m 85 350 l 85 539 l 261 539 l 261 350 l 85 350 z "},"•":{"ha":394,"x_min":85,"x_max":310,"o":"m 85 326 l 85 563 l 310 563 l 310 326 l 85 326 z "},"*":{"ha":407,"x_min":85,"x_max":322,"o":"m 85 578 l 85 685 l 85 696 l 85 704 l 85 708 l 85 825 l 146 825 l 146 886 l 261 886 l 261 825 l 322 825 l 322 708 l 322 701 l 322 696 l 322 649 l 322 578 l 207 578 l 207 638 l 199 638 l 199 578 l 85 578 z "},"‼":{"ha":629,"x_min":85,"x_max":543,"o":"m 365 222 l 365 886 l 543 886 l 543 222 l 365 222 m 85 -15 l 85 174 l 261 174 l 261 -15 l 85 -15 m 365 -15 l 365 174 l 543 174 l 543 -15 l 365 -15 m 85 222 l 85 886 l 261 886 l 261 222 l 85 222 z "},"#":{"ha":961,"x_min":85,"x_max":876,"o":"m 207 -15 l 207 103 l 85 103 l 85 293 l 207 293 l 207 460 l 85 460 l 85 649 l 207 649 l 207 886 l 383 886 l 383 649 l 575 649 l 575 886 l 753 886 l 753 649 l 876 649 l 876 460 l 753 460 l 753 293 l 876 293 l 876 103 l 753 103 l 753 -15 l 575 -15 l 575 103 l 383 103 l 383 -15 l 207 -15 m 383 293 l 575 293 l 575 460 l 383 460 l 383 293 z "},"/":{"ha":761,"x_min":79,"x_max":682,"o":"m 79 -17 l 521 876 l 682 876 l 240 -17 l 79 -17 z "},"\\":{"ha":761,"x_min":79,"x_max":682,"o":"m 521 -17 l 79 876 l 240 876 l 682 -17 l 521 -17 z "},"-":{"ha":510,"x_min":39,"x_max":461,"o":"m 39 253 l 39 443 l 461 443 l 461 253 l 39 253 z "},"–":{"ha":590,"x_min":85,"x_max":506,"o":"m 85 317 l 85 507 l 506 507 l 506 317 l 85 317 z "},"—":{"ha":725,"x_min":85,"x_max":639,"o":"m 85 317 l 85 507 l 639 507 l 639 317 l 85 317 z "},"_":{"ha":643,"x_min":85,"x_max":560,"o":"m 85 0 l 85 190 l 560 190 l 560 0 l 85 0 z "},"(":{"ha":550,"x_min":85,"x_max":507,"o":"m 329 -210 l 329 32 l 207 32 l 207 268 l 85 268 l 85 576 l 207 576 l 207 815 l 329 815 l 329 1051 l 507 1051 l 507 744 l 383 744 l 383 506 l 261 506 l 261 339 l 383 339 l 383 99 l 507 99 l 507 -210 l 329 -210 z "},")":{"ha":550,"x_min":43,"x_max":465,"o":"m 43 -210 l 43 99 l 165 99 l 165 339 l 289 339 l 289 506 l 165 506 l 165 744 l 43 744 l 43 1051 l 219 1051 l 219 815 l 342 815 l 342 576 l 465 576 l 465 268 l 343 268 l 343 32 l 219 32 l 219 -210 l 43 -210 z "},"{":{"ha":672,"x_min":43,"x_max":586,"o":"m 289 -140 l 289 -21 l 167 -21 l 167 336 l 43 336 l 43 524 l 165 524 l 165 881 l 289 881 l 289 1000 l 465 1000 l 465 881 l 586 881 l 586 692 l 411 692 l 411 810 l 342 810 l 342 454 l 219 454 l 219 407 l 342 407 l 342 50 l 411 50 l 411 169 l 586 169 l 586 -21 l 465 -21 l 465 -140 l 289 -140 z "},"}":{"ha":672,"x_min":43,"x_max":586,"o":"m 164 -140 l 164 -21 l 43 -21 l 43 169 l 218 169 l 218 50 l 289 50 l 289 407 l 410 407 l 410 454 l 289 454 l 289 810 l 218 810 l 218 692 l 43 692 l 43 881 l 164 881 l 164 1000 l 342 1000 l 342 881 l 464 881 l 464 524 l 586 524 l 586 336 l 464 336 l 464 -21 l 342 -21 l 342 -140 l 164 -140 z "},"[":{"ha":550,"x_min":85,"x_max":507,"o":"m 207 -79 l 207 40 l 85 40 l 85 822 l 207 822 l 207 940 l 507 940 l 507 751 l 261 751 l 261 111 l 507 111 l 507 -79 l 207 -79 z "},"]":{"ha":550,"x_min":43,"x_max":465,"o":"m 43 -79 l 43 111 l 289 111 l 289 751 l 43 751 l 43 940 l 342 940 l 342 822 l 465 822 l 465 40 l 342 40 l 342 -79 l 43 -79 z "},"‚":{"ha":407,"x_min":85,"x_max":322,"o":"m 146 -118 l 146 -40 l 146 -29 l 146 0 l 85 0 l 85 190 l 261 190 l 261 71 l 322 71 l 322 -57 l 261 -57 l 261 -118 l 146 -118 z "},"„":{"ha":675,"x_min":85,"x_max":589,"o":"m 414 -118 l 414 -49 l 414 -29 l 414 0 l 351 0 l 351 190 l 531 190 l 531 71 l 589 71 l 589 -57 l 531 -57 l 531 -118 l 414 -118 m 146 -118 l 146 -49 l 146 -29 l 146 0 l 85 0 l 85 190 l 261 190 l 261 71 l 322 71 l 322 -57 l 261 -57 l 261 -118 l 146 -118 z "},"“":{"ha":675,"x_min":85,"x_max":589,"o":"m 413 578 l 413 697 l 351 697 l 351 825 l 413 825 l 413 886 l 529 886 l 529 818 l 529 797 l 529 768 l 589 768 l 589 578 l 413 578 m 144 578 l 144 697 l 85 697 l 85 825 l 144 825 l 144 886 l 260 886 l 260 818 l 260 797 l 260 768 l 322 768 l 322 578 l 144 578 z "},"”":{"ha":675,"x_min":85,"x_max":589,"o":"m 414 578 l 414 643 l 414 667 l 414 696 l 351 696 l 351 886 l 531 886 l 531 767 l 589 767 l 589 638 l 531 638 l 531 578 l 414 578 m 146 578 l 146 649 l 146 667 l 146 696 l 85 696 l 85 886 l 261 886 l 261 767 l 322 767 l 322 638 l 261 638 l 261 578 l 146 578 z "},"‘":{"ha":407,"x_min":85,"x_max":322,"o":"m 144 578 l 144 697 l 85 697 l 85 825 l 144 825 l 144 886 l 260 886 l 260 821 l 260 797 l 260 768 l 322 768 l 322 578 l 144 578 z "},"’":{"ha":407,"x_min":85,"x_max":322,"o":"m 146 578 l 146 638 l 146 667 l 146 696 l 85 696 l 85 886 l 261 886 l 261 767 l 322 767 l 322 638 l 261 638 l 261 578 l 146 578 z "},"«":{"ha":1224,"x_min":43,"x_max":1140,"o":"m 963 -140 l 963 -21 l 840 -21 l 840 99 l 718 99 l 718 217 l 594 217 l 594 336 l 472 336 l 472 524 l 594 524 l 594 643 l 718 643 l 718 763 l 840 763 l 840 881 l 963 881 l 963 1000 l 1140 1000 l 1140 810 l 1017 810 l 1017 692 l 894 692 l 894 572 l 772 572 l 772 454 l 649 454 l 649 407 l 772 407 l 772 288 l 894 288 l 894 169 l 1017 169 l 1017 50 l 1140 50 l 1140 -140 l 963 -140 m 535 -140 l 535 -21 l 411 -21 l 411 99 l 289 99 l 289 217 l 165 217 l 165 336 l 43 336 l 43 524 l 165 524 l 165 643 l 289 643 l 289 763 l 411 763 l 411 881 l 535 881 l 535 1000 l 711 1000 l 711 810 l 586 810 l 586 692 l 465 692 l 465 572 l 342 572 l 342 454 l 219 454 l 219 407 l 342 407 l 342 288 l 465 288 l 465 169 l 586 169 l 586 50 l 711 50 l 711 -140 l 535 -140 z "},"»":{"ha":1196,"x_min":14,"x_max":1113,"o":"m 443 -140 l 443 50 l 567 50 l 567 169 l 689 169 l 689 288 l 813 288 l 813 407 l 935 407 l 935 454 l 813 454 l 813 572 l 689 572 l 689 692 l 567 692 l 567 810 l 443 810 l 443 1000 l 621 1000 l 621 881 l 743 881 l 743 763 l 867 763 l 867 643 l 989 643 l 989 524 l 1113 524 l 1113 336 l 989 336 l 989 217 l 867 217 l 867 99 l 743 99 l 743 -21 l 621 -21 l 621 -140 l 443 -140 m 14 -140 l 14 50 l 138 50 l 138 169 l 260 169 l 260 288 l 383 288 l 383 407 l 506 407 l 506 454 l 383 454 l 383 572 l 260 572 l 260 692 l 138 692 l 138 810 l 14 810 l 14 1000 l 192 1000 l 192 881 l 314 881 l 314 763 l 436 763 l 436 643 l 560 643 l 560 524 l 682 524 l 682 336 l 560 336 l 560 217 l 436 217 l 436 99 l 314 99 l 314 -21 l 192 -21 l 192 -140 l 14 -140 z "},"‹":{"ha":796,"x_min":85,"x_max":753,"o":"m 575 -140 l 575 -21 l 453 -21 l 453 99 l 329 99 l 329 217 l 207 217 l 207 336 l 85 336 l 85 524 l 207 524 l 207 643 l 329 643 l 329 763 l 453 763 l 453 881 l 575 881 l 575 1000 l 753 1000 l 753 810 l 629 810 l 629 692 l 507 692 l 507 572 l 383 572 l 383 454 l 261 454 l 261 407 l 383 407 l 383 288 l 507 288 l 507 169 l 629 169 l 629 50 l 753 50 l 753 -140 l 575 -140 z "},"›":{"ha":796,"x_min":43,"x_max":711,"o":"m 43 -140 l 43 50 l 165 50 l 165 169 l 289 169 l 289 288 l 411 288 l 411 407 l 535 407 l 535 454 l 411 454 l 411 572 l 289 572 l 289 692 l 165 692 l 165 810 l 43 810 l 43 1000 l 219 1000 l 219 881 l 342 881 l 342 763 l 465 763 l 465 643 l 586 643 l 586 524 l 711 524 l 711 336 l 586 336 l 586 217 l 465 217 l 465 99 l 342 99 l 342 -21 l 219 -21 l 219 -140 l 43 -140 z "},"\"":{"ha":675,"x_min":85,"x_max":589,"o":"m 414 578 l 414 642 l 414 667 l 414 696 l 351 696 l 351 886 l 531 886 l 531 767 l 589 767 l 589 638 l 531 638 l 531 578 l 414 578 m 146 578 l 146 638 l 146 667 l 146 696 l 85 696 l 85 886 l 261 886 l 261 767 l 322 767 l 322 638 l 261 638 l 261 578 l 146 578 z "},"'":{"ha":407,"x_min":85,"x_max":322,"o":"m 146 578 l 146 614 l 146 667 l 146 696 l 85 696 l 85 886 l 261 886 l 261 767 l 322 767 l 322 638 l 261 638 l 261 578 l 146 578 z "},"ƒ":{"ha":838,"x_min":-44,"x_max":749,"o":"m -44 -135 l -44 56 l 81 56 l 81 767 l 203 767 l 203 886 l 625 886 l 625 767 l 749 767 l 749 578 l 571 578 l 571 696 l 257 696 l 257 529 l 503 529 l 503 342 l 257 342 l 257 -135 l -44 -135 z "},"@":{"ha":935,"x_min":111,"x_max":747,"o":"m 208 110 l 208 172 l 146 172 l 146 206 l 111 206 l 111 556 l 146 556 l 146 615 l 208 615 l 208 650 l 574 650 l 574 615 l 608 615 l 608 556 l 671 556 l 671 494 l 747 494 l 747 326 l 685 326 l 685 265 l 649 265 l 649 232 l 524 232 l 524 257 l 494 257 l 494 232 l 292 232 l 292 257 l 261 257 l 261 453 l 292 453 l 292 479 l 522 479 l 522 453 l 550 453 l 550 301 l 594 301 l 594 372 l 657 372 l 657 449 l 608 449 l 608 510 l 546 510 l 546 571 l 222 571 l 222 510 l 200 510 l 200 224 l 263 224 l 263 164 l 513 164 l 513 110 l 208 110 m 346 301 l 467 301 l 467 407 l 346 407 l 346 301 z "},"&":{"ha":961,"x_min":85,"x_max":876,"o":"m 207 -15 l 207 103 l 85 103 l 85 293 l 207 293 l 207 413 l 329 413 l 329 460 l 207 460 l 207 578 l 85 578 l 85 767 l 207 767 l 207 886 l 629 886 l 629 767 l 753 767 l 753 578 l 629 578 l 629 460 l 507 460 l 507 413 l 629 413 l 629 293 l 753 293 l 753 174 l 876 174 l 876 -15 l 699 -15 l 699 103 l 629 103 l 629 -15 l 207 -15 m 261 174 l 575 174 l 575 222 l 453 222 l 453 342 l 383 342 l 383 222 l 261 222 l 261 174 m 383 529 l 453 529 l 453 649 l 575 649 l 575 696 l 261 696 l 261 649 l 383 649 l 383 529 z "},"¶":{"ha":1081,"x_min":85,"x_max":996,"o":"m 575 -253 l 575 225 l 207 225 l 207 343 l 85 343 l 85 767 l 207 767 l 207 886 l 996 886 l 996 696 l 928 696 l 928 -253 l 818 -253 l 818 696 l 685 696 l 685 -253 l 575 -253 z "},"§":{"ha":838,"x_min":85,"x_max":753,"o":"m 207 -15 l 207 103 l 85 103 l 85 413 l 207 413 l 207 460 l 85 460 l 85 767 l 207 767 l 207 886 l 629 886 l 629 767 l 753 767 l 753 578 l 575 578 l 575 696 l 261 696 l 261 529 l 629 529 l 629 413 l 753 413 l 753 222 l 261 222 l 261 174 l 753 174 l 753 -15 l 207 -15 z "},"©":{"ha":636,"x_min":97,"x_max":506,"o":"m 160 517 l 160 538 l 97 538 l 97 807 l 160 807 l 160 828 l 442 828 l 442 807 l 506 807 l 506 538 l 442 538 l 442 517 l 160 517 m 172 583 l 429 583 l 429 761 l 172 761 l 172 583 m 242 603 l 242 613 l 231 613 l 231 728 l 242 728 l 242 740 l 367 740 l 367 728 l 376 728 l 376 674 l 326 674 l 326 682 l 282 682 l 282 658 l 326 658 l 326 669 l 376 669 l 376 613 l 367 613 l 367 603 l 242 603 z "},"®":{"ha":636,"x_min":97,"x_max":540,"o":"m 160 500 l 160 521 l 97 521 l 97 814 l 160 814 l 160 835 l 478 835 l 478 814 l 540 814 l 540 521 l 478 521 l 478 500 l 160 500 m 213 597 l 425 597 l 425 738 l 213 738 l 213 597 m 263 607 l 263 678 l 279 678 l 279 721 l 400 721 l 400 692 l 417 692 l 417 642 l 357 642 l 357 658 l 338 658 l 338 607 l 263 607 z "},"™":{"ha":1113,"x_min":85,"x_max":1026,"o":"m 535 390 l 535 824 l 597 824 l 597 886 l 714 886 l 714 824 l 776 824 l 776 706 l 785 706 l 785 824 l 847 824 l 847 886 l 967 886 l 967 824 l 1026 824 l 1026 390 l 913 390 l 913 754 l 901 754 l 901 635 l 839 635 l 839 451 l 722 451 l 722 635 l 660 635 l 660 754 l 651 754 l 651 390 l 535 390 m 210 390 l 210 754 l 200 754 l 200 693 l 85 693 l 85 824 l 146 824 l 146 886 l 390 886 l 390 824 l 451 824 l 451 693 l 336 693 l 336 754 l 326 754 l 326 390 l 210 390 z "},"°":{"ha":469,"x_min":85,"x_max":385,"o":"m 133 515 l 133 563 l 85 563 l 85 776 l 133 776 l 133 824 l 336 824 l 336 776 l 385 776 l 385 563 l 336 563 l 336 515 l 133 515 m 188 633 l 282 633 l 282 706 l 188 706 l 188 633 z "},"|":{"ha":346,"x_min":85,"x_max":261,"o":"m 85 -15 l 85 886 l 261 886 l 261 -15 l 85 -15 z "},"†":{"ha":590,"x_min":85,"x_max":506,"o":"m 206 -15 l 206 529 l 85 529 l 85 719 l 206 719 l 206 886 l 383 886 l 383 719 l 506 719 l 506 529 l 383 529 l 383 -15 l 206 -15 z "},"№":{"ha":1613,"x_min":85,"x_max":1528,"o":"m 85 -15 l 85 886 l 261 886 l 261 767 l 383 767 l 383 649 l 507 649 l 507 293 l 575 293 l 575 886 l 753 886 l 753 -15 l 575 -15 l 575 103 l 453 103 l 453 222 l 329 222 l 329 578 l 261 578 l 261 -15 l 85 -15 m 956 -17 l 956 174 l 1431 174 l 1431 -17 l 956 -17 m 982 219 l 982 338 l 860 338 l 860 764 l 982 764 l 982 883 l 1406 883 l 1406 764 l 1528 764 l 1528 338 l 1406 338 l 1406 219 l 982 219 m 1036 408 l 1351 408 l 1351 693 l 1036 693 l 1036 408 z "},"¢":{"ha":838,"x_min":85,"x_max":753,"o":"m 325 0 l 325 129 l 207 129 l 207 247 l 85 247 l 85 674 l 207 674 l 207 793 l 325 793 l 325 922 l 513 922 l 513 793 l 629 793 l 629 674 l 753 674 l 753 485 l 575 485 l 575 603 l 261 603 l 261 318 l 575 318 l 575 436 l 753 436 l 753 247 l 629 247 l 629 129 l 513 129 l 513 0 l 325 0 z "},"₡":{"ha":838,"x_min":85,"x_max":753,"o":"m 217 -93 l 229 -15 l 207 -15 l 207 103 l 85 103 l 85 767 l 207 767 l 207 886 l 367 886 l 379 964 l 490 964 l 479 886 l 488 886 l 500 964 l 611 964 l 599 886 l 629 886 l 629 767 l 753 767 l 753 460 l 575 460 l 575 696 l 569 696 l 490 174 l 575 174 l 575 413 l 753 413 l 753 103 l 629 103 l 629 -15 l 461 -15 l 449 -93 l 338 -93 l 349 -15 l 342 -15 l 329 -93 l 217 -93 m 261 193 l 263 193 l 336 696 l 261 696 l 261 193 m 371 174 l 379 174 l 457 696 l 447 696 l 371 174 z "},"¤":{"ha":803,"x_min":83,"x_max":718,"o":"m 278 250 l 278 311 l 215 311 l 215 543 l 278 543 l 278 606 l 524 606 l 524 543 l 586 543 l 586 311 l 524 311 l 524 250 l 278 250 m 83 188 l 83 296 l 201 296 l 201 188 l 83 188 m 83 560 l 83 668 l 201 668 l 201 560 l 83 560 m 333 357 l 468 357 l 468 497 l 333 497 l 333 357 m 600 188 l 600 296 l 718 296 l 718 188 l 600 188 m 600 560 l 600 668 l 718 668 l 718 560 l 600 560 z "},"$":{"ha":838,"x_min":85,"x_max":753,"o":"m 342 -135 l 342 -15 l 207 -15 l 207 103 l 85 103 l 85 293 l 261 293 l 261 174 l 575 174 l 575 342 l 207 342 l 207 460 l 85 460 l 85 767 l 207 767 l 207 886 l 342 886 l 342 1006 l 519 1006 l 519 886 l 629 886 l 629 767 l 753 767 l 753 578 l 575 578 l 575 696 l 261 696 l 261 529 l 629 529 l 629 413 l 753 413 l 753 103 l 629 103 l 629 -15 l 519 -15 l 519 -135 l 342 -135 z "},"€":{"ha":838,"x_min":85,"x_max":753,"o":"m 207 -15 l 207 103 l 85 103 l 85 767 l 207 767 l 207 886 l 629 886 l 629 767 l 753 767 l 753 460 l 575 460 l 575 696 l 261 696 l 261 619 l 508 619 l 508 429 l 261 429 l 261 422 l 508 422 l 508 233 l 261 233 l 261 174 l 575 174 l 575 413 l 753 413 l 753 103 l 629 103 l 629 -15 l 207 -15 z "},"₣":{"ha":835,"x_min":32,"x_max":751,"o":"m 32 -15 l 32 175 l 83 175 l 83 886 l 628 886 l 628 767 l 751 767 l 751 578 l 574 578 l 574 696 l 260 696 l 260 529 l 506 529 l 506 342 l 260 342 l 260 175 l 319 175 l 319 -15 l 32 -15 z "},"₤":{"ha":960,"x_min":85,"x_max":875,"o":"m 85 -15 l 85 174 l 207 174 l 207 767 l 329 767 l 329 886 l 753 886 l 753 767 l 875 767 l 875 578 l 699 578 l 699 696 l 383 696 l 383 594 l 629 594 l 629 406 l 383 406 l 383 388 l 629 388 l 629 199 l 383 199 l 383 174 l 699 174 l 699 293 l 875 293 l 875 103 l 753 103 l 753 -15 l 85 -15 z "},"₧":{"ha":1660,"x_min":85,"x_max":1575,"o":"m 85 -15 l 85 767 l 207 767 l 207 886 l 629 886 l 629 767 l 753 767 l 753 342 l 629 342 l 629 222 l 261 222 l 261 -15 l 85 -15 m 261 413 l 575 413 l 575 696 l 261 696 l 261 413 m 900 -15 l 900 43 l 839 43 l 839 217 l 779 217 l 779 347 l 839 347 l 839 463 l 954 463 l 954 347 l 1135 347 l 1135 217 l 954 217 l 954 114 l 1081 114 l 1081 172 l 1196 172 l 1196 43 l 1135 43 l 1135 -15 l 900 -15 m 1219 -15 l 1219 114 l 1281 114 l 1281 160 l 1219 160 l 1219 178 l 1219 192 l 1219 288 l 1281 288 l 1281 347 l 1575 347 l 1575 217 l 1514 217 l 1514 172 l 1575 172 l 1575 160 l 1575 140 l 1575 43 l 1514 43 l 1514 -15 l 1219 -15 z "},"£":{"ha":960,"x_min":85,"x_max":875,"o":"m 85 -15 l 85 174 l 207 174 l 207 767 l 329 767 l 329 886 l 753 886 l 753 767 l 875 767 l 875 578 l 699 578 l 699 696 l 383 696 l 383 529 l 629 529 l 629 342 l 383 342 l 383 174 l 699 174 l 699 293 l 875 293 l 875 103 l 753 103 l 753 -15 l 85 -15 z "},"¥":{"ha":869,"x_min":83,"x_max":761,"o":"m 332 -17 l 332 81 l 208 81 l 208 193 l 332 193 l 332 263 l 208 263 l 208 376 l 332 376 l 332 471 l 208 471 l 208 592 l 83 592 l 83 882 l 263 882 l 263 638 l 386 638 l 386 515 l 457 515 l 457 638 l 581 638 l 581 882 l 761 882 l 761 592 l 635 592 l 635 471 l 513 471 l 513 376 l 635 376 l 635 263 l 513 263 l 513 193 l 635 193 l 635 81 l 513 81 l 513 -17 l 332 -17 z "},"∕":{"ha":761,"x_min":85,"x_max":676,"o":"m 85 -15 l 85 263 l 192 263 l 192 469 l 299 469 l 299 574 l 406 574 l 406 782 l 515 782 l 515 886 l 676 886 l 676 608 l 569 608 l 569 503 l 460 503 l 460 296 l 353 296 l 353 192 l 244 192 l 244 -15 l 85 -15 z "},"+":{"ha":833,"x_min":83,"x_max":751,"o":"m 328 114 l 328 338 l 83 338 l 83 526 l 328 526 l 328 778 l 506 778 l 506 526 l 751 526 l 751 338 l 506 338 l 506 114 l 328 114 z "},"−":{"ha":833,"x_min":140,"x_max":694,"o":"m 140 336 l 140 526 l 694 526 l 694 336 l 140 336 z "},"×":{"ha":833,"x_min":106,"x_max":728,"o":"m 247 140 l 115 269 l 289 436 l 106 613 l 238 742 l 422 564 l 596 732 l 728 604 l 556 436 l 718 279 l 585 151 l 422 308 l 247 140 z "},"÷":{"ha":833,"x_min":140,"x_max":694,"o":"m 140 336 l 140 526 l 694 526 l 694 336 l 140 336 m 328 96 l 328 286 l 506 286 l 506 96 l 328 96 m 328 576 l 328 765 l 506 765 l 506 576 l 328 576 z "},"=":{"ha":833,"x_min":140,"x_max":694,"o":"m 140 410 l 140 600 l 694 600 l 694 410 l 140 410 m 140 129 l 140 319 l 694 319 l 694 129 l 140 129 z "},"≠":{"ha":833,"x_min":140,"x_max":694,"o":"m 208 15 l 414 744 l 593 744 l 388 15 l 208 15 m 140 129 l 140 319 l 694 319 l 694 129 l 140 129 m 140 410 l 140 600 l 694 600 l 694 410 l 140 410 z "},">":{"ha":833,"x_min":83,"x_max":751,"o":"m 83 -140 l 83 50 l 206 50 l 206 169 l 329 169 l 329 288 l 451 288 l 451 407 l 575 407 l 575 454 l 451 454 l 451 572 l 329 572 l 329 692 l 206 692 l 206 810 l 83 810 l 83 1000 l 260 1000 l 260 881 l 382 881 l 382 763 l 506 763 l 506 643 l 626 643 l 626 524 l 751 524 l 751 336 l 626 336 l 626 217 l 506 217 l 506 99 l 382 99 l 382 -21 l 260 -21 l 260 -140 l 83 -140 z "},"<":{"ha":833,"x_min":83,"x_max":751,"o":"m 574 -140 l 574 -21 l 451 -21 l 451 99 l 328 99 l 328 217 l 206 217 l 206 336 l 83 336 l 83 524 l 206 524 l 206 643 l 328 643 l 328 763 l 451 763 l 451 881 l 574 881 l 574 1000 l 751 1000 l 751 810 l 628 810 l 628 692 l 506 692 l 506 572 l 382 572 l 382 454 l 260 454 l 260 407 l 382 407 l 382 288 l 506 288 l 506 169 l 628 169 l 628 50 l 751 50 l 751 -140 l 574 -140 z "},"≥":{"ha":833,"x_min":163,"x_max":672,"o":"m 164 139 l 164 299 l 256 299 l 256 386 l 346 386 l 346 472 l 438 472 l 438 561 l 526 561 l 526 578 l 438 578 l 438 665 l 346 665 l 346 754 l 256 754 l 256 842 l 164 842 l 164 1000 l 310 1000 l 310 913 l 400 913 l 400 825 l 490 825 l 490 736 l 581 736 l 581 649 l 672 649 l 672 490 l 581 490 l 581 401 l 490 401 l 490 315 l 400 315 l 400 228 l 310 228 l 310 139 l 164 139 m 163 -78 l 163 64 l 672 64 l 672 -78 l 163 -78 z "},"≤":{"ha":833,"x_min":163,"x_max":671,"o":"m 524 139 l 524 228 l 433 228 l 433 315 l 343 315 l 343 401 l 253 401 l 253 490 l 163 490 l 163 649 l 253 649 l 253 736 l 343 736 l 343 825 l 433 825 l 433 913 l 524 913 l 524 1000 l 669 1000 l 669 842 l 578 842 l 578 754 l 488 754 l 488 665 l 397 665 l 397 578 l 307 578 l 307 561 l 397 561 l 397 472 l 488 472 l 488 386 l 578 386 l 578 299 l 669 299 l 669 139 l 524 139 m 163 -78 l 163 64 l 671 64 l 671 -78 l 163 -78 z "},"±":{"ha":833,"x_min":140,"x_max":694,"o":"m 328 215 l 328 368 l 140 368 l 140 529 l 328 529 l 328 682 l 506 682 l 506 529 l 694 529 l 694 368 l 506 368 l 506 215 l 328 215 m 140 -10 l 140 153 l 694 153 l 694 -10 l 140 -10 z "},"≈":{"ha":833,"x_min":231,"x_max":604,"o":"m 231 408 l 231 601 l 472 601 l 472 542 l 490 542 l 490 601 l 604 601 l 604 408 l 361 408 l 361 471 l 343 471 l 343 408 l 231 408 m 231 126 l 231 319 l 472 319 l 472 260 l 490 260 l 490 319 l 604 319 l 604 126 l 361 126 l 361 189 l 343 189 l 343 126 l 231 126 z "},"~":{"ha":833,"x_min":231,"x_max":604,"o":"m 231 258 l 231 451 l 472 451 l 472 392 l 490 392 l 490 451 l 604 451 l 604 258 l 361 258 l 361 321 l 343 321 l 343 258 l 231 258 z "},"¬":{"ha":833,"x_min":140,"x_max":694,"o":"m 518 290 l 518 410 l 140 410 l 140 600 l 694 600 l 694 290 l 518 290 z "},"^":{"ha":407,"x_min":85,"x_max":322,"o":"m 85 696 l 85 825 l 146 825 l 146 886 l 261 886 l 261 825 l 322 825 l 322 696 l 207 696 l 207 756 l 199 756 l 199 696 l 85 696 z "},"∞":{"ha":1328,"x_min":85,"x_max":1243,"o":"m 207 -15 l 207 103 l 85 103 l 85 529 l 207 529 l 207 649 l 629 649 l 629 529 l 699 529 l 699 649 l 1121 649 l 1121 529 l 1243 529 l 1243 103 l 1121 103 l 1121 -15 l 699 -15 l 699 103 l 629 103 l 629 -15 l 207 -15 m 261 174 l 575 174 l 575 460 l 261 460 l 261 174 m 753 174 l 1067 174 l 1067 460 l 753 460 l 753 174 z "},"Ω":{"ha":832,"x_min":0,"x_max":829,"o":"m 0 -17 l 0 174 l 82 174 l 82 767 l 204 767 l 204 885 l 626 885 l 626 767 l 750 767 l 750 174 l 829 174 l 829 -17 l 572 -17 l 572 696 l 258 696 l 258 -17 l 0 -17 z "},"∆":{"ha":838,"x_min":85,"x_max":753,"o":"m 85 -15 l 85 649 l 207 649 l 207 767 l 329 767 l 329 886 l 507 886 l 507 767 l 629 767 l 629 649 l 753 649 l 753 -15 l 85 -15 m 261 175 l 575 175 l 575 578 l 453 578 l 453 696 l 383 696 l 383 578 l 261 578 l 261 175 z "},"∏":{"ha":838,"x_min":85,"x_max":753,"o":"m 85 -15 l 85 886 l 753 886 l 753 -15 l 576 -15 l 576 696 l 261 696 l 261 -15 l 85 -15 z "},"∑":{"ha":1082,"x_min":83,"x_max":996,"o":"m 206 -15 l 206 104 l 83 104 l 83 293 l 206 293 l 206 413 l 451 413 l 451 460 l 206 460 l 206 578 l 83 578 l 83 768 l 206 768 l 206 886 l 996 886 l 996 697 l 260 697 l 260 649 l 506 649 l 506 529 l 875 529 l 875 342 l 506 342 l 506 222 l 260 222 l 260 175 l 996 175 l 996 -15 l 206 -15 z "},"µ":{"ha":838,"x_min":85,"x_max":753,"o":"m 85 -246 l 85 649 l 261 649 l 261 174 l 575 174 l 575 649 l 753 649 l 753 103 l 629 103 l 629 -15 l 261 -15 l 261 -246 l 85 -246 z "},"%":{"ha":1217,"x_min":85,"x_max":1132,"o":"m 150 -15 l 150 174 l 275 174 l 275 293 l 396 293 l 396 413 l 521 413 l 521 529 l 642 529 l 642 649 l 765 649 l 765 767 l 889 767 l 889 886 l 1065 886 l 1065 696 l 943 696 l 943 578 l 819 578 l 819 460 l 696 460 l 696 342 l 575 342 l 575 222 l 450 222 l 450 103 l 329 103 l 329 -15 l 150 -15 m 207 460 l 207 578 l 85 578 l 85 767 l 207 767 l 207 886 l 383 886 l 383 767 l 507 767 l 507 578 l 383 578 l 383 460 l 207 460 m 832 -15 l 832 103 l 710 103 l 710 293 l 832 293 l 832 413 l 1010 413 l 1010 293 l 1132 293 l 1132 103 l 1010 103 l 1010 -15 l 832 -15 z "},"‰":{"ha":913,"x_min":43,"x_max":828,"o":"m 144 454 l 144 515 l 83 515 l 83 890 l 144 890 l 144 950 l 389 950 l 389 890 l 451 890 l 451 515 l 389 515 l 389 454 l 144 454 m 144 -81 l 144 -21 l 83 -21 l 83 213 l 144 213 l 144 274 l 389 274 l 389 213 l 451 213 l 451 -21 l 389 -21 l 389 -81 l 144 -81 m 199 50 l 335 50 l 335 142 l 199 142 l 199 50 m 522 -81 l 522 -21 l 458 -21 l 458 213 l 522 213 l 522 274 l 765 274 l 765 213 l 828 213 l 828 -21 l 765 -21 l 765 -81 l 522 -81 m 575 50 l 711 50 l 711 142 l 575 142 l 575 50 m 43 325 l 43 442 l 765 442 l 765 325 l 43 325 m 199 586 l 335 586 l 335 819 l 199 819 l 199 586 z "},"̈":{"ha":0,"x_min":-24,"x_max":440,"o":"m -24 700 l -24 890 l 154 890 l 154 700 l -24 700 m 264 700 l 264 890 l 440 890 l 440 700 l 264 700 z "},"̇":{"ha":0,"x_min":119,"x_max":297,"o":"m 119 710 l 119 900 l 297 900 l 297 710 l 119 710 z "},"̀":{"ha":0,"x_min":83,"x_max":321,"o":"m 206 708 l 206 767 l 144 767 l 144 826 l 83 826 l 83 957 l 197 957 l 197 896 l 260 896 l 260 838 l 321 838 l 321 708 l 206 708 z "},"́":{"ha":0,"x_min":90,"x_max":328,"o":"m 90 708 l 90 838 l 151 838 l 151 896 l 214 896 l 214 957 l 328 957 l 328 826 l 267 826 l 267 767 l 206 767 l 206 708 l 90 708 z "},"̋":{"ha":0,"x_min":-40,"x_max":456,"o":"m 340 708 l 340 767 l 279 767 l 279 826 l 218 826 l 218 957 l 332 957 l 332 896 l 394 896 l 394 838 l 456 838 l 456 708 l 340 708 m 82 708 l 82 767 l 21 767 l 21 826 l -40 826 l -40 957 l 74 957 l 74 896 l 136 896 l 136 838 l 197 838 l 197 708 l 82 708 z "},"̂":{"ha":0,"x_min":89,"x_max":326,"o":"m 89 708 l 89 838 l 150 838 l 150 899 l 265 899 l 265 838 l 326 838 l 326 708 l 211 708 l 211 768 l 203 768 l 203 708 l 89 708 z "},"̌":{"ha":0,"x_min":89,"x_max":326,"o":"m 150 708 l 150 769 l 89 769 l 89 899 l 203 899 l 203 839 l 211 839 l 211 899 l 326 899 l 326 769 l 265 769 l 265 708 l 150 708 z "},"̆":{"ha":0,"x_min":25,"x_max":393,"o":"m 25 708 l 25 899 l 139 899 l 139 839 l 281 839 l 281 899 l 393 899 l 393 708 l 25 708 z "},"̊":{"ha":0,"x_min":122,"x_max":296,"o":"m 122 710 l 122 900 l 296 900 l 296 710 l 122 710 m 168 756 l 250 756 l 250 854 l 168 854 l 168 756 z "},"̃":{"ha":0,"x_min":21,"x_max":394,"o":"m 21 708 l 21 901 l 267 901 l 267 842 l 276 842 l 276 901 l 394 901 l 394 708 l 147 708 l 147 771 l 138 771 l 138 708 l 21 708 z "},"̄":{"ha":0,"x_min":-3,"x_max":419,"o":"m -3 708 l -3 899 l 419 899 l 419 708 l -3 708 z "},"̒":{"ha":0,"x_min":89,"x_max":326,"o":"m 150 708 l 150 828 l 89 828 l 89 956 l 150 956 l 150 1017 l 265 1017 l 265 928 l 265 929 l 265 899 l 326 899 l 326 708 l 150 708 z "},"̦":{"ha":0,"x_min":122,"x_max":360,"o":"m 183 -368 l 183 -279 l 183 -278 l 183 -250 l 122 -250 l 122 -60 l 299 -60 l 299 -179 l 360 -179 l 360 -307 l 299 -307 l 299 -368 l 183 -368 z "},"̧":{"ha":0,"x_min":28,"x_max":388,"o":"m 89 -262 l 89 -203 l 28 -203 l 28 -74 l 143 -74 l 143 -132 l 211 -132 l 211 -114 l 211 -108 l 211 -85 l 150 -85 l 150 29 l 326 29 l 326 -74 l 388 -74 l 388 -125 l 388 -151 l 388 -203 l 326 -203 l 326 -262 l 89 -262 z "},"̨":{"ha":0,"x_min":28,"x_max":388,"o":"m 89 -262 l 89 -203 l 28 -203 l 28 -74 l 89 -74 l 89 -43 l 89 -44 l 89 54 l 267 54 l 267 -85 l 204 -85 l 204 -97 l 204 -108 l 204 -132 l 274 -132 l 274 -74 l 388 -74 l 388 -203 l 326 -203 l 326 -262 l 89 -262 z "},"¨":{"ha":417,"x_min":-21,"x_max":443,"o":"m -21 700 l -21 890 l 157 890 l 157 700 l -21 700 m 267 700 l 267 890 l 443 890 l 443 700 l 267 700 z "},"˙":{"ha":417,"x_min":133,"x_max":311,"o":"m 133 710 l 133 900 l 311 900 l 311 710 l 133 710 z "},"`":{"ha":404,"x_min":83,"x_max":321,"o":"m 206 708 l 206 767 l 144 767 l 144 826 l 83 826 l 83 957 l 197 957 l 197 896 l 260 896 l 260 838 l 321 838 l 321 708 l 206 708 z "},"´":{"ha":417,"x_min":83,"x_max":321,"o":"m 83 708 l 83 838 l 144 838 l 144 896 l 207 896 l 207 957 l 321 957 l 321 826 l 260 826 l 260 767 l 199 767 l 199 708 l 83 708 z "},"˝":{"ha":561,"x_min":15,"x_max":511,"o":"m 396 699 l 396 757 l 335 757 l 335 817 l 274 817 l 274 947 l 388 947 l 388 886 l 450 886 l 450 828 l 511 828 l 511 699 l 396 699 m 138 699 l 138 757 l 76 757 l 76 817 l 15 817 l 15 947 l 129 947 l 129 886 l 192 886 l 192 828 l 253 828 l 253 699 l 138 699 z "},"ˆ":{"ha":417,"x_min":89,"x_max":326,"o":"m 89 708 l 89 838 l 150 838 l 150 899 l 265 899 l 265 838 l 326 838 l 326 708 l 211 708 l 211 768 l 203 768 l 203 708 l 89 708 z "},"ˇ":{"ha":417,"x_min":89,"x_max":326,"o":"m 150 708 l 150 769 l 89 769 l 89 899 l 203 899 l 203 839 l 211 839 l 211 899 l 326 899 l 326 769 l 265 769 l 265 708 l 150 708 z "},"˘":{"ha":417,"x_min":24,"x_max":392,"o":"m 24 708 l 24 899 l 138 899 l 138 839 l 279 839 l 279 899 l 392 899 l 392 708 l 24 708 z "},"˚":{"ha":417,"x_min":119,"x_max":293,"o":"m 119 710 l 119 900 l 293 900 l 293 710 l 119 710 m 165 756 l 247 756 l 247 854 l 165 854 l 165 756 z "},"˜":{"ha":417,"x_min":21,"x_max":394,"o":"m 21 708 l 21 901 l 267 901 l 267 842 l 276 842 l 276 901 l 394 901 l 394 708 l 147 708 l 147 771 l 138 771 l 138 708 l 21 708 z "},"¯":{"ha":417,"x_min":-3,"x_max":419,"o":"m -3 811 l -3 1001 l 419 1001 l 419 811 l -3 811 z "},"¸":{"ha":417,"x_min":31,"x_max":390,"o":"m 92 -262 l 92 -203 l 31 -203 l 31 -74 l 146 -74 l 146 -132 l 214 -132 l 214 -119 l 214 -108 l 214 -85 l 153 -85 l 153 29 l 329 29 l 329 -74 l 390 -74 l 390 -125 l 390 -151 l 390 -203 l 329 -203 l 329 -262 l 92 -262 z "},"˛":{"ha":417,"x_min":29,"x_max":389,"o":"m 90 -262 l 90 -203 l 29 -203 l 29 -74 l 90 -74 l 90 -57 l 90 -44 l 90 54 l 267 54 l 267 -85 l 206 -85 l 206 -96 l 206 -108 l 206 -132 l 275 -132 l 275 -74 l 389 -74 l 389 -203 l 328 -203 l 328 -262 l 90 -262 z "}}}
